<?xml version="1.0" standalone="no"?>
<!DOCTYPE svg PUBLIC "-//W3C//DTD SVG 1.1//EN" "http://www.w3.org/Graphics/SVG/1.1/DTD/svg11.dtd" >
<svg xmlns="http://www.w3.org/2000/svg" xmlns:xlink="http://www.w3.org/1999/xlink" version="1.1">
<metadata></metadata>
<defs>
<font id="woodennickelblackregular" horiz-adv-x="614" >
<font-face units-per-em="2048" ascent="1638" descent="-410" />
<missing-glyph horiz-adv-x="299" />
<glyph horiz-adv-x="0" />
<glyph horiz-adv-x="682" />
<glyph unicode=" "  horiz-adv-x="299" />
<glyph unicode="&#x09;" horiz-adv-x="299" />
<glyph unicode="&#xa0;" horiz-adv-x="299" />
<glyph unicode="!" horiz-adv-x="667" d="M565 80q0 -78 -67.5 -132t-161.5 -54t-163 54t-69 132q0 80 69 135t163 55t161.5 -55t67.5 -135v0zM637 1266l-170 -785q-8 -51 -41 -87t-84 -36q-49 0 -84 34t-49 89l-178 785q0 84 90 143t215 59q123 0 212 -59t89 -143v0z" />
<glyph unicode="&#x22;" horiz-adv-x="649" d="M356 1374q0 -43 -18.5 -103.5t-38.5 -129.5q-14 -45 -27.5 -92.5t-21.5 -94.5q-4 -29 -7 -56.5t-3 -53.5h-82q0 33 -4 65.5t-11 67.5q-10 41 -21 83t-24 83q-25 70 -43 131t-18 100q0 45 47 77t113 32t112.5 -32t46.5 -77v0zM725 1374q0 -43 -18.5 -103.5t-38.5 -129.5 q-14 -45 -27.5 -92.5t-22.5 -94.5q-4 -29 -7 -56.5t-3 -53.5h-82q0 33 -4 65.5t-10 67.5q-10 41 -21.5 83t-23.5 83q-25 70 -43 131t-18 100q0 45 47 77t112 32q66 0 113 -32t47 -77v0z" />
<glyph unicode="#" horiz-adv-x="1019" d="M1018 965l-51 -154h-252l-27 -90h260l-47 -154h-256l-182 -639h-154l180 639h-75l-183 -639h-153l180 639h-252l47 154h248l27 90h-252l43 154h250l159 561h154l-158 -561h78l158 561h155l-159 -561h262v0zM559 811h-78l-26 -90h77l27 90v0z" />
<glyph unicode="$" horiz-adv-x="989" d="M944 356q-4 -150 -110.5 -261t-266.5 -142v-180h-108v170q-33 2 -77 7t-91 13q-88 18 -161 53t-73 93q0 63 50.5 93.5t109.5 30.5t108.5 -30.5t55.5 -93.5q4 -37 32.5 -55.5t63.5 -18.5h3h3q39 2 73 26.5t34 71.5q0 25 -19.5 52.5t-50.5 54.5q-20 18 -43.5 36.5 t-46.5 36.5q-43 31 -83 57.5t-60 45.5q-100 90 -171 197.5t-71 222.5q0 160 120 279.5t294 144.5v167h108v-163q74 -4 128.5 -20.5t95.5 -35.5q6 -4 12 -7t12 -5q45 -25 63.5 -48.5t16.5 -45.5q-2 -39 -46 -66.5t-97 -31.5h-8.5h-8.5q-45 0 -83 21.5t-48 72.5 q-6 35 -29.5 49t-52.5 14h-5h-5q-39 -4 -71.5 -28.5t-32.5 -61.5q0 -20 17 -46t56 -52q78 -53 144.5 -96t117.5 -86q100 -78 150.5 -169.5t50.5 -242.5v-5v-5v-6.5v-6.5v0z" />
<glyph unicode="%" horiz-adv-x="1576" d="M1536 395q0 -168 -54.5 -253t-119.5 -119q-39 -18 -75 -24.5t-60 -6.5q-25 0 -61 6t-74 25q-66 35 -120 119.5t-54 252.5q0 166 54 251t120 118q39 20 74.5 26.5t60.5 6.5t60.5 -6.5t74.5 -26.5q66 -33 120 -118t54 -251v0zM1290 395q0 115 -18.5 162t-44.5 47 q-27 0 -45.5 -47t-18.5 -162t18.5 -165t45.5 -50t45 50.5t18 164.5v0zM1217 1581l-599 -1581h-256l599 1581h256v0zM659 1190q0 -168 -54 -253t-120 -120q-39 -18 -74.5 -25.5t-60.5 -7.5t-60.5 7.5t-74.5 25.5q-66 35 -120 120t-54 253q0 166 54.5 251t119.5 118 q39 20 75 26t60 6q25 0 60.5 -6t74.5 -26q66 -33 120 -118t54 -251v0zM414 1190q0 115 -18.5 162t-45.5 47t-45 -47t-18 -162t18.5 -165t44.5 -50q27 0 45.5 50t18.5 165v0z" />
<glyph unicode="&#x26;" horiz-adv-x="1679" d="M1710 709q0 -53 -63.5 -93.5t-165.5 -40.5q-27 0 -48.5 6.5t-39.5 14.5q-8 4 -15.5 7t-13.5 5q-4 2 -8 2h-8q-10 0 -19.5 -3t-15.5 -9q-4 -2 -7 -5t-8 -5q-12 -12 -23 -25.5t-9 -30.5v-3v-3q16 -63 42.5 -124.5t55.5 -122.5q4 -8 8 -17.5t8 -17.5q10 -25 20.5 -48.5 t20.5 -45.5q35 14 71 27t71 26q16 4 30.5 7t26.5 3q25 0 41 -10t14 -33q0 -8 -3 -21.5t-13 -29.5q-51 -90 -156.5 -155.5t-222.5 -82.5q-14 -2 -29.5 -3t-29.5 -1q-88 0 -168 43t-131 137q-10 -4 -19.5 -9t-17.5 -11q-27 -16 -56.5 -35.5t-74.5 -44.5q-23 -12 -45.5 -23.5 t-42.5 -21.5q-31 -14 -62 -22.5t-65 -8.5q-14 0 -28.5 1t-27.5 3q-152 25 -276.5 157t-124.5 310q0 131 81 226.5t177 160.5q20 12 40.5 24.5t39.5 22.5q84 49 140 74t83 39q-6 14 -13 30.5t-14 35.5q-6 16 -12 32.5t-12 32.5q-10 31 -17.5 60.5t-7.5 56.5q0 102 98.5 174 t237.5 72t237.5 -72t98.5 -174q0 -63 -42 -116.5t-107 -88.5l100 -221q66 39 114 61.5t80 36.5q27 10 55.5 16.5t61.5 6.5q88 0 148.5 -40t60.5 -93v0zM829 250q-2 25 -8 46t-14 44q-4 16 -10 31.5t-13 29.5q-4 12 -9 24.5t-9 25.5q-10 31 -21.5 61.5t-23.5 60.5 q-10 31 -23.5 61t-27.5 60q-2 8 -8.5 9.5t-16.5 -1.5q-49 -4 -72.5 -44t-23.5 -99q0 -27 5 -56.5t13 -60.5q29 -100 85.5 -172.5t119.5 -72.5h1h3h3h1q23 2 36 13t13 32v5v3v0zM1104 1153v1v3v3v1q0 33 -22.5 60.5t-49.5 42.5q-10 4 -19 7t-18 3h-1h-3h-3h-1q-14 0 -21.5 -6 t-7.5 -21q0 -12 6.5 -30.5t18.5 -42.5l68 -144q8 8 14 16.5t12 14.5q12 18 18.5 39.5t8.5 52.5v0z" />
<glyph unicode="'" horiz-adv-x="372" d="M356 1374q0 -43 -18.5 -103.5t-38.5 -129.5q-14 -45 -27.5 -92.5t-21.5 -94.5q-4 -29 -7 -56.5t-3 -53.5h-82q0 33 -4 65.5t-11 67.5q-10 41 -21 83t-24 83q-25 70 -43 131t-18 100q0 45 47 77t113 32t112.5 -32t46.5 -77v0z" />
<glyph unicode="(" horiz-adv-x="559" d="M518 -352h-254q0 2 -31.5 73.5t-68.5 198.5q-39 127 -71 304t-32 390t32 390.5t71 306.5q37 127 68 199l32 71h254l-24 -79q-23 -79 -50 -212q-29 -133 -52 -308t-23 -368t23.5 -367.5t51.5 -305.5q27 -133 50 -212l24 -79v-2z" />
<glyph unicode=")" horiz-adv-x="559" d="M498 614q0 -213 -32 -390t-69 -304q-39 -127 -71 -198l-31 -72l-254 -2q0 2 23.5 80.5t52.5 212.5q27 131 50 306t23 367q0 193 -23.5 368t-49.5 308q-29 133 -53 212l-23 79h254l31 -71q32 -72 71 -199q37 -129 69 -306.5t32 -390.5v0z" />
<glyph unicode="*" horiz-adv-x="622" d="M594 1300q0 -33 -23.5 -57t-58.5 -24q-14 0 -27.5 9t-27.5 19q-12 10 -25.5 19.5t-25.5 9.5h-52l25 -43q6 -12 19.5 -18.5t27.5 -12.5q2 0 4 -1t4 -1q23 -8 41.5 -22.5t18.5 -51.5q0 -35 -24 -58.5t-58 -23.5q-29 0 -53.5 19.5t-24.5 50.5q0 8 1 16.5t3 16.5t3 16t1 17 q0 14 -5 26.5t-11 22.5q-2 4 -4.5 8t-6.5 8q0 2 -1 4t-3 4q-2 -4 -5 -9t-5 -9q0 -2 -1 -3l-3 -3q-6 -12 -11 -23.5t-5 -25.5q0 -8 1 -16.5t3 -16.5q0 -10 1 -18.5t1 -16.5q0 -35 -25.5 -50t-56.5 -18h-3h-3q-29 0 -46.5 23t-21.5 49q-2 4 -2 10.5v10.5q0 29 18.5 41t40.5 20 h2h3q14 6 28.5 13.5t22.5 19.5l24 45h-51q-10 0 -19.5 -5t-19.5 -11q-4 -4 -7 -6.5t-7 -6.5q-12 -10 -27.5 -19t-38.5 -9t-41 18t-24 41q-2 6 -3 11t-1 11q0 33 24.5 57.5t57.5 24.5q12 0 19 -4t15 -10q4 -2 8.5 -6t10.5 -8q14 -10 36.5 -19.5t67.5 -9.5l-26 45 q-6 12 -19.5 18.5t-27.5 12.5h-3.5t-3.5 2q-23 8 -41 21.5t-18 50.5q0 35 24.5 58t57.5 23h3h3q27 -2 48.5 -21t21.5 -48q0 -8 -1 -16.5t-1 -16.5q-2 -8 -3 -16t-1 -17q0 -14 4 -24.5t10 -20.5q2 -4 5 -9t7 -9q0 -2 1 -4t3 -4q4 6 8.5 13t8.5 13q4 10 8 20.5t4 24.5 q0 8 -1 16.5t-1 16.5q-2 8 -3 16.5t-1 16.5q0 29 21.5 48t47.5 21h3.5h3.5q35 0 58.5 -23.5t23.5 -57.5q0 -35 -18.5 -49.5t-41.5 -24.5q-2 0 -5 -1t-5 -1q-14 -6 -25.5 -12.5t-17.5 -16.5l-27 -45h54q12 0 23 7t22 16q2 2 4 3t4 3q12 10 25.5 19t27.5 9q33 0 57.5 -24.5 t24.5 -57.5v0z" />
<glyph unicode="+" horiz-adv-x="819" d="M819 690h-338v-336h-155v336h-336v156h336v338h155v-338h338v-156v0z" />
<glyph unicode="," horiz-adv-x="485" d="M457 145q4 -8 5 -16t1 -18q0 -31 -14.5 -70t-40.5 -76q-31 -49 -73 -96t-85 -80q-20 -14 -40 -25.5t-38 -19.5q-10 -14 -30.5 -21.5t-43.5 -7.5q-8 0 -15 1t-15 3q-16 4 -27.5 14.5t-15.5 22.5q0 2 -1 5t-1 8q0 6 2 11t4 9q10 2 21 6l22 8q45 16 81.5 48t36.5 69 q0 14 -6 27.5t-22 27.5q-6 4 -12.5 9.5t-12.5 11.5q-4 4 -8 6t-10 6q-35 31 -65.5 62.5t-30.5 74.5q0 63 69.5 108.5t157.5 45.5q86 0 146.5 -45t60.5 -109v0z" />
<glyph unicode="-" horiz-adv-x="747" d="M655 487h-563v256h563v-256v0z" />
<glyph unicode="." horiz-adv-x="483" d="M461 92q0 -76 -64.5 -128t-154.5 -52t-154.5 52t-64.5 128t64.5 129t154.5 53t154.5 -53t64.5 -129v0z" />
<glyph unicode="/" d="M715 1669l-676 -2007h-160l676 2007h160v0z" />
<glyph unicode="0" horiz-adv-x="1466" d="M1399 664q0 -315 -194.5 -539.5t-471.5 -224.5q-276 0 -470.5 224t-194.5 540q0 317 194.5 542.5t470.5 225.5t471 -225.5t195 -542.5v0zM866 104q0 10 -7 16.5t-15 14.5q-8 6 -15.5 13.5t-7.5 15.5l-2 1053q0 31 -32.5 52t-77.5 21t-77 -21.5t-32 -51.5q0 -4 2 -9.5 t6 -11.5q4 -2 7 -6t8 -8q8 -8 15 -14l7 -7l2 -1059q0 -14 9.5 -25t23.5 -20q14 -12 34.5 -18t41.5 -6q45 0 77.5 22.5t32.5 48.5v0z" />
<glyph unicode="1" horiz-adv-x="1042" d="M977 -4q0 -25 -26.5 -43.5t-61.5 -18.5l-553 -2q-39 2 -63.5 20.5t-24.5 45.5q0 20 24.5 38.5t63.5 18.5l18 13v1017h-237q-37 0 -62.5 17.5t-25.5 44.5q0 14 14 24.5t33 18.5q12 6 23.5 9t17.5 5l598 254q16 6 30.5 9t26.5 3q43 0 68.5 -26.5t25.5 -67.5v-1308l23 -13 q35 0 61.5 -18.5t26.5 -38.5v-2z" />
<glyph unicode="2" horiz-adv-x="1472" d="M1403 285l-125 -246q-33 -63 -78 -87t-98 -24q-35 0 -70 6.5t-71 14.5q-10 2 -18.5 4t-18.5 4q-100 20 -190.5 30.5t-170.5 10.5q-104 0 -189 -17.5t-147 -50.5q-6 -4 -13 -5t-17 -1t-21.5 2t-23.5 4q-33 10 -59.5 32t-26.5 50q0 6 2 12.5t4 12.5q49 121 147 216t207 185 q4 4 9 8.5t9 8.5q141 119 256 246.5t115 306.5q0 133 -40 225t-111 92q-57 0 -88 -11t-54 -30q-20 -16 -28.5 -34.5t-10.5 -37.5q-2 -6 -2 -12v-12v-16.5t2 -16.5v-14v-15q0 -12 -2 -22t-8 -21q-31 -39 -71 -58t-80 -24h-9.5h-9.5q-78 0 -140.5 48.5t-60.5 117.5 q0 20 6.5 41t18.5 41q45 74 160.5 117t247.5 61q49 8 99 11.5t95 3.5q51 0 129 -11.5t162 -39.5q133 -47 243.5 -148.5t110.5 -284.5q0 -125 -89 -221t-206 -155q-45 -23 -97 -44.5t-105 -41.5q-96 -35 -183.5 -66t-128.5 -55q-8 -4 -16 -9.5t-14 -11.5q-20 -14 -29.5 -29.5 t-9.5 -27.5q0 -14 16 -24.5t49 -10.5q16 0 34.5 2t41.5 8q12 4 31.5 11.5t42.5 13.5q2 2 5 3t5 1q25 8 48.5 15.5t35.5 9.5h8t8 2h6h9q45 0 79.5 -11.5t65.5 -23.5l8 -4t8 -2q27 -12 55.5 -20.5t61.5 -8.5q18 0 40 3t46 11q16 6 25.5 13.5t17.5 15.5q0 2 2 3t2 3 q12 12 26.5 21.5t47.5 9.5q35 0 60.5 -13.5t23.5 -29.5v-3v-1q0 -2 -1 -3t-1 -3v0z" />
<glyph unicode="3" horiz-adv-x="1462" d="M1395 403q0 -197 -213 -328.5t-469 -160.5q-31 -4 -61.5 -5t-61.5 -1q-145 0 -272.5 43t-204.5 135q-25 31 -36 57.5t-11 51.5q2 57 53 89.5t112 37.5h7.5h5.5q59 0 107 -32t48 -104v-7v-7q2 -10 3 -18.5t6 -14.5q29 -51 75.5 -78.5t102.5 -27.5q127 0 184 105.5 t57 232.5q0 102 -31.5 192t-90.5 131q-4 2 -7.5 4t-7.5 7q-27 16 -58.5 31.5t-64.5 15.5h-6t-6 -2q-4 0 -7 -1t-7 -1q-8 -2 -18.5 -4.5t-22.5 -6.5q-18 -2 -39 -6t-41 -6q-12 -2 -25.5 -3t-25.5 -1q-43 0 -75 15.5t-32 60.5t58.5 57t134.5 12h24.5h24.5h12h12q18 -2 37 -2 h37q29 0 53.5 2t42.5 6q70 20 110 82t40 156q0 113 -56.5 164t-121.5 59q-8 2 -15.5 2h-15.5q-55 0 -98 -23.5t-43 -58.5v-3t2 -3v-3v-3q2 -8 3 -15t1 -16q0 -57 -50.5 -83.5t-111.5 -26.5h-5h-5q-63 2 -116.5 31.5t-53.5 85.5q0 25 10 43t27 36q16 14 36.5 30.5t45.5 35.5 q63 49 162.5 71.5t213.5 22.5q27 0 54.5 -1t56.5 -3q207 -20 381 -105t174 -221q0 -125 -84 -184t-223 -100q170 -57 274.5 -175t104.5 -264v0z" />
<glyph unicode="4" horiz-adv-x="1466" d="M1399 449v-3.5v-3.5q0 -23 -25.5 -38t-56.5 -17h-3h-3h-94v-321l22 -13q35 0 61.5 -17.5t26.5 -37.5q0 -27 -26.5 -45.5t-61.5 -18.5l-553 -2q-39 2 -63.5 20.5t-24.5 45.5q0 20 24.5 37.5t63.5 17.5l19 13v321h-549h-5.5h-5.5q-31 4 -55 23.5t-24 42.5q2 8 4 15t10 15 l881 908q23 23 49 38t53 23q10 2 21.5 3t21.5 1h4h4h2h4q39 -6 68 -29.5t29 -80.5v-838h94q37 0 59.5 -16.5t26.5 -36.5q2 -2 2 -3v-3v0zM705 508v381l-381 -381h381v0z" />
<glyph unicode="5" horiz-adv-x="1366" d="M1305 401q0 -207 -195 -323.5t-426 -151.5q-51 -8 -101.5 -11t-99.5 -3q-174 0 -298 47t-124 141q0 72 55.5 108t125.5 36h9t9 -2q59 -4 113.5 -36t81.5 -91q23 -51 66.5 -74t96.5 -23q12 0 24.5 1t27.5 4q82 16 151.5 78.5t69.5 156.5q0 133 -147.5 211t-323.5 86h-19.5 h-19.5q-41 0 -82 -3t-80 -13q-20 -4 -38.5 -7.5t-35.5 -3.5q-45 0 -64.5 20.5t-19.5 49.5q0 10 2.5 20.5t4.5 20.5q2 4 4 10t4 10l278 730q10 29 36 41t61 12q47 0 109.5 -16.5t131.5 -36.5q20 -6 40 -11.5t40 -11.5q49 -12 98.5 -21.5t94.5 -9.5q55 0 101 17.5t79 60.5 q4 6 18.5 9t30.5 3h8h8q27 -4 48.5 -14t19.5 -35v-9t-4 -11q-8 -14 -14.5 -29.5t-12.5 -32.5q-4 -14 -9 -27.5t-11 -27.5q-27 -70 -74 -127t-152 -57h-15t-17 2q-27 2 -73 12t-99 23q-20 4 -41 8t-39 8q-43 8 -84 13t-76 5q-45 0 -79 -11t-44 -40l-69 -201q61 12 122.5 18.5 t118.5 4.5q291 0 495 -135t204 -361v0z" />
<glyph unicode="6" horiz-adv-x="1415" d="M1350 504q0 -229 -166 -403.5t-371 -178.5h-23.5h-21.5q-446 0 -575.5 237.5t-129.5 547.5q0 317 219.5 533t528.5 216q39 0 108.5 -4t147.5 -22q20 -6 40.5 -13.5t41.5 -15.5q43 -18 67.5 -46t28.5 -57v-7v-7q0 -14 -6 -28.5t-18 -24.5q-25 -23 -59 -34t-70 -9h-16.5 t-14.5 2q-76 8 -138.5 49t-66.5 94q-10 4 -23.5 7t-25.5 3q-6 2 -12.5 2.5t-12.5 0.5q-88 0 -143 -41t-66 -91q0 -6 -1 -11t-1 -9q2 -45 46.5 -79t144.5 -34q391 0 489.5 -172t98.5 -405v0zM844 133q0 10 -7.5 16.5t-13.5 12.5l-2 2h-2l-12 12t-6 14v678q0 35 -35 53.5 t-78 18.5h-3h-3q-39 -2 -70.5 -19.5t-31.5 -52.5q0 -4 3 -10t7 -12q2 -4 5 -7t7 -8q8 -8 16 -14l7 -6v-680q0 -31 33.5 -48t74.5 -20h5h5q39 0 70 16.5t31 53.5v0z" />
<glyph unicode="7" horiz-adv-x="1372" d="M1305 1319q-125 -172 -217.5 -359.5t-90.5 -420.5q0 -231 42 -351t118 -178h33q37 0 62.5 -16.5t25.5 -40.5q0 -20 -21.5 -35.5t-46.5 -21.5q-4 0 -10 -1t-10 -1l-858 -3q-37 2 -64.5 19.5t-23.5 42.5q4 27 27.5 42t60.5 15h102q-2 106 5 190.5t24 164.5q6 37 15 72.5 t22 72.5q29 100 90 194.5t127 184.5q14 18 27.5 36.5t25.5 37.5q39 53 55.5 98t16.5 82q0 74 -53.5 110.5t-118.5 36.5h-4h-4q-57 -2 -108.5 -33.5t-68.5 -93.5q-16 -63 -79.5 -94t-135.5 -31q-80 0 -144.5 36t-64.5 106q0 88 99.5 135t218.5 67q41 6 81 10.5t77 6.5h13h15 q53 0 110.5 -7.5t117.5 -17.5q6 0 11 -1t11 -3q53 -8 106.5 -14t102.5 -6q47 0 91 8t81 28q4 4 10 4.5t13 0.5q6 0 14 -1t16 -4q29 -8 50.5 -26.5t5.5 -40.5v0z" />
<glyph unicode="8" horiz-adv-x="1505" d="M1432 307q-23 -195 -231 -291t-451 -98h-3.5h-3.5q-254 2 -464.5 107.5t-210.5 322.5q0 106 74.5 198.5t199.5 151.5q-100 96 -139 178t-39 152q0 59 20.5 111.5t46.5 101.5q59 106 199.5 157.5t298.5 53.5h6h4h3h3q205 -2 377 -85t172 -239q0 -76 -56 -141t-142 -110 q25 -14 48 -30l46 -32q131 -94 189.5 -194.5t58.5 -229.5q0 -6 -1 -13t-1 -13q0 -14 -1 -28.5t-3 -29.5v0zM1077 160q16 27 24.5 51.5t6.5 46.5q0 104 -122 183t-269 128q-33 12 -66 21.5t-63 17.5q-164 -8 -246 -91t-82 -187q0 -135 135 -219t297 -95q10 -2 21.5 -2h21.5 q102 0 195.5 35t146.5 111v0zM1135 1124q0 100 -103.5 157.5t-228.5 59.5h-7h-5q-82 0 -159 -27.5t-118 -86.5q-2 -4 -4 -7t-4 -8q-2 -6 -4 -13t-2 -15q0 -12 4 -24.5t10 -24.5q31 -55 114 -104.5t175 -74.5q31 -6 59.5 -10t57.5 -4q31 0 58.5 5t49.5 18q53 27 80 69.5 t27 89.5v0z" />
<glyph unicode="9" horiz-adv-x="1419" d="M1356 676q0 -59 -16.5 -126t-47.5 -136q-84 -188 -268 -344t-438 -156q-74 2 -153 18.5t-163 53.5q-41 16 -64.5 37.5t-29.5 44.5q-2 6 -3 11t-1 11q0 41 46 74t116 31q31 0 64.5 -7.5t68.5 -23.5q33 -16 53.5 -37t32.5 -41q4 -10 7 -19.5t3 -17.5q23 -6 43.5 -9t40.5 -3 q82 0 133 42t60 93q2 6 2 11v10q-2 45 -43 78.5t-133 33.5q-20 0 -42 -2t-46 -6q-266 4 -390.5 158.5t-124.5 351.5q0 16 1.5 33.5t3.5 36.5q23 215 176 396t411 183q430 4 565.5 -229.5t135.5 -550.5v0zM838 510q0 4 -3.5 10t-7.5 12q-2 4 -5 7.5t-5 7.5q-8 8 -15 14l-7 6 v680q0 31 -35 49.5t-76 20.5h-3h-3q-39 0 -71 -17.5t-32 -54.5q0 -8 7.5 -15t15.5 -13v-2.5t2 -0.5l12 -12t6 -14v-678q0 -35 35 -53.5t76 -18.5t75 18.5t34 53.5v0z" />
<glyph unicode=":" horiz-adv-x="483" d="M461 92q0 -76 -64.5 -128t-154.5 -52t-154.5 52t-64.5 128t64.5 129t154.5 53t154.5 -53t64.5 -129v0zM461 727q0 -76 -64.5 -129t-154.5 -53t-154.5 53t-64.5 129t64.5 129t154.5 53t154.5 -53t64.5 -129v0z" />
<glyph unicode=";" horiz-adv-x="485" d="M457 145q4 -8 5 -16t1 -18q0 -31 -14.5 -70t-40.5 -76q-31 -49 -73 -96t-85 -80q-20 -14 -40 -25.5t-38 -19.5q-10 -14 -30.5 -21.5t-43.5 -7.5q-8 0 -15 1t-15 3q-16 4 -27.5 14.5t-15.5 22.5q0 2 -1 5t-1 8q0 6 2 11t4 9q10 2 21 6l22 8q45 16 81.5 48t36.5 69 q0 14 -6 27.5t-22 27.5q-6 4 -12.5 9.5t-12.5 11.5q-4 4 -8 6t-10 6q-35 31 -65.5 62.5t-30.5 74.5q0 63 69.5 108.5t157.5 45.5q86 0 146.5 -45t60.5 -109v0zM461 727q0 -76 -64.5 -129t-154.5 -53t-154.5 53t-64.5 129t64.5 129t154.5 53t154.5 -53t64.5 -129v0z" />
<glyph unicode="&#x3c;" d="M553 418l-147 -144l-334 334l334 334l147 -143l-170 -191l170 -190v0z" />
<glyph unicode="=" horiz-adv-x="819" d="M819 526h-829v156h829v-156v0zM819 834h-829v155h829v-155v0z" />
<glyph unicode="&#x3e;" d="M543 608l-334 -334l-148 144l170 190l-170 191l148 143l334 -334v0z" />
<glyph unicode="?" horiz-adv-x="1130" d="M674 80q0 -78 -66.5 -132t-163.5 -54q-94 0 -161.5 54t-67.5 132t67.5 134t161.5 56q96 0 163 -56t67 -134v0zM1079 1079q0 -133 -99 -219t-224 -164q-8 -4 -15.5 -8t-13.5 -8q-45 -29 -90 -57.5t-84 -59.5q-14 -12 -19.5 -32.5t-5.5 -43.5v-9v-9v-11v-9q0 -29 -9 -49.5 t-46 -20.5q-76 0 -106.5 28.5t-30.5 73.5q0 27 9 56.5t22 60.5q10 20 20 42t23 42q23 39 42 70.5t27 48.5q29 63 49.5 134t28.5 142q2 18 3 35.5t1 36.5q0 39 -5 77t-15 74q-12 39 -45 55.5t-70 16.5q-41 0 -74 -17.5t-30 -41.5v-7t2 -8q4 -8 11 -17t15 -19 q12 -14 21.5 -29.5t9.5 -34.5q0 -63 -50 -95t-110 -32q-63 2 -116.5 35t-53.5 92q0 2 1 4t1 4v2v4q16 139 141 205t283 66q23 0 44.5 -1t43.5 -5q193 -20 353.5 -124t160.5 -274v0z" />
<glyph unicode="@" horiz-adv-x="1050" d="M922 791q0 -176 -71 -259t-157 -100q-12 -2 -23.5 -3t-23.5 -1h-8h-8q-92 6 -168 88t-76 275q0 133 35 206.5t76 108.5q29 23 54.5 31t39.5 8h12h6h1h3h5.5h5.5q-20 115 -52 169t-79 54h-8.5t-8.5 -2q-55 -10 -100 -128t-45 -447q0 -311 41 -431t90 -141q6 -4 14 -5 t17 -1q33 0 59.5 26.5t40.5 79.5l256 -57q-39 -111 -97.5 -168t-119.5 -80q-37 -14 -73 -18t-66 -4q-29 0 -61 3t-62 11q-117 35 -213.5 197t-96.5 588t96.5 587.5t213.5 196.5q31 10 62.5 13t60.5 3q33 0 67.5 -5t69.5 -19q109 -43 200 -208t91 -568v0zM686 786 q0 82 -10 119t-29 37q-18 0 -28.5 -37t-10.5 -119t10.5 -118.5t28.5 -36.5t28.5 37t10.5 118v0z" />
<glyph unicode="A" horiz-adv-x="1398" d="M1516 -6q0 -20 -26 -37.5t-56 -19.5h-3h-4l-602 -3q0 2 -13 7.5t-30 11.5q-18 8 -31.5 19.5t-13.5 23.5q0 23 25.5 40t62.5 17h49l-43 183h-364l-47 -183h49q35 0 61.5 -16.5t26.5 -40.5q0 -23 -26.5 -41t-61.5 -18l-309 -3q-6 2 -17.5 5.5t-23.5 9.5q-18 8 -32.5 20.5 t-14.5 26.5q0 25 26.5 41t61.5 16h51l324 1278h-76q-37 0 -62.5 17.5t-25.5 42.5t25.5 41t62.5 16h555q37 0 62.5 -16.5t25.5 -40.5l307 -1338h18q37 0 63 -17.5t26 -39.5v-2zM805 344l-119 518q-2 12 -11 18.5t-20 6.5h-3t-3 -2q-8 -2 -15 -8.5t-9 -14.5l-131 -518h311v0z " />
<glyph unicode="B" horiz-adv-x="1648" d="M1151 821q211 -43 315.5 -167t108.5 -263v-4v-4q-2 -168 -144.5 -307t-416.5 -139l-852 -3q-41 2 -62.5 18.5t-23.5 37.5v3v3q0 20 23.5 39.5t68.5 19.5l16 15v1257q-45 0 -70.5 18.5t-29.5 40.5q-2 2 -2 5.5v5.5q0 20 19.5 35.5t58.5 15.5h905q225 0 342 -99.5 t117 -220.5q0 -104 -92.5 -193t-280.5 -114v0zM944 131v535q0 39 -36 57t-79 18t-77.5 -19.5t-34.5 -55.5q0 -8 6 -14.5t14 -12.5l1 -1l1 -1q10 -6 17.5 -13.5t7.5 -17.5v-411q0 -8 -7 -16.5t-16 -14.5q-2 0 -3 -1l-1 -1q-8 -6 -14 -12.5t-6 -14.5q0 -39 34.5 -56.5 t75.5 -17.5h3h4q41 2 75.5 20.5t34.5 49.5v0zM944 942v307q0 39 -36 57.5t-79 18.5t-77.5 -19.5t-34.5 -56.5q0 -8 6 -14t14 -12h2l2 -2q8 -6 15.5 -12.5t7.5 -16.5v-186q0 -8 -6 -14.5t-15 -12.5l-1 -1l-1 -1q-10 -6 -17 -13.5t-7 -17.5q0 -39 34.5 -56.5t75.5 -17.5h3h4 q41 2 75.5 20.5t34.5 49.5v0z" />
<glyph unicode="C" horiz-adv-x="1253" d="M1192 1153q2 -4 3 -9t1 -11q-2 -20 -20.5 -39t-49.5 -25q-8 -2 -16 -3t-16 -1q-61 0 -90 42t-52 93q0 4 -1 6t-3 4q-23 55 -56.5 101.5t-109.5 46.5q-51 0 -84.5 -21.5t-33.5 -56.5v-1180q0 -41 35.5 -59t78.5 -21h3h3q45 0 82 18.5t37 51.5v8v8v31t2 33q4 43 30 78 t93 35q53 0 92 -41t39 -101q0 -84 -100.5 -147.5t-218.5 -87.5q-29 -4 -55.5 -7t-53.5 -3q-279 0 -476.5 233t-197.5 561q0 326 190.5 563.5t461.5 237.5h6h6h5h5q53 -2 78 -4t39 -2h5h5q12 2 30.5 6t61.5 14q4 0 7.5 1t7.5 1q2 2 6 2h6q55 0 95 -57t65 -127 q20 -53 33.5 -102t21.5 -70v0z" />
<glyph unicode="D" horiz-adv-x="1599" d="M1526 688q0 -309 -206 -531.5t-493 -222.5l-663 -2q-39 2 -63.5 20.5t-24.5 45.5q0 18 19.5 35.5t51.5 21.5l19 11v1245l-19 16q-33 4 -54 20.5t-21 41.5t25.5 41t62.5 16h667q287 0 493 -222.5t206 -535.5v0zM903 131v1116q0 33 -32.5 54.5t-79.5 21.5q-45 0 -80 -21.5 t-35 -54.5q0 -8 7 -15t17 -13q8 -6 15.5 -13.5t7.5 -15.5v-995q0 -8 -7 -16.5t-16 -14.5q-10 -6 -17 -13.5t-7 -17.5q0 -29 34.5 -51.5t80.5 -22.5q23 0 44 6.5t35 18.5q14 8 23.5 20.5t9.5 26.5v0z" />
<glyph unicode="E" horiz-adv-x="1277" d="M1217 164l-39 -170q-2 -4 -3 -11.5t-4 -13.5q-8 -23 -26.5 -41t-52.5 -18q-18 0 -35 2t-31 6q-4 2 -8 3t-8 1q-20 4 -42 8t-53 4l-770 -2q0 2 -13 7.5t-30 13.5q-18 8 -31.5 19.5t-13.5 23.5q0 23 26 40t62 17l31 10v1252l-31 12q-2 0 -15 4t-28 12q-16 8 -30.5 19.5 t-14.5 26.5q0 25 26 41t62 16h680q10 0 22.5 1t24.5 3q6 2 13.5 3t13.5 3q12 2 22.5 4t14.5 4q2 0 5 1t5 1h5h5q8 0 16.5 -1t18.5 -3q25 -8 48.5 -24.5t33.5 -38.5l92 -178q4 -6 6.5 -12.5t-0.5 -12.5q0 -16 -13 -31.5t-36 -21.5q-4 -2 -9 -3t-9 -1q-6 -2 -11.5 -2h-9.5 q-27 0 -49 9t-30 23l-99 158h-147l-19 -16v-467h158q-2 4 -2 7v5q0 4 1 7t1 7q4 12 15.5 23.5t23.5 17.5q8 4 15 5.5t16 1.5h8t8 -3q16 -2 30.5 -7t24.5 -13q8 -4 12.5 -7t6.5 -7l135 -215q2 -2 3 -5.5t1 -5.5q2 -2 2 -5v-5q0 -16 -13.5 -31.5t-39.5 -23.5q-4 -2 -9.5 -3 t-9.5 -1q-6 -2 -11 -2h-9q-27 0 -48.5 10t-31.5 24l-47 70q-12 25 -42 31t-89 6h-109v-672h154q35 0 55.5 12.5t30.5 28.5q2 2 3 4t3 4l70 111q10 16 32.5 24.5t49.5 8.5h19t18 -4q25 -8 35 -24.5t10 -35.5v-9t-2 -9v0z" />
<glyph unicode="F" horiz-adv-x="1232" d="M1171 666q4 -4 5.5 -10.5t1.5 -12.5v-4t-2 -4q-2 -14 -15.5 -26.5t-36.5 -18.5q-8 -2 -17 -4t-20 -2q-27 0 -49 10t-32 24l-45 68q-12 16 -31 24.5t-39 10.5q-14 2 -26.5 3t-22.5 1h-125v-672h28q37 0 63 -17.5t26 -39.5q0 -27 -26 -44.5t-63 -17.5l-591 -2 q-39 2 -69 10.5t-30 55.5q0 20 24.5 37.5t63.5 17.5h11v1274h-11q-4 0 -16 4t-27 12q-16 8 -30.5 20.5t-14.5 25.5q0 25 24.5 42t63.5 17h662q8 0 21.5 1t25.5 3q6 2 13 3t12 3q14 2 23 4t13 4q2 0 5.5 1t5.5 1h5h5q8 0 15 -1t16 -3q27 -8 52 -25.5t36 -39.5l92 -178 q4 -6 5 -12.5t1 -12.5v-4t-2 -4q-2 -14 -15.5 -26.5t-33.5 -18.5q-4 -2 -9.5 -3t-9.5 -1h-11h-9q-27 0 -49.5 9t-30.5 23l-98 156h-166v-481h157v3v3q-2 2 -2 3v3q0 20 15.5 32.5t36.5 20.5q6 4 12 5.5t12 3.5h6h7q25 0 46 -11.5t29 -27.5l135 -215v0z" />
<glyph unicode="G" horiz-adv-x="1593" d="M1434 842q41 0 62.5 -16.5t23.5 -37.5v-3v-3q0 -23 -23.5 -41t-73.5 -18v-643q4 -8 11.5 -20.5t13.5 -26.5q4 -8 9 -17.5t9 -15.5q4 -12 7.5 -24.5t3.5 -22.5q0 -16 -10.5 -29.5t-39.5 -21.5q-8 -4 -17 -4h-19q-35 0 -58.5 15t-44.5 34q-2 0 -3 2t-3 2q-20 16 -41.5 29.5 t-50.5 13.5q-14 0 -29.5 -3t-34.5 -11q-94 -51 -182 -74t-168 -23q-242 2 -408.5 167t-240.5 366q-29 72 -42 142.5t-13 133.5v23.5t2 21.5q16 283 227 518.5t500 235.5q57 0 90 -2t53 -6q14 -2 23.5 -4t19.5 -2q4 -2 9 -2h12q20 0 51 5t90 19q6 2 12 2h10q29 0 53.5 -13 t30.5 -34l111 -334q2 -2 2 -6v-8q0 -20 -18.5 -35.5t-49.5 -19.5q-6 -2 -12 -2h-12q-57 0 -101.5 43t-87.5 98q-6 8 -11 16t-11 15q-49 66 -104.5 120t-133.5 54q-8 0 -18 -1t-21 -3q-33 -6 -57 -31t-39 -53q-8 -16 -12 -31.5t-4 -28.5v-1151q0 -33 36 -49t81 -16h3h3 q45 2 82 20.5t37 54.5v5.5t-3 5.5q-2 10 -10 19t-16 20q-10 10 -19.5 19t-9.5 15v537q-35 6 -51 22.5t-16 34.5q2 23 24.5 40.5t63.5 17.5h553v0z" />
<glyph unicode="H" horiz-adv-x="1673" d="M1597 -2q0 -25 -26.5 -42t-61.5 -17l-553 -2q-39 2 -63.5 19t-24.5 44q0 20 25 38.5t63 18.5l11 13v692h-267v-694l19 -13q35 0 61.5 -18.5t26.5 -38.5q0 -27 -26.5 -44t-61.5 -17l-553 -3q-39 2 -63.5 19.5t-24.5 44.5q0 20 24.5 38.5t63.5 18.5l14 13v1249l-16 12 q-37 0 -62.5 16.5t-25.5 43.5q0 25 25.5 42t62.5 17h553q37 0 62.5 -17.5t25.5 -41.5q0 -27 -25.5 -43.5t-62.5 -16.5l-17 -12v-453h267v455l-17 10q-33 0 -59.5 16.5t-26.5 43.5t27 43t59 16h553q39 0 63.5 -16.5t24.5 -42.5q0 -27 -24.5 -43.5t-63.5 -16.5l-14 -10v-1249 l20 -13q35 0 61.5 -18.5t26.5 -38.5v-2z" />
<glyph unicode="I" horiz-adv-x="802" d="M768 -2q0 -25 -26.5 -43t-61.5 -18l-553 -3q-39 2 -63.5 20.5t-24.5 45.5q0 20 24.5 38.5t63.5 18.5l18 11v1249l-20 12q-37 0 -62.5 17.5t-25.5 44.5q0 25 25.5 41t62.5 16h551q37 0 62.5 -16.5t25.5 -40.5q0 -27 -25.5 -44.5t-62.5 -17.5l-21 -12v-1249l25 -11 q35 0 61.5 -18.5t26.5 -38.5v-2z" />
<glyph unicode="J" horiz-adv-x="774" d="M741 1391q0 -27 -25.5 -44.5t-62.5 -17.5l-20 -12v-1061q0 -143 -27.5 -260t-116.5 -174q-20 -12 -43.5 -27.5t-52.5 -30.5q-49 -27 -105.5 -52t-115.5 -40q-27 -6 -52.5 -9t-49.5 -3q-82 0 -118 24.5t-36 59.5q0 4 1 8t1 6q8 39 49 71t96 32q25 0 50.5 -9.5t52.5 -27.5 q59 33 81.5 58.5t20.5 47.5q0 14 -8 27.5t-20 26.5q-10 10 -21.5 20t-23.5 21q-27 25 -50.5 52t-23.5 64v1176l-21 12q-37 0 -62.5 17.5t-25.5 44.5q0 25 25.5 41t62.5 16h553q37 0 62.5 -16.5t25.5 -40.5v0z" />
<glyph unicode="K" horiz-adv-x="1673" d="M1597 -4q0 -25 -26.5 -43.5t-61.5 -18.5l-553 -2q-39 2 -63.5 20.5t-24.5 45.5q0 20 25 37.5t63 17.5l21 15q4 41 6 79.5t2 73.5q0 72 -7 135.5t-22 120.5q-12 53 -28.5 103.5t-34.5 99.5q-12 31 -26.5 60.5t-30.5 60.5q-18 35 -55.5 46t-84.5 13v-794l23 -13 q35 0 61.5 -17.5t26.5 -37.5q0 -27 -26.5 -45.5t-61.5 -18.5l-553 -2q-39 2 -63.5 20.5t-24.5 45.5q0 20 24.5 37.5t63.5 17.5l18 13v1249l-20 12q-37 0 -62.5 17.5t-25.5 44.5q0 25 25.5 41t62.5 16h553q43 0 64.5 -19.5t21.5 -42.5q0 -20 -21.5 -38.5t-64.5 -18.5l-21 -12 v-193q0 -16 -3 -25.5t-7 -17.5q0 -2 -1 -3t-1 -3q-4 -6 -6 -12t-2 -17q0 -29 26.5 -43t59.5 -14q4 0 8 1t8 1t8.5 1t8.5 1q129 27 169 96.5t62 149.5q2 2 2 4v4q18 61 44 117.5t93 95.5q41 23 82 34t78 11q84 -2 144.5 -42t74.5 -89q0 -6 1 -12t1 -12q0 -39 -46 -69 t-148 -30h-9.5h-9.5q-8 0 -20.5 3t-24.5 8h-4t-4 2q-12 2 -23.5 4t-19.5 2q-33 0 -46 -17.5t-13 -46.5q0 -33 14 -75t33 -85q8 -18 17 -35.5t18 -35.5q29 -55 54 -98.5t27 -51.5q6 -20 13.5 -42.5t13.5 -43.5q45 -143 83 -303t38 -366l20 -15q35 0 61.5 -17.5t26.5 -37.5v-2 z" />
<glyph unicode="L" horiz-adv-x="1275" d="M1214 168l-36 -170q-2 -4 -4.5 -11t-4.5 -14q-8 -23 -25.5 -41t-51.5 -18q-18 0 -35 2t-33 6q-4 0 -7 1t-7 1q-20 6 -43 9.5t-52 3.5l-770 -3q0 2 -13 7.5t-30 13.5q-18 8 -31.5 20.5t-13.5 24.5q0 20 24.5 38.5t63.5 18.5l31 11v1251l-31 10q-4 0 -16 4t-27 13 q-16 8 -30.5 20t-14.5 27q0 23 24.5 40t63.5 17l633 -2q37 0 62.5 -16.5t25.5 -40.5q0 -27 -25.5 -44.5t-62.5 -17.5l-33 -12v-1260h144q27 0 46 9.5t32 19.5q6 4 10 9t6 9l72 111q8 16 31.5 24.5t50.5 8.5h19t18 -4q18 -6 28 -17.5t15 -23.5q0 -4 1 -7t1 -8q0 -6 -1 -11 t-4 -9v0z" />
<glyph unicode="M" horiz-adv-x="1615" d="M1597 -2q0 -25 -26.5 -43t-61.5 -18l-606 -3q-39 2 -63.5 20.5t-24.5 45.5q0 20 24.5 37.5t63.5 17.5l17 13v858l-265 -244q-10 -10 -23.5 -15t-29.5 -5t-34.5 6t-37.5 20l-172 131v-749l25 -15q35 0 61.5 -17.5t26.5 -37.5q0 -27 -26.5 -45t-61.5 -18l-262 -3 q-39 2 -63.5 20.5t-24.5 45.5q0 20 24.5 37.5t63.5 17.5l14 15v1249l-20 10q-35 0 -61.5 17.5t-26.5 44.5q0 25 26.5 41t61.5 16h137q29 0 56.5 -17.5t49.5 -39.5l455 -363l393 338q39 31 60.5 48.5t40.5 25.5q14 4 27.5 6t33.5 2h139q37 0 61.5 -16.5t24.5 -40.5 q0 -27 -24.5 -44.5t-61.5 -17.5l-20 -12v-1249l22 -13q35 0 61.5 -17.5t26.5 -37.5v-2z" />
<glyph unicode="N" horiz-adv-x="1284" d="M1233 1360q8 -20 10 -48t2 -59q0 -47 -5 -101t-13 -110q-2 -16 -4 -31.5t-4 -29.5q-12 -72 -20.5 -135.5t-8.5 -106.5v-669l20 -13q43 0 64.5 -19.5t21.5 -39.5q0 -23 -21.5 -42t-64.5 -19q-51 0 -83.5 5t-63.5 23q-10 8 -20.5 16.5t-20.5 18.5l-602 598q-4 4 -9 6t-10 2 q-4 0 -7 -2t-3 -6v-530l23 -11q35 0 61.5 -18.5t26.5 -38.5q0 -27 -26.5 -45t-61.5 -18l-262 -3q-39 2 -64 20.5t-25 45.5q0 20 25 38.5t64 18.5l18 11v1249l-20 12q-45 0 -67 19.5t-22 42.5q2 23 23.5 40t65.5 17h27t28 2h23.5h23.5q47 0 85 -10t73 -49l403 -437 q8 -8 13 -18t10 -18q6 -18 8 -36t2 -28q0 -37 18.5 -54.5t44.5 -15.5q6 0 11.5 1t11.5 3q23 6 43 24.5t29 45.5q6 23 8 42.5t2 37.5q0 55 -22.5 97t-55.5 81q-14 16 -29.5 33.5t-32.5 36.5q-20 25 -40.5 51.5t-36.5 56.5q-8 16 -13.5 32.5t-5.5 31.5q0 66 70 103.5t153 37.5 h4.5h4.5q72 -2 135 -35.5t88 -103.5v0z" />
<glyph unicode="O" horiz-adv-x="1443" d="M1456 694q0 -328 -202.5 -561t-489.5 -233q-289 0 -491.5 233.5t-202.5 560.5q0 332 202.5 565.5t491.5 233.5q287 0 489.5 -233.5t202.5 -565.5v0zM901 113q0 10 -7 17t-15 13q-10 6 -17.5 14.5t-7.5 16.5v1096q0 39 -36 57.5t-81 18.5h-3h-3q-39 -2 -72.5 -20.5 t-33.5 -55.5q0 -4 2 -9.5t6 -9.5q2 -4 7 -9l9 -9q10 -8 17 -15l8 -6v-1101q0 -33 34.5 -50.5t75.5 -19.5h3h4q43 0 76.5 17.5t33.5 54.5v0z" />
<glyph unicode="P" horiz-adv-x="1449" d="M1477 942q0 -207 -164 -356.5t-393 -149.5h-230v-366l23 -13q35 0 61.5 -18.5t26.5 -38.5q0 -27 -26.5 -45t-61.5 -18l-553 -3q-39 2 -62.5 20.5t-23.5 45.5q0 20 23.5 38.5t62.5 18.5l18 13v1247l-20 12q-37 0 -62.5 17.5t-25.5 44.5q0 25 25.5 43t62.5 18h764 q229 0 392 -149.5t163 -360.5v0zM881 637v600q0 39 -36 57.5t-79 18.5t-78 -19.5t-35 -56.5q0 -8 6.5 -14t14.5 -13h2l2 -2q8 -6 15 -12t7 -16v-478q0 -8 -7 -16t-15 -14q-10 -6 -17.5 -13.5t-7.5 -17.5q0 -39 35 -56.5t76 -17.5h3h3q41 2 76 20.5t35 49.5v0z" />
<glyph unicode="Q" horiz-adv-x="1527" d="M1458 696q0 -328 -202.5 -562t-489.5 -234q-23 0 -45.5 2t-44.5 6q-2 -4 -5 -7l-5 -5t-3 -4.5t-1 -4.5q-8 -8 -15.5 -16t-17.5 -14q16 2 31.5 3t31.5 1h11.5h11.5q57 -4 113.5 -17.5t105.5 -29.5q6 -4 13 -6.5t14 -4.5q4 -2 8 -3t6 -3q43 -12 76.5 -24.5t56.5 -12.5 q10 0 18.5 4.5t10.5 12.5q-2 4 -4.5 7t-4.5 7t-2 7v7q0 27 36 48.5t81 21.5q53 0 81 -24.5t28 -55.5q0 -16 -9.5 -32.5t-27.5 -28.5q-61 -37 -170 -43t-227 -6h-6.5h-6.5h-11h-11h-29.5h-32.5h-3h-3q-113 0 -216 -4.5t-171 -32.5q-14 -6 -29.5 -9.5t-29.5 -3.5 q-41 0 -71 18.5t-30 43.5q0 10 7.5 20.5t21.5 20.5q72 49 128 99t107 110q-205 82 -333.5 286.5t-128.5 462.5q0 330 202.5 564.5t493.5 234.5q287 0 489.5 -234.5t202.5 -564.5v0zM901 115q0 10 -7 16t-15 14q-10 6 -17.5 13.5t-7.5 15.5v1096q0 33 -33 55.5t-80 22.5 t-80.5 -22.5t-33.5 -55.5q0 -4 3 -10.5t7 -12.5l7 -7l7 -7l15 -15l8 -6v-1099q0 -16 10 -28.5t27 -21.5q16 -10 34.5 -17t40.5 -7q47 0 81 22.5t34 53.5v0z" />
<glyph unicode="R" horiz-adv-x="1601" d="M1530 -2q0 -16 -16.5 -30.5t-36.5 -22.5q-10 -4 -18.5 -6t-16.5 -2h-198.5h-196.5q-80 0 -111 60t-37 134q-2 23 -3 45.5t-1 42.5v24.5t2 22.5v19.5v17.5q0 86 -54.5 110.5t-150.5 22.5v-366l23 -13q35 0 61.5 -18.5t26.5 -38.5q0 -27 -26.5 -45t-61.5 -18l-551 -3 q-39 2 -63.5 20.5t-24.5 45.5q0 20 24.5 38.5t63.5 18.5l16 13v1247l-16 8t-19 6q-2 2 -6 3t-8 1q-23 8 -40 17.5t-17 38.5q0 25 24.5 42t61.5 17h762q252 0 396 -153.5t157 -338.5q2 -10 2 -19v-19q0 -150 -95.5 -277t-300.5 -164v-14l88 -19q12 -2 25.5 -6t28.5 -10 q70 -25 129 -71t69 -95q2 -4 2 -8v-8t-1 -14.5t-1 -24.5q0 -12 -1 -25.5t-1 -27.5v-4v-5q0 -33 4 -59.5t19 -30.5q4 -2 7 -3t7 -1q29 -10 51.5 -22.5t22.5 -30.5v-2zM883 637v598q0 39 -36 57.5t-79 18.5t-78 -19.5t-35 -56.5q0 -8 6.5 -14.5t14.5 -12.5l1 -1l1 -1 q10 -6 17 -13t7 -17v-474q0 -8 -7 -16t-15 -14q-10 -6 -17.5 -13.5t-7.5 -17.5q0 -39 35 -56.5t76 -17.5h3h3q41 2 76 20.5t35 49.5v0z" />
<glyph unicode="S" horiz-adv-x="1062" d="M1047 307q-35 -190 -195 -303t-367 -110h-27.5t-27.5 2q-8 0 -17.5 1t-19.5 3q-102 10 -196.5 40.5t-137.5 106.5q-4 6 -6 23.5t-2 38.5q0 16 1 30.5t3 22.5q10 35 62.5 57.5t111.5 22.5h9.5h9.5q78 -4 121 -45t63 -88q6 -14 10 -28.5t9 -27.5q6 -27 21 -38t36 -11 q8 0 17.5 2t17.5 4q35 14 64.5 49t29.5 76q-2 12 -5 23.5t-7 21.5q-27 66 -94.5 129.5t-145.5 124.5q-29 25 -59.5 48.5t-57.5 45.5q-90 74 -144 196t-61 251v13v13q0 188 124 340t411 152q33 0 71 -5t76 -15q100 -27 184.5 -80.5t84.5 -116.5q0 -49 -53.5 -80t-116.5 -33 h-5h-5q-43 0 -80 14.5t-58 47.5q-6 10 -10 21t-6 22q0 4 -1 7t-3 7q-2 14 -6 27.5t-13 23.5q-14 16 -37.5 24.5t-50.5 8.5h-3h-3q-57 -2 -97 -38t5 -81l8 -8t10 -8q78 -76 154 -144.5t143 -134.5q117 -119 194 -242.5t77 -285.5q0 -27 -2 -56.5t-8 -60.5v0z" />
<glyph unicode="T" horiz-adv-x="1282" d="M1223 1249q0 -2 1 -4t1 -4v-4v-4q0 -18 -17.5 -32.5t-52.5 -18.5q-2 -2 -7 -2h-9t-10.5 1t-10.5 1q-10 4 -21.5 8t-19.5 10q-14 6 -22 12l-8 7l-33 110h-103l-16 -18v-1241l23 -13q35 0 61.5 -18.5t26.5 -38.5q0 -27 -27 -44t-61 -17l-553 -2q-39 2 -64 19t-25 44 q0 20 25 38.5t64 18.5l18 13v1237l-18 22h-93l-36 -110q-6 -18 -29 -29.5t-51 -9.5h-7.5h-7.5t-7 1t-7 1q-37 6 -55.5 24.5t-10.5 42.5l66 205q6 20 30.5 31.5t51.5 11.5h7t7 -2q2 0 6 -1t7 -1q18 -2 32.5 -8t26.5 -12q2 0 3 -1.5t3 -1.5q14 -8 31.5 -14t42.5 -6h553 q23 0 37 6t26 14l1 2q1 1 3 1q10 6 22.5 12t29.5 8q6 2 13 3t15 1h4h2q25 -4 46.5 -14t27.5 -29l68 -205v0z" />
<glyph unicode="U" horiz-adv-x="1355" d="M1372 1391q0 -27 -25.5 -44.5t-62.5 -17.5l-20 -12v-1133q0 -119 -160 -202.5t-383 -83.5q-225 0 -386 84t-161 202v1133l-20 12q-37 0 -62.5 17.5t-25.5 44.5q0 25 25.5 42t62.5 17h553q35 0 60.5 -17.5t25.5 -41.5q0 -27 -26 -44.5t-60 -17.5l-23 -12v-1075 q0 -49 55.5 -84t130.5 -35q76 0 132.5 35t56.5 82v1077l-21 12q-37 0 -62.5 17.5t-25.5 44.5q0 25 25.5 42t62.5 17h246q37 0 62.5 -17.5t25.5 -41.5v0z" />
<glyph unicode="V" horiz-adv-x="1400" d="M1327 1360q6 -14 9 -27.5t3 -27.5q0 -6 -1 -12.5t-1 -12.5q-4 -23 -11 -46.5t-15 -43.5q-6 -16 -12.5 -30.5t-10.5 -24.5l-471 -1198h-262l-383 1382l-20 12q-37 0 -63 17.5t-26 44.5q0 25 26 41t63 16h553q37 0 62.5 -16.5t25.5 -40.5q0 -27 -26 -44.5t-62 -17.5 l-21 -12l113 -520q4 -12 5 -21.5t-1 -19.5q0 -31 -12.5 -46.5t-30.5 -25.5q-4 -4 -9.5 -7t-9.5 -5q-10 -8 -21 -18.5t-20 -26.5q-20 -39 15 -61.5t80 -22.5h4h4q31 2 57.5 14t34.5 37l139 428q4 8 4 15.5v15.5q0 31 -18.5 61.5t-40.5 57.5q-16 23 -30.5 41t-22.5 34 q-10 23 -14.5 43.5t-4.5 38.5q0 76 63.5 118t141.5 40h9h11q59 -4 113.5 -36t83.5 -93v0z" />
<glyph unicode="W" horiz-adv-x="2125" d="M2083 1360q6 -14 9 -28.5t3 -31.5v-7v-7q-4 -27 -12 -54.5t-19 -49.5q-6 -14 -11 -26.5l-9 -22.5l-471 -1196h-262l-189 679l-268 -679h-264l-381 1380l-21 14q-39 0 -63.5 16.5t-24.5 43.5t25 43t63 16h551q31 0 48.5 -14.5t23.5 -32.5q2 -2 2 -5v-7t-1 -8.5t-3 -10.5 q-6 -14 -24.5 -27.5t-45.5 -13.5l-20 -14l119 -414q12 -18 16 -32.5t4 -24.5q0 -18 -9 -29.5t-24 -21.5q-4 -4 -9 -7.5t-9 -7.5q-10 -6 -19.5 -15t-17.5 -22q-2 -2 -3 -5t-1 -5v-5v-5q0 -20 17.5 -38.5t50.5 -22.5q6 -2 12 -2.5t10 -0.5q63 0 96 45.5t49 98.5 q12 35 18.5 66.5t12.5 52.5q0 2 1 3t1 3l-106 389l-21 12q-27 0 -44 13.5t-23 27.5q-2 6 -3 11t-1 10q0 25 17 42t54 17h553q37 0 62.5 -17.5t25.5 -41.5q0 -27 -25.5 -44.5t-62.5 -17.5l-20 -12l137 -416q4 -12 6 -21.5t2 -19.5q0 -23 -14.5 -36t-32.5 -25q-2 -2 -5 -3 t-7 -3q-12 -8 -25.5 -18.5t-21.5 -26.5q-2 -2 -3 -5.5t-1 -5.5q-2 -2 -2 -5v-5v-3v-3q4 -20 22 -37.5t47 -21.5h4h6q2 -2 5.5 -2.5t5.5 -0.5q68 2 108.5 60.5t65.5 130.5q18 53 30.5 100t20.5 72q4 8 5 16.5t1 16.5q0 31 -18.5 61.5t-40.5 57.5q-16 20 -31.5 39.5 t-24.5 35.5q-8 23 -13 42.5t-5 37.5q0 76 63.5 118t143.5 42h5h5q61 -2 118.5 -33t86.5 -96v0z" />
<glyph unicode="X" horiz-adv-x="1499" d="M1460 -2q0 -25 -26.5 -42t-61.5 -17l-350 -2q-76 2 -113 34.5t-65 85.5q-2 2 -3 5.5t-3 7.5l-297 557q-12 -10 -24.5 -22.5t-24.5 -26.5q-41 -41 -76 -88.5t-49 -96.5q-4 -10 -6.5 -22.5t-2.5 -24.5q2 -16 6.5 -32.5t12.5 -32.5q20 -35 47 -68t55 -66q20 -25 41 -48 t39 -48q18 -27 27.5 -48t9.5 -42q0 -61 -64.5 -97t-148.5 -36q-14 0 -27.5 1t-27.5 3q-76 12 -143.5 58.5t-96.5 129.5q-8 31 -13 61t-5 56q0 147 100 277.5t219 253.5q14 14 28.5 29.5t28.5 29.5l13.5 13.5t13.5 15.5l-295 561l-20 12q-37 0 -62.5 17.5t-25.5 44.5 q0 25 25.5 42t62.5 17h403q35 0 50.5 -5t25.5 -24q10 -14 21.5 -39.5t31.5 -64.5l250 -475q25 25 49.5 46t44.5 42q31 31 50.5 64.5t19.5 74.5q0 10 -1 21.5t-5 21.5q-8 35 -20.5 52.5t-28.5 31.5q-14 12 -32 27.5t-38 44.5q-14 23 -22.5 43t-8.5 39q2 61 64.5 98t140.5 37 h4h4q70 -2 130.5 -38t84.5 -110q2 -6 4 -13t2 -15q2 -8 2 -15.5v-13.5q0 -47 -19 -97t-52 -102q-33 -51 -74 -102t-84 -98q-41 -45 -80 -86t-69 -76l342 -649l24 -13q35 0 61.5 -18.5t26.5 -38.5v-2z" />
<glyph unicode="Y" horiz-adv-x="1347" d="M1280 1350q4 -10 5 -21.5t1 -23.5q0 -33 -13 -69t-34 -71q-12 -23 -26.5 -44t-28.5 -44q-23 -33 -44.5 -64.5t-35.5 -60.5l-84 -166v-716l22 -13q35 0 61.5 -18.5t26.5 -38.5q0 -27 -26.5 -44t-61.5 -17l-553 -2q-39 2 -63.5 19t-24.5 44q0 20 25 38.5t63 18.5l19 13v589 l-338 658l-20 12q-37 0 -63 17.5t-26 44.5q0 25 26 42t63 17h552q35 0 60.5 -17.5t25.5 -41.5q0 -27 -25.5 -44.5t-60.5 -17.5l-22 -12l231 -449l93 168q4 10 6 20.5t2 22.5v7.5v5.5q-2 10 -4 19t-7 15q-16 29 -28 44.5t-23 29.5q-2 0 -3 2t-3 4q-12 12 -26.5 29.5 t-34.5 46.5q-14 18 -21.5 37.5t-7.5 40.5q0 43 35 78t110 49q20 4 39 5t35 1q78 0 131 -36t76 -107v0z" />
<glyph unicode="Z" horiz-adv-x="1304" d="M1190 61l-8 -8l-8 -8q-31 -25 -83.5 -46.5t-109.5 -37.5q-39 -10 -75 -16t-66 -6l-674 -2q-57 2 -77.5 19t-18.5 40v7t2 7q2 10 5 20.5t7 18.5q2 6 4 11.5t4 9.5l520 1243l-10 18h-67q-53 0 -82 -18.5t-45 -40.5q-6 -10 -12.5 -19.5t-10.5 -17.5l-3 -3l-3 -3 q-27 -29 -63.5 -50.5t-75.5 -33.5q-16 -4 -33 -6t-31 -2t-28.5 3t-26.5 7q-31 12 -46.5 35.5t-15.5 52.5q0 16 5.5 33.5t15.5 36.5q6 8 12 17t14 17t20.5 18.5t29.5 20.5q45 27 116.5 49.5t163.5 22.5h621q41 0 65.5 -17.5t22.5 -52.5q0 -14 -3 -29.5t-12 -31.5l-518 -1241 l11 -19h120q53 0 76 23.5t37 52.5q2 2 3 4t1 4q6 12 11.5 22.5t13.5 18.5q31 35 71.5 58.5t83.5 36.5q18 4 37 7t37 3q16 0 33.5 -3t32.5 -10q33 -14 49 -38.5t16 -55.5q0 -29 -13 -59.5t-42 -61.5v0z" />
<glyph unicode="[" horiz-adv-x="675" d="M604 -338h-512v1919h512v-256h-205v-1407h205v-256v0z" />
<glyph unicode="\" d="M756 -338h-160l-676 2007h160l676 -2007v0z" />
<glyph unicode="]" horiz-adv-x="675" d="M604 -338h-512v256h205v1407h-205v256h512v-1919v0z" />
<glyph unicode="^" horiz-adv-x="749" d="M709 1247l-144 -147l-190 170l-191 -170l-143 147l334 334l334 -334v0z" />
<glyph unicode="_" horiz-adv-x="1638" d="M1669 -211h-1700v156h1700v-156v0z" />
<glyph unicode="`" horiz-adv-x="790" d="M741 1266q-8 -20 -26.5 -32.5t-44.5 -23.5q-2 0 -7.5 -1t-9.5 -3q-8 -2 -17 -3t-20 -1h-5h-5q-6 2 -11 3t-9 3q-41 20 -82 39t-82 39q-82 39 -163 78t-165 78q-8 4 -12 10t-4 14t4 15.5t10 15.5q25 41 68 71.5t102 55.5q8 4 16.5 5t16.5 3h8h8q10 0 20.5 -1t14.5 -5 q96 -76 194.5 -152.5t196.5 -152.5q4 -2 6 -9t2 -18v-4v-4q0 -6 -1 -11t-3 -9v0z" />
<glyph unicode="a" horiz-adv-x="1380" d="M1317 -2q0 -25 -26.5 -43t-61.5 -18q-18 0 -41 -1.5t-51 -1.5q-27 0 -56.5 -1t-60.5 -1h-8h-8q-82 0 -155 11.5t-101 44.5q-70 -49 -137.5 -70.5t-131.5 -21.5q-160 2 -274.5 110.5t-136.5 241.5q-2 14 -3.5 27.5t-1.5 27.5q0 164 71 288t298 187q33 10 64.5 17.5 t60.5 15.5q102 31 162.5 70t60.5 131v17t-2 18q-4 37 -33.5 55t-64.5 24q-10 2 -20.5 3t-18.5 1h-5h-7q-78 -6 -101.5 -46t-38.5 -87q-14 -53 -42.5 -97t-133.5 -44h-12h-14q-41 4 -73 36t-32 79v4t2 6v4v4q16 115 143.5 173.5t288.5 58.5q20 0 40 -1t40 -3 q190 -16 350 -118t160 -288v-743l23 -13q35 0 61.5 -17.5t26.5 -37.5v-2zM780 180q0 10 -7 17.5t-15 15.5q-10 8 -17.5 16.5t-7.5 16.5v323q0 10 7.5 17.5t17.5 15.5l1 1l3 3q8 6 13 12.5t5 14.5q0 41 -35.5 60.5t-78.5 19.5t-78 -19.5t-35 -60.5v-457q0 -37 36 -55.5 t79 -18.5t77.5 19.5t34.5 58.5v0z" />
<glyph unicode="b" horiz-adv-x="1527" d="M1458 571q0 -260 -155.5 -447t-376.5 -187h-16.5t-16.5 2q-39 2 -78 13t-74 28q-10 -18 -32.5 -30.5t-51.5 -12.5l-497 -3q-39 2 -63.5 20.5t-24.5 45.5q0 20 24.5 38.5t63.5 18.5l18 13v1292l-20 12q-37 0 -62.5 17.5t-25.5 44.5q0 25 25.5 41t62.5 16h352 q59 0 85 -22.5t34 -49.5q4 -16 5 -30.5t1 -24.5v-3v-1v-262q61 51 135 77.5t156 26.5q221 0 376.5 -186.5t155.5 -446.5v0zM872 209v713v5t-2 5q-4 29 -36.5 52.5t-75.5 23.5t-75 -23.5t-36 -52.5q-2 -2 -2 -5v-5q0 -8 6 -14.5t15 -12.5l1 -1l1 -1q10 -6 17 -13.5t7 -17.5 v-590q0 -8 -7 -16t-15 -14q-2 0 -3 -1l-1 -1q-8 -6 -14.5 -12.5t-6.5 -14.5v-5t2 -5q4 -29 36 -52.5t75 -23.5q25 0 45 6t37 19q8 6 16 16t12 22q2 6 3 10.5t1 8.5v0z" />
<glyph unicode="c" horiz-adv-x="1153" d="M1100 137q0 -31 -16.5 -57.5t-36.5 -42.5q-76 -63 -173.5 -102t-203.5 -39q-256 0 -436.5 157.5t-180.5 495.5q0 336 180.5 494.5t436.5 158.5q31 0 64.5 -3t68.5 -11q55 -10 107.5 -27.5t86.5 -42.5q37 -25 65 -62.5t28 -84.5q0 -70 -49.5 -120t-120.5 -50 q-74 0 -125.5 50t-51.5 120q0 35 16.5 66.5t41.5 54.5q-14 10 -35 18t-41 10h-7h-7q-45 0 -79 -22.5t-34 -53.5v-989q0 -14 9 -25.5t22 -19.5q16 -12 37.5 -17t44.5 -5q47 0 80.5 21.5t33.5 49.5q0 4 -1 8.5t-3 8.5q0 2 -1 5t-1 5l-3 6t-1 6q-4 8 -5 17.5t-1 21.5 q0 49 44 86t101 37q59 0 102.5 -37t43.5 -86v0z" />
<glyph unicode="d" horiz-adv-x="1480" d="M1462 -4q0 -25 -24.5 -43.5t-63.5 -18.5l-497 -2q-27 2 -50.5 14.5t-33.5 30.5q-35 -16 -74 -27t-78 -13q-8 -2 -16.5 -2.5t-16.5 -0.5q-221 0 -376.5 187.5t-155.5 447.5t155.5 446.5t376.5 186.5q80 0 155 -26.5t136 -77.5v262l-18 12q-39 0 -63.5 18.5t-24.5 43.5 t24.5 41t63.5 16h372q63 0 83 -17.5t20 -58.5v-1349l18 -13q39 0 63.5 -17.5t24.5 -37.5v-2zM889 199q0 10 -7.5 17t-15.5 13q-10 6 -17 14.5t-7 16.5v610q0 10 7 17.5t17 13.5l1 1l1 1q8 6 14.5 12.5t6.5 14.5q0 31 -34 53.5t-81 22.5q-45 0 -78.5 -22.5t-33.5 -53.5v-733 q0 -14 10 -26.5t22 -20.5q16 -12 37 -18.5t43 -6.5q47 0 81 22.5t34 51.5v0z" />
<glyph unicode="e" horiz-adv-x="1210" d="M1155 805q0 -4 -1 -8t-3 -11q-4 -8 -12.5 -15t-24.5 -7h-514v-709q0 -14 9 -25.5t22 -19.5q16 -12 37.5 -17t44.5 -5q47 0 80.5 21.5t33.5 47.5q0 6 -1 13.5t-5 15.5l-4 8t-2 8q-2 8 -3 16.5t-1 16.5q0 51 44 87t101 36q59 0 103.5 -36t44.5 -87q0 -27 -15.5 -52.5 t-33.5 -43.5q-2 0 -3 -1l-3 -3q-76 -63 -173.5 -101t-203.5 -38q-254 0 -435.5 157.5t-181.5 493.5q0 317 159 475t394 176q10 4 16.5 5t8.5 1q299 0 410.5 -117.5t111.5 -281.5v0zM852 838v123q0 66 -37 110.5t-92 44.5q-53 0 -91 -45t-38 -110v-123h258v0z" />
<glyph unicode="f" horiz-adv-x="800" d="M764 1118q0 -29 -17.5 -39t-41.5 -16q-4 0 -8.5 -1t-8.5 -3q-8 -2 -16 -5t-17 -7v-979l25 -13q43 0 64.5 -19.5t21.5 -39.5v-3v-3q-2 -20 -23.5 -36.5t-62.5 -16.5l-553 -3q-43 2 -65.5 21.5t-20.5 42.5q0 20 21.5 38.5t64.5 18.5l18 13v1003q-4 2 -7 4t-7 4 q-8 2 -15 6.5t-16 6.5q-25 10 -44 22t-19 29q0 37 36 47t79 12h10h12q0 127 58.5 211t281.5 84q94 0 136 -31.5t42 -70.5v-3v-3q-4 -37 -43 -68t-106 -29q-31 0 -65 8.5t-72 24.5q-16 -10 -26.5 -24.5t-14.5 -30.5v-4v-4q-2 -4 -2.5 -6.5t-0.5 -4.5q0 -51 51.5 -63 t114.5 -10h23.5t23.5 2h23.5h24.5q59 -2 100 -11.5t41 -50.5v0z" />
<glyph unicode="g" horiz-adv-x="1341" d="M1264 78q29 -20 42 -50t13 -65q0 -25 -7 -51.5t-24 -52.5q-23 -45 -67.5 -87t-110.5 -79q-51 -29 -108.5 -47.5t-114.5 -28.5q-43 -8 -84 -12t-80 -4q-76 0 -137.5 14t-96.5 43q-20 20 -38.5 43t-18.5 49v3t2 3v3v3q-12 -4 -27.5 -6t-29.5 -4h-13.5h-15.5h-8h-8 q-100 4 -184.5 52.5t-84.5 119.5q0 59 63.5 103.5t139.5 78.5q33 16 64.5 30l58.5 26q12 6 18.5 11t6.5 11q2 8 -6.5 16.5t-22.5 14.5q-162 78 -235.5 197.5t-71.5 246.5q0 207 171 380t453 171q43 0 88.5 -5t92.5 -15q39 4 69.5 15.5t46.5 25.5q6 6 10.5 11t6.5 9q0 2 1 4 t1 5v2v4q0 23 -25.5 34t-58.5 21q-6 2 -12.5 4t-12.5 4q-41 10 -74.5 29.5t-33.5 58.5q0 47 61.5 79t149.5 32q70 0 122 -36t68 -79l4 -16t2 -17q0 -74 -45 -136t-141 -101q166 -76 245 -203t79 -264q0 -199 -162 -365t-465 -170q-57 -2 -94 -14t-70 -37l-3 -3l-3 -3 q-37 -33 -21.5 -53.5t56.5 -20.5q14 0 30.5 3t34.5 10q27 8 58.5 19t68.5 24q39 12 82 24t86 21q37 8 75 13t75 5q49 0 93 -11.5t77 -39.5v0zM764 -319q100 2 149.5 26.5t47.5 52.5q0 29 -50.5 53.5t-146.5 24.5t-147.5 -23.5t-55.5 -50.5v-3v-3q2 -29 52.5 -52t150.5 -23 v-2zM852 352q0 10 -7 16.5t-16 12.5q0 2 -1 2h-1q-8 6 -14 12t-6 15v604q0 35 -35 53t-76 18t-74.5 -18t-33.5 -53q0 -4 3 -10.5t7 -12.5q2 -4 5 -7l7 -7q8 -8 16 -15l7 -6v-606q0 -31 33.5 -49t74.5 -20h5.5h5.5q39 0 69.5 17t30.5 54v0z" />
<glyph unicode="h" horiz-adv-x="1536" d="M1466 -8q0 -25 -24.5 -41.5t-63.5 -16.5l-391 -2q-59 2 -88 23.5t-41 44.5q-8 20 -9 37.5t-1 25.5v814q0 29 -28.5 48t-69.5 19q-47 0 -78 -19.5t-31 -47.5q0 -8 8 -14.5t17 -12.5q10 -6 17 -13.5t7 -15.5v-755l23 -13q35 0 61.5 -17.5t26.5 -37.5q0 -27 -26.5 -45.5 t-61.5 -18.5l-553 -2q-39 2 -63.5 20.5t-24.5 45.5q0 20 24.5 37.5t63.5 17.5l18 13v1273l-20 13q-37 0 -62.5 17t-25.5 42t25.5 42t62.5 17h395q78 0 104.5 -25.5t30.5 -55.5q2 -10 2 -20.5v-20.5v-4.5v-4.5v-278q47 63 127 101t180 38q150 0 255.5 -82t105.5 -196v-859 l20 -12q39 0 63.5 -16.5t24.5 -40.5v-2z" />
<glyph unicode="i" horiz-adv-x="720" d="M711 -4q0 -25 -27 -42t-61 -17l-498 -3q-39 2 -63.5 19.5t-24.5 44.5q0 20 24.5 38.5t63.5 18.5l16 13v1003l-20 12q-37 0 -61.5 17.5t-24.5 44.5q0 25 24.5 42t61.5 17h352q66 0 91.5 -25.5t31.5 -56.5q2 -12 3 -21t1 -20v-1013l23 -13q35 0 61.5 -18.5t26.5 -38.5v-2z M571 1368q0 -41 -71.5 -71.5t-173.5 -30.5t-175 30.5t-73 71.5q0 43 72.5 72.5t175.5 29.5q102 0 173.5 -29.5t71.5 -72.5v0z" />
<glyph unicode="j" horiz-adv-x="698" d="M657 -2q0 -168 -112.5 -291t-280.5 -123h-3h-3q-102 2 -164.5 32t-62.5 71t32.5 57t71.5 27h3t1 2q39 10 70 24.5t31 50.5q0 8 -7.5 17.5t-15.5 17.5q-8 10 -15 21.5t-7 23.5v1133l-15 12q-39 0 -62.5 16.5t-23.5 43.5t23.5 43t62.5 16h350q59 0 86 -24.5t35 -55.5 q4 -10 5 -20.5t1 -20.5v-1073v0zM623 1354q0 -41 -72 -71t-174 -30q-100 0 -173 30t-73 71q0 43 72.5 73.5t173.5 30.5q102 0 174 -30.5t72 -73.5v0z" />
<glyph unicode="k" horiz-adv-x="1503" d="M1491 -6q0 -20 -24.5 -38.5t-63.5 -18.5l-359 -3q-63 2 -105 34t-40 91v3v4v13v23q0 43 -4 119t-18 158q-18 119 -61.5 217t-125.5 98v-626l25 -13q35 0 60.5 -17.5t25.5 -37.5q0 -27 -25.5 -45t-60.5 -18l-553 -3q-39 2 -63.5 20.5t-24.5 45.5q0 20 24.5 37.5t63.5 17.5 l18 13v1273l-20 13q-37 0 -62.5 16t-25.5 43q0 25 25.5 42.5t62.5 17.5h389q70 0 105.5 -31t35.5 -101v-499h96q76 0 114 50t69 114q4 6 6 12t6 10q33 72 81 130.5t150 58.5t156.5 -42t56.5 -94v-3v-3q0 -49 -52 -90t-161 -41h-17t-17 2h-7.5h-7.5h-12h-12q-33 0 -43.5 -11 t34.5 -52q76 -68 141.5 -234t94.5 -352q8 -53 12 -106.5t4 -104.5v-11v-9l21 -11q39 0 63.5 -17.5t24.5 -41.5v-2z" />
<glyph unicode="l" horiz-adv-x="727" d="M729 -4q0 -25 -26.5 -42t-61.5 -17l-516 -3q-39 2 -63.5 19.5t-24.5 44.5q0 20 24.5 38.5t63.5 18.5l18 13v1271l-20 13q-37 0 -62.5 17t-25.5 44q0 25 25.5 42.5t62.5 17.5h395q59 0 79.5 -36t20.5 -98v-1271l23 -13q35 0 61.5 -18.5t26.5 -38.5v-2z" />
<glyph unicode="m" horiz-adv-x="2060" d="M2009 -8q0 -23 -25.5 -39t-62.5 -16l-377 -3q-57 2 -76.5 36t-19.5 96v872q0 27 -31 44t-67 19h-3h-4q-35 0 -63.5 -18t-28.5 -63v-854l25 -13q37 0 61.5 -17.5t24.5 -41.5q0 -25 -24.5 -41t-61.5 -16l-377 -3q-57 2 -79.5 36t-22.5 96v874q0 27 -27 44t-57 20h-5h-6 q-31 0 -54 -16.5t-23 -51.5v-868l22 -13q35 0 61.5 -18.5t26.5 -38.5q0 -27 -26.5 -44t-61.5 -17l-516 -3q-39 2 -63.5 19.5t-24.5 44.5q0 20 24.5 38.5t63.5 18.5l19 13v1003l-21 10q-37 0 -62.5 17.5t-25.5 44.5q0 25 25.5 42t62.5 17h395q45 0 67.5 -23.5t26.5 -64.5 q53 53 132 78t163 25q98 0 187.5 -37t130.5 -109q51 68 136 103.5t177 37.5h12.5h12.5q129 0 232.5 -58t103.5 -171v-917l16 -13q37 0 62.5 -17.5t25.5 -41.5v-2z" />
<glyph unicode="n" horiz-adv-x="1454" d="M1389 -8q0 -23 -26 -39t-63 -16l-376 -3q-57 2 -79 36t-22 96v874q0 27 -25.5 43t-56.5 21h-7h-7q-31 0 -54.5 -16.5t-23.5 -51.5v-868l25 -13q35 0 60.5 -18.5t25.5 -38.5q0 -27 -25.5 -44t-60.5 -17l-518 -3q-39 2 -62.5 19.5t-23.5 44.5q0 20 23.5 38.5t62.5 18.5 l18 13v1003l-20 10q-37 0 -62.5 17.5t-25.5 44.5q0 25 25.5 42t62.5 17h395q45 0 67.5 -23.5t28.5 -64.5q49 49 110.5 74.5t125.5 32.5q12 2 22 2h21q135 0 243.5 -74t108.5 -191l4 -892l20 -13q37 0 63 -17.5t26 -41.5v-2z" />
<glyph unicode="o" horiz-adv-x="1386" d="M63 549q0 274 184.5 468.5t444.5 194.5t445.5 -194.5t185.5 -468.5q0 -272 -185.5 -465t-445.5 -193t-444.5 192.5t-184.5 465.5v0zM780 147v859q0 31 -32.5 52t-77.5 21t-77 -21.5t-32 -51.5q0 -4 3 -10.5t7 -12.5q2 -4 5.5 -7t7.5 -7q6 -8 13 -15l7 -6v-860 q0 -14 11.5 -27.5t25.5 -19.5q14 -10 33.5 -17.5t42.5 -7.5q45 0 76.5 21.5t31.5 52.5q0 10 -7 16.5t-15 12.5q0 2 -1 2h-1q-8 6 -14.5 12t-6.5 14v0z" />
<glyph unicode="p" horiz-adv-x="1427" d="M1358 557q0 -334 -119 -482.5t-326 -148.5q-14 0 -30.5 1t-30.5 3q-55 10 -108.5 33t-100.5 53v-229l23 -12q35 2 61.5 -15.5t26.5 -42.5q0 -27 -27 -44t-61 -17l-516 -2q-39 2 -64 19.5t-25 43.5q0 25 25 42.5t64 17.5l18 10v1274l-21 10q-37 0 -62.5 17.5t-25.5 44.5 q0 25 26 42t62 17h394q43 0 65.5 -21.5t30.5 -56.5q66 49 135.5 76t140.5 27q207 0 326 -162t119 -498v0zM872 186v746q0 31 -33.5 53.5t-80.5 22.5q-45 0 -79 -22.5t-34 -53.5q0 -8 6 -14.5t15 -12.5l1 -1l1 -1q10 -6 17 -13t7 -18v-622q0 -8 -7 -15.5t-15 -13.5l-17.5 -14 t-7.5 -17q0 -31 34 -53t79 -22q23 0 44 7t36 17q14 8 24 20.5t10 26.5v0z" />
<glyph unicode="q" horiz-adv-x="1359" d="M1364 1141q0 -27 -25.5 -44.5t-62.5 -17.5l-21 -10v-1274l19 -12q39 2 63.5 -15.5t24.5 -41.5q0 -27 -24.5 -44.5t-63.5 -17.5l-318 -2q-92 2 -126.5 24.5t-45.5 49.5q-2 10 -3 19t-1 18v14v10v228q-47 -31 -100 -53.5t-109 -32.5q-14 -2 -29.5 -3.5t-31.5 -1.5 q-205 0 -324.5 148.5t-119.5 482.5q0 309 158.5 471t346.5 185q16 2 31.5 3t32.5 1q92 0 145.5 -16.5t85.5 -34.5q14 -8 27.5 -15.5t24.5 -15.5q18 -8 37.5 -14.5t43.5 -6.5q16 0 35 3t41 10q18 6 30.5 13t22.5 15q4 4 8.5 7.5t8.5 5.5q12 10 26.5 17t34.5 7h70 q37 0 62.5 -17.5t25.5 -41.5v0zM778 199q0 10 -7 16t-15 14q-10 6 -17.5 13.5t-7.5 15.5v623q0 10 7 17t18 13l1 1l1 1q8 6 14 12.5t6 14.5q0 31 -33.5 53.5t-80.5 22.5q-45 0 -79 -22.5t-34 -53.5v-745q0 -14 9 -26.5t24 -21.5q16 -10 36.5 -17t43.5 -7q47 0 80.5 22.5 t33.5 53.5v0z" />
<glyph unicode="r" horiz-adv-x="1175" d="M1122 1022q0 -72 -63.5 -126t-153.5 -54q-55 0 -95 26.5t-75 61.5q-4 2 -7 6t-7 8q-4 2 -8 6l-8 8q-8 8 -16.5 11.5t-18.5 3.5q-20 0 -36 -15.5t-16 -33.5v-856l25 -11q35 0 60.5 -18.5t25.5 -38.5q0 -27 -25.5 -45t-60.5 -18l-500 -3q-39 2 -63.5 20.5t-24.5 45.5 q0 20 24.5 38.5t63.5 18.5l19 11v995l-21 12q-37 0 -62.5 17.5t-25.5 44.5q0 25 25.5 41t62.5 16h351h8t8 -2q39 -4 70.5 -27.5t35.5 -56.5q0 -4 1 -10t3 -13q2 -10 10.5 -18t24.5 -8q14 0 26.5 8t20.5 16q2 2 3.5 4.5t3.5 4.5q31 47 82 79.5t116 32.5q90 0 153.5 -53 t63.5 -129v0z" />
<glyph unicode="s" horiz-adv-x="952" d="M944 322q-4 -170 -150.5 -293t-355.5 -123q-68 0 -140.5 16.5t-145.5 50.5q-53 23 -76 49.5t-23 53.5q2 45 53.5 79.5t112.5 41.5q4 2 9 2h12q51 0 92 -29t49 -98q2 -37 31.5 -54.5t64.5 -17.5h3h3q39 0 73 24.5t34 71.5q0 25 -18.5 51.5t-47.5 53.5q-20 20 -44.5 38.5 t-49.5 36.5q-43 33 -83 59.5t-60 45.5q-100 88 -171 196.5t-71 223.5q0 164 145.5 297t350.5 133q66 0 135 -17.5t139 -54.5q45 -25 63.5 -48.5t18.5 -45.5q-2 -39 -48 -66.5t-101 -29.5h-7.5h-5.5q-45 0 -83 21.5t-48 70.5q-6 35 -29.5 50t-52.5 15q-4 0 -9 -1t-9 -1 q-39 -8 -70 -33.5t-31 -60.5q0 -14 8.5 -29.5t24.5 -31.5q8 -8 19.5 -15.5t25.5 -15.5q80 -53 147.5 -98t119.5 -86q98 -78 147 -168t49 -242v-5v-5v-6v-6v0z" />
<glyph unicode="t" horiz-adv-x="763" d="M729 -2q0 -25 -26.5 -43t-61.5 -18l-516 -3q-39 2 -63.5 20.5t-24.5 45.5q0 20 24.5 38.5t63.5 18.5l18 11v1003l-20 12q-6 4 -12.5 7.5t-12.5 5.5t-10 4t-10 4q-16 6 -29.5 15t-13.5 26q0 37 40 48t87 11h3h3h24.5h22.5q10 -2 21.5 -2h19.5q47 0 80 38t63 85q4 6 7.5 11 t7.5 12q33 55 72.5 100t101.5 45q12 0 25.5 -2t27.5 -6q23 -6 34 -23.5t11 -42.5t-12 -54.5t-37 -59.5q-12 -14 -25.5 -25.5t-27.5 -19.5q-10 -6 -18.5 -11.5t-16.5 -11.5l-4 -4t-6 -4q-2 -2 -4.5 -4t-4.5 -4q-4 -6 -3 -12.5t22 -6.5h90q37 0 62.5 -16.5t25.5 -40.5 q0 -16 -13.5 -25.5t-29.5 -15.5q-6 -2 -10 -4t-10 -4t-12.5 -5.5t-12.5 -7.5l-21 -12v-1003l23 -11q35 0 61.5 -18.5t26.5 -38.5v-2z" />
<glyph unicode="u" horiz-adv-x="1402" d="M1389 -6q0 -23 -26 -40t-63 -17l-395 -3q-45 2 -67.5 27t-28.5 64q-47 -47 -124 -75t-167 -28q-111 0 -202 40t-117 106q-6 16 -11.5 32.5t-7.5 34.5q-2 10 -3 22.5t-1 22.5v891l-22 12q-37 0 -62.5 17.5t-25.5 44.5q0 25 25.5 42t62.5 17h358q72 0 95.5 -35.5 t23.5 -97.5v-913q0 -4 2 -9.5t6 -11.5q10 -16 35.5 -30.5t54.5 -14.5q6 0 12.5 1t12.5 3q18 6 34.5 22.5t16.5 43.5v909l-25 10q-33 0 -59.5 18.5t-26.5 41.5q0 27 27 45t59 18h381q76 0 96.5 -29.5t22.5 -64.5v-12v-13v-7v-7v-1003l20 -13q37 0 63 -17.5t26 -41.5v-2z" />
<glyph unicode="v" horiz-adv-x="1257" d="M1200 1094l-409 -1164h-195l-389 1149h-62q-6 0 -14 1t-14 3q-23 8 -41.5 23.5t-18.5 34.5q0 25 26 41t62 16h445q31 0 50 -17.5t28 -35.5q2 -4 3 -7t3 -8l147 -438q4 -12 15.5 -20t23.5 -8q10 2 18.5 8t12.5 20l61 182q4 10 5 18.5t1 16.5q0 27 -12 48.5t-26 35.5 q-8 6 -14.5 11.5t-12.5 9.5q-27 18 -48.5 44.5t-33.5 59.5q-6 16 -9 32.5t-3 31.5q0 53 35.5 94t93.5 53q10 2 19 3t18 1q72 -2 134 -43t89 -106q0 -4 2 -15.5t4 -25.5v-2v-2q2 -16 4 -31l2 -14v0z" />
<glyph unicode="w" horiz-adv-x="1966" d="M1942 1094l-412 -1164h-193l-223 654q-2 12 -10 18t-19 6q-8 0 -15 -6t-11 -18l-234 -652h-190l-393 1149h-62q-8 0 -16 2t-19 4q-20 8 -36.5 21.5t-16.5 30.5q0 27 26.5 43t61.5 16h445q31 0 51 -15.5t29 -33.5q4 -4 5 -8t3 -8l143 -439q4 -16 14.5 -26.5t22.5 -8.5h4h4 q8 4 16.5 12.5t12.5 22.5l76 203l-60 182h-61q-6 0 -15.5 2t-17.5 4q-20 8 -37.5 21.5t-17.5 32.5q0 27 25.5 43t62.5 16h444q31 0 51.5 -17.5t28.5 -35.5q2 -4 3 -7t3 -8l146 -438q6 -16 15 -25.5t19 -9.5q10 2 19.5 10.5t15.5 24.5l64 182q4 10 5 17.5t1 15.5 q0 27 -12.5 47.5t-26.5 34.5q-6 8 -13.5 14.5t-13.5 10.5q-27 18 -49 44.5t-35 59.5q-6 16 -9 32.5t-3 31.5q0 53 36 94t93 53q10 2 19.5 3t17.5 1q72 -2 134.5 -43t88.5 -106q2 -2 3 -11.5t3 -21.5q0 -2 1 -5t1 -7q2 -16 5 -31l2 -14v0z" />
<glyph unicode="x" horiz-adv-x="1220" d="M1208 -2q0 -25 -26.5 -43t-61.5 -18l-356 -3q-53 2 -75.5 25t-31.5 49q-4 8 -6 17.5t-4 17.5q0 8 -2 14t-4 11l-158 342q-8 16 -19 22t-28 6h-7h-5q-16 -4 -32.5 -10t-26.5 -14q-6 -4 -10.5 -7.5t-6.5 -7.5q-16 -25 -30.5 -53.5t-14.5 -62.5q2 -29 18.5 -64t55.5 -74 q16 -16 38.5 -35.5t47.5 -41.5q31 -33 45 -66t14 -61q0 -47 -29.5 -80t-76.5 -41q-14 -4 -28.5 -5t-31.5 -1q-18 0 -38.5 2t-41.5 6q-66 14 -125 53t-77 111q-8 37 -12.5 69.5t-4.5 59.5q0 18 2 33.5t4 27.5q16 59 42 121.5t67 126.5q14 18 27.5 37.5t27.5 38.5 q29 39 56.5 80t48.5 82q4 6 5 12t1 12q0 14 -4 29.5t-10 34.5q0 2 -1 5t-4 7l-139 309l-20 12q-37 0 -62.5 17.5t-25.5 44.5q0 25 25.5 41t62.5 16h350q53 0 76.5 -24.5t36.5 -55.5q2 -8 5 -16t5 -14q2 -2 3 -5.5t1 -5.5l94 -207l3 -3t1 -3l5 -5t3 -7q16 -18 35 -29.5 t39 -11.5h9t10 2q2 0 4 1t4 1q27 8 39 17.5t18 31.5q4 10 6 19.5t2 19.5q0 16 -5 32.5t-15 29.5q-33 18 -55.5 44.5t-32.5 59.5q-8 18 -11.5 35.5t-3.5 34.5q0 53 35 93t92 48q6 0 11.5 1t9.5 1q4 2 9 2h11q72 0 134.5 -41t89.5 -104q2 -6 4 -13.5t4 -13.5q0 -6 2 -12l4 -12 q-8 -70 -35 -139.5t-108 -135.5q-12 -10 -24.5 -22.5t-25.5 -22.5q-2 -2 -4 -3t-4 -3q-23 -20 -46 -42t-42 -42q-10 -10 -17 -19.5t-12 -17.5q-6 -10 -8 -19.5t-2 -19.5q0 -16 6.5 -35.5t18.5 -44.5l209 -458l22 -11q35 0 61.5 -18.5t26.5 -38.5v-2z" />
<glyph unicode="y" horiz-adv-x="1189" d="M1133 1176q2 -4 2 -10.5v-14.5v-10t-2 -11v-11t-3 -11q0 -4 -1 -9t-1 -9l-342 -1035q-6 -20 -14 -39.5t-18 -40.5q-47 -104 -143.5 -196t-260.5 -121q-6 0 -13 -1t-13 -3q-10 -2 -21.5 -3t-21.5 -1q-82 0 -141.5 38t-59.5 93q0 57 58.5 96t140.5 39q12 0 23 -2t24 -6 q8 -2 17 -4t17 -2q16 -2 29.5 -3t26.5 -1q45 0 66.5 12t19.5 39v13t-4 15l-336 1092l-21 12q-37 0 -62.5 17.5t-25.5 44.5q0 25 25.5 42t62.5 17h396q41 0 57 -22.5t29 -61.5q2 -10 6 -22.5t8 -26.5l88 -258q6 -23 18.5 -33t28.5 -14q6 -2 11 -3t12 -1h7h5q20 4 33.5 15 t23.5 24q4 4 8.5 9t6.5 9q12 16 18 39t6 47v11.5t-2 9.5q-2 37 -18.5 68.5t-42.5 51.5q-8 6 -21.5 17.5t-25.5 23.5q-16 16 -30.5 34t-23.5 36l-3 6t-1 4q-6 16 -9 30.5t-3 27.5q0 43 38 65.5t99 32.5q10 2 21.5 3t23.5 1q8 0 17.5 -1t19.5 -1q68 -8 126 -47t65 -100v0z" />
<glyph unicode="z" horiz-adv-x="1091" d="M1059 31q-31 -45 -91.5 -72t-144.5 -27l-653 -2q-57 2 -82 18.5t-33 35.5q-2 6 -3 11t-1 11q2 8 3 15.5t3 9.5l506 1016q10 23 -10.5 35t-46.5 12h-1h-3q-14 0 -26.5 -3.5t-20.5 -11.5t-18.5 -21.5t-20.5 -29.5q-4 -4 -7 -9t-8 -11q-20 -33 -58 -54.5t-77 -29.5 q-10 -2 -20 -3t-21 -1h-8h-8q-8 2 -16.5 4t-16.5 4q-39 10 -59.5 37.5t-20.5 60.5q0 12 3 24.5t10 24.5q2 6 6 12.5t8 12.5q35 47 92 73.5t145 26.5h465h129q47 0 78 -16.5t31 -50.5q0 -8 -2 -15.5t-6 -17.5l-443 -991q-2 -8 -4 -15.5t-2 -13.5q0 -25 20.5 -38t45.5 -13 q16 0 32.5 6t26.5 18q8 8 18.5 23.5t20.5 32.5q2 4 5 7t5 7q23 35 62 56.5t82 27.5q8 0 17 1t17 1q12 0 24.5 -1t23.5 -5q37 -10 58 -38t21 -63q0 -16 -6 -34.5t-20 -36.5v0z" />
<glyph unicode="{" d="M563 -352h-35q-14 2 -27.5 3t-27.5 3q-123 16 -225.5 114.5t-102.5 284.5v219q0 86 -19.5 150.5t-94.5 64.5v254q76 0 95 64.5t19 150.5v220q0 188 102.5 286.5t225.5 114.5q14 2 27.5 3t27.5 1h35l-61 -256q-55 0 -83 -32.5t-28 -90.5v-145q0 -51 3 -96.5t7 -83.5 q2 -41 5.5 -74t3.5 -60q0 -51 -15.5 -81.5t-58.5 -47.5q43 -14 58.5 -45.5t15.5 -83.5q0 -27 -3.5 -60.5t-5.5 -72.5q-4 -39 -7 -84t-3 -96v-145q0 -55 27.5 -88t83.5 -33l61 -258v0z" />
<glyph unicode="|" horiz-adv-x="491" d="M399 -350h-307v1931h307v-1931v0z" />
<glyph unicode="}" d="M584 487q-76 0 -95.5 -64.5t-19.5 -150.5v-219q0 -186 -102.5 -284.5t-225.5 -114.5q-14 -2 -27.5 -3t-27.5 -1l-35 -2l62 256q55 2 82.5 34.5t27.5 88.5v145v12v13q0 184 14.5 285.5t102.5 131.5q-88 31 -102.5 132.5t-14.5 285.5v12.5v12.5v145q0 57 -27.5 90t-82.5 33 l-62 256h35q14 0 27.5 -1t27.5 -3q123 -16 225.5 -114.5t102.5 -286.5v-220q0 -86 19.5 -150.5t95.5 -64.5v-254v0z" />
<glyph unicode="~" horiz-adv-x="1101" d="M1055 862q-74 -90 -152 -126t-168 -36q-59 0 -104 22.5t-84 49.5q-8 4 -15.5 8t-13.5 11q-33 20 -65.5 35.5t-73.5 15.5q-51 0 -101.5 -21.5t-97.5 -81.5l-112 160q70 86 147.5 120t165.5 34q61 0 105 -21.5t85 -46.5q6 -6 13.5 -10t15.5 -10q31 -20 63.5 -35t73.5 -15 q39 0 76 11.5t74 42.5q12 10 24.5 22.5t24.5 26.5l119 -156v0z" />
<glyph unicode="&#xa1;" horiz-adv-x="667" d="M641 -180q0 -82 -89 -141.5t-216 -59.5q-123 0 -212 59.5t-89 143.5l170 782q10 51 42 87t83 36q49 0 84 -34t49 -89l178 -784v0zM567 1006q0 -80 -67.5 -135.5t-163.5 -55.5q-94 0 -162 55.5t-68 135.5q0 78 68 133t162 55q96 0 163.5 -55.5t67.5 -132.5v0z" />
<glyph unicode="&#xa2;" horiz-adv-x="1165" d="M1112 190q0 -68 -84 -127t-186 -88q-33 -10 -65 -16t-60 -8v-178h-107v178q-279 27 -418 223.5t-139 427.5t140.5 429t418.5 222v174h109v-174q143 -8 262 -65.5t119 -163.5q0 -70 -49 -120t-121 -50q-90 0 -131 50t-41 112q0 37 14 71.5t39 57.5q-16 10 -35.5 17 t-38.5 9q-6 2 -11 2.5t-9 0.5q-43 0 -76 -19.5t-33 -56.5v-989q0 -33 35 -49.5t76 -16.5h3h3q41 2 76 19.5t35 52.5q0 4 -1 8t-1 8q-2 2 -2 4t-3 4q-6 14 -8 27.5t-2 23.5q0 55 46 87t102 34h3h3q53 0 95 -29.5t42 -91.5v0z" />
<glyph unicode="&#xa3;" horiz-adv-x="1622" d="M606 387q-27 41 -58.5 79t-66.5 73q-20 23 -40.5 44t-41.5 44q-27 29 -48 59.5t-38 61.5h-231v90h199q-12 35 -18.5 68.5t-6.5 66.5q0 207 188.5 357.5t427.5 148.5q16 0 33 -1t31 -3q96 -8 191.5 -48.5t177.5 -117.5q31 -27 44 -52.5t13 -48.5q0 -45 -45 -72.5 t-100 -31.5h-8.5h-8.5q-39 0 -72.5 15.5t-50.5 47.5q-4 6 -6 17.5t-4 23.5q0 4 -1 9.5t-1 9.5q-2 16 -6 30.5t-12 24.5q-31 41 -90.5 59.5t-125.5 18.5h-5h-7q-90 -2 -165.5 -40t-75.5 -106q0 -66 68.5 -125t150.5 -116q51 -35 99 -69t79 -66h414v-90h-381q16 -45 24 -82 t8 -68q0 -16 -2 -32.5t-6 -33.5q-12 -43 -38.5 -89t-65.5 -109q31 -16 64.5 -41t70.5 -53q57 -41 119.5 -76t126.5 -35q12 0 24.5 2t24.5 4q10 4 22.5 9.5t24.5 11.5q6 4 18.5 14t26.5 23q6 4 11 8t12 8q27 18 50 19t25 -48q2 -76 -56 -130t-136 -81q-57 -18 -117.5 -26.5 t-122.5 -8.5q-23 0 -45 1.5t-45 3.5q-98 8 -194.5 28.5t-180.5 42.5q-51 -33 -111.5 -51t-123.5 -22h-12.5h-12.5q-123 0 -220 57t-97 164q0 16 6 32.5t18 34.5q35 49 102.5 93t141.5 59q6 2 11 3t12 1q23 4 64.5 8t86.5 4h21.5t23.5 -2q12 0 23.5 -1t21.5 -3v0zM264 78 q0 -43 33 -63.5t76 -20.5h8h8q41 4 78 23.5t53 56.5q-6 4 -15 9t-20 11q-18 10 -39.5 18.5t-42.5 14.5q-18 6 -35.5 9t-33.5 3q-29 0 -49.5 -13t-20.5 -48v0z" />
<glyph unicode="&#xa4;" horiz-adv-x="1280" d="M721 1118v-413h231l-61 -78h-170v-56h231l-61 -77h-170v-414q18 -2 36.5 -3t37.5 -1q96 0 183 38t152 101l93 -90q-84 -82 -193.5 -129t-234.5 -47q-231 0 -405.5 156.5t-209.5 388.5h-123l64 77h51v7.5v7.5v7v7v12v15h-115l64 78h59q35 231 209 388.5t406 157.5 q125 0 234.5 -47t193.5 -131l-93 -90q-66 66 -152.5 102.5t-182.5 36.5q-18 0 -37 -1t-37 -3v0z" />
<glyph unicode="&#xa5;" horiz-adv-x="1347" d="M508 657l-33 64h-223v96h170l-252 498l-20 12q-37 0 -63 17.5t-26 44.5q0 25 26 42t63 17h552q35 0 60.5 -17.5t25.5 -41.5q0 -27 -25.5 -44.5t-60.5 -17.5l-22 -12l231 -449l93 168q4 6 5 11.5t3 9.5t2 9v11q0 10 -2 19.5t-6 19.5q-10 27 -29 51.5t-39 46.5 q-14 18 -29.5 36t-25.5 32q-14 23 -21.5 42t-7.5 36q0 59 63.5 97t141.5 38h8h8q66 -4 124 -39t81 -106q4 -8 5 -19.5t1 -21.5q0 -51 -28.5 -112.5t-67.5 -127.5q-10 -16 -21.5 -33.5t-21.5 -34.5q-33 -51 -62.5 -97t-50.5 -85h230v-96h-244v-86h244v-96h-244v-471l22 -13 q35 0 61.5 -18.5t26.5 -38.5q0 -27 -26.5 -44t-61.5 -17l-553 -3q-39 2 -63.5 19.5t-24.5 44.5q0 20 25 38.5t63 18.5l19 13v471h-258v96h258v22v0z" />
<glyph unicode="&#xa6;" horiz-adv-x="153" d="M98 -410h-94v1004h94v-1004v0zM98 737h-94v901h94v-901v0z" />
<glyph unicode="&#xa7;" horiz-adv-x="995" d="M944 647q0 -27 -5 -64.5t-15 -76.5q-12 -53 -33 -100.5t-47 -69.5q41 -37 65.5 -90t28.5 -109q2 -8 2 -15v-13q0 -127 -87 -234.5t-224 -107.5l-539 -3v158h518q78 2 127 26.5t49 76.5q0 96 -84 140t-196 77q-20 8 -42 14l-44 12q-137 43 -252 120t-115 255q0 27 5 64.5 t16 76.5q12 53 32.5 100.5t47.5 69.5q-39 31 -62.5 79t-30.5 102q-2 12 -3 23t-1 24q0 145 93.5 244.5t240.5 99.5h516v-158h-516q-78 0 -128 -25.5t-50 -78.5q0 -92 83 -136.5t193 -76.5q23 -6 45.5 -13.5t45.5 -13.5q137 -43 251.5 -121t114.5 -256v0zM786 580q0 8 -1 17 t-3 17q-8 41 -35.5 77t-66.5 48l-389 131q-41 -27 -61.5 -68.5t-20.5 -90.5v-8.5v-6.5q4 -47 32.5 -87t73.5 -54l392 -135q41 25 60 67.5t19 92.5v0z" />
<glyph unicode="&#xa8;" horiz-adv-x="933" d="M438 1436q0 -57 -57 -94t-139 -37t-140.5 36.5t-58.5 94.5q0 53 58.5 92t140.5 39t139 -39t57 -92v0zM891 1436q0 -57 -56.5 -94t-138.5 -37q-84 0 -141 36.5t-57 94.5q0 53 57 92t141 39q82 0 138.5 -39t56.5 -92v0z" />
<glyph unicode="&#xa9;" horiz-adv-x="1650" d="M1577 745q0 -307 -222 -527t-530 -220q-309 0 -529 219t-220 528t220 530.5t529 221.5q307 0 529.5 -222t222.5 -530v0zM1436 745q0 250 -180.5 431.5t-430.5 181.5q-252 0 -431 -180.5t-179 -432.5q0 -254 179 -432t431 -178t431.5 180.5t179.5 429.5v0zM1192 580 q-29 -121 -126 -196t-224 -75q-197 0 -303.5 115t-106.5 307q0 197 103.5 312.5t304.5 115.5q119 0 210 -59.5t126 -173.5l-119 -31q-37 74 -89.5 114t-142.5 40q-135 0 -196.5 -94.5t-61.5 -219.5q0 -131 59.5 -220t202.5 -89q84 0 154 54.5t86 135.5l123 -36v0z" />
<glyph unicode="&#xaa;" horiz-adv-x="690" d="M676 821h-647v113h647v-113v0zM676 1018q0 -12 -13.5 -21.5t-31.5 -9.5h-20.5h-26.5q-14 -2 -29.5 -2h-32.5h-4h-4q-39 0 -75 5t-48 22q-35 -25 -68.5 -35t-64.5 -10q-80 0 -137.5 54t-69.5 122q0 6 -1 13t-1 15q0 84 36 144.5t148 93.5l32 8t30 8q51 14 82 35t31 66v4v6 q-2 2 -2 4v4q-2 18 -16.5 27.5t-31.5 11.5q-6 2 -11 2h-9h-3h-3q-39 -2 -50.5 -22.5t-19.5 -42.5v-1v-1q-8 -27 -23.5 -48.5t-66.5 -21.5h-5h-7q-20 2 -35.5 18.5t-15.5 42.5v3v4q10 57 72.5 85.5t144.5 28.5h20t21 -2q94 -8 174 -59t80 -144v-370l10 -6q18 0 31.5 -9.5 t13.5 -21.5v0zM408 1110q0 4 -4.5 8t-8.5 8t-8 8.5t-4 8.5v162q0 4 4 8l8 8t8.5 8t4.5 8q0 18 -15.5 27.5t-34.5 11.5h-3h-3q-23 2 -41 -8t-18 -31v-229q0 -18 18.5 -27.5t38.5 -9.5q23 0 40.5 9.5t17.5 29.5v0zM408 1110q0 -18 -15.5 -27.5t-34.5 -11.5h-3h-3 q-23 0 -41 9.5t-18 27.5v229q0 18 15.5 27.5t33.5 11.5h3h3q23 2 41.5 -8t18.5 -31q0 -4 -4.5 -8t-8.5 -8l-8 -8t-4 -8v-162q0 -4 4 -8.5t8 -8.5t8.5 -8t4.5 -8v0zM676 1018q0 -12 -13.5 -21.5t-31.5 -9.5h-20.5h-24.5q-14 -2 -28.5 -2h-31.5h-4h-4q-41 0 -78 5t-49 22 q-33 -23 -66.5 -34t-64.5 -11q-82 -2 -140.5 54t-68.5 126q-2 6 -2 12v12q0 84 36 144.5t148 93.5l32 8t30 8q51 14 81 34t32 65v4v6q-2 2 -2 5v5q-2 16 -16.5 26.5t-31.5 12.5q-6 2 -10 2h-8h-1h-3h-3h-1q-39 -2 -51.5 -22.5t-18.5 -42.5q-8 -27 -22.5 -49.5t-65.5 -22.5 h-7h-7q-20 2 -35.5 18.5t-15.5 40.5v1v3v3v2q10 57 72.5 85.5t142.5 28.5q10 0 21 -1t24 -1q94 -10 173 -59t79 -144v-370l10 -6q18 0 31.5 -9.5t13.5 -21.5v0z" />
<glyph unicode="&#xab;" horiz-adv-x="1085" d="M553 418l-147 -144l-334 334l334 334l147 -143l-170 -191l170 -190v0zM1028 418l-147 -144l-334 334l334 334l147 -143l-170 -191l170 -190v0z" />
<glyph unicode="&#xac;" horiz-adv-x="819" d="M793 483h-95v238h-678v94h768v-8h5v-324v0z" />
<glyph unicode="&#xad;" horiz-adv-x="1024" />
<glyph unicode="&#xae;" horiz-adv-x="712" d="M680 1174q0 -133 -95.5 -228.5t-228.5 -95.5t-228 94t-95 230q0 133 96 228t227 95t227.5 -97t96.5 -226v0zM633 1174q0 111 -82 193.5t-195 82.5t-194.5 -81t-81.5 -195q0 -117 81 -197t195 -80q115 0 196 82t81 195v0zM514 1001h-70l-75 150h-68v-150h-65v361h124 q12 0 24.5 -1t25.5 -3q39 -8 71.5 -30.5t32.5 -63.5q0 -39 -22.5 -64.5t-57.5 -36.5l80 -162v0zM434 1255q0 23 -18.5 37.5t-40.5 18.5q-6 2 -13.5 3t-13.5 1h-47v-115h70q27 0 45 14.5t18 40.5v0z" />
<glyph unicode="&#xaf;" horiz-adv-x="299" />
<glyph unicode="&#xb0;" horiz-adv-x="512" d="M479 1317q0 -90 -64.5 -154.5t-154.5 -64.5q-92 0 -156.5 64.5t-64.5 154.5t65.5 154.5t155.5 64.5q88 0 153.5 -64.5t65.5 -154.5v0zM395 1317q0 55 -40 96t-95 41q-57 0 -97 -40t-40 -97t40 -97t97 -40q55 0 95 40t40 97v0z" />
<glyph unicode="&#xb1;" horiz-adv-x="958" d="M911 137h-829v156h829v-156v0zM911 690h-338v-336h-155v336h-336v156h336v338h155v-338h338v-156v0z" />
<glyph unicode="&#xb2;" horiz-adv-x="731" d="M702 1065l-61 -123q-16 -35 -39.5 -47t-50.5 -12q-16 0 -33.5 3t-36.5 7q-4 2 -9 3t-9 1q-51 12 -96 17.5t-86 5.5q-51 0 -93.5 -9.5t-72.5 -25.5q-2 -2 -7.5 -3t-9.5 -1t-10 1t-12 3q-14 4 -27.5 15t-13.5 26v7t2 5q25 59 74 107.5t102 93.5q4 2 6 4t6 4 q70 59 127.5 122.5t57.5 153.5q0 66 -20.5 114t-55.5 48q-29 0 -44.5 -5t-27.5 -15t-16 -22.5t-4 -24.5v-8.5t2 -8.5v-8v-8q0 -6 -1 -11.5t-5 -9.5q-18 -23 -41 -33t-45 -10q-39 0 -70 24.5t-29 57.5q0 6 1 11.5t3 9.5q0 4 3 9t6 11q23 37 80 58.5t122 31.5q27 2 51.5 4 t47.5 2q25 0 63.5 -6t81.5 -20q66 -23 121 -73t55 -142q0 -59 -44 -107.5t-103 -81.5q-23 -10 -48.5 -20t-52.5 -21q-49 -18 -92 -33.5t-63 -25.5q-35 -20 -35 -38.5t29 -18.5q10 0 19 2t21 4q6 0 17.5 4t23.5 8h1t1 2q12 4 23.5 8t17.5 4h4.5h4.5h4h4q23 0 40 -5t34 -11 q2 -2 4 -3t4 -1q14 -6 27.5 -10t29.5 -4q10 0 20.5 3t22.5 5q8 2 13.5 6t9.5 10q6 6 13 11.5t24 5.5q20 0 32.5 -8.5t7.5 -18.5v0z" />
<glyph unicode="&#xb3;" horiz-adv-x="716" d="M702 1130q0 -98 -106.5 -165.5t-233.5 -81.5q-16 -2 -31.5 -3t-31.5 -1q-72 0 -135.5 22.5t-102.5 67.5q-12 16 -18 29.5t-4 25.5q0 29 25.5 46t56.5 17h3h3q31 0 54.5 -15t23.5 -50v-6v-6q0 -4 1 -7.5t3 -7.5q14 -27 37.5 -40t50.5 -13q66 0 94.5 53.5t26.5 116.5 q0 51 -16.5 97t-45.5 67q-12 8 -25.5 14t-27.5 10q-4 0 -9 1.5t-9 1.5h-3h-1h-3.5h-3.5q-4 0 -7 -1.5l-7 -3.5q-12 -2 -24.5 -5t-24.5 -3q-6 -2 -12 -2h-13q-20 0 -35.5 8.5t-15.5 30.5q0 23 27.5 29t62.5 6h24.5h24.5q10 -2 21.5 -2h21.5h19.5t17.5 2q35 12 54.5 43 t19.5 76q0 55 -26.5 81.5t-57.5 30.5q-4 2 -9 2h-9q-29 -2 -51.5 -14t-20.5 -29v-3v-3q2 -4 2 -8v-8q0 -27 -24.5 -40t-55.5 -13h-5h-5q-31 2 -55.5 17t-24.5 40q0 12 4 21.5t14 19.5q6 8 17.5 16t23.5 19q31 23 79 34t106 11q14 0 28.5 -1t28.5 -1q104 -10 191.5 -53.5 t87.5 -110.5q0 -63 -42 -92t-112 -47q84 -29 137 -88.5t53 -131.5v0z" />
<glyph unicode="&#xb4;" horiz-adv-x="790" d="M707 1497q4 -4 6 -8l4 -8t3 -8.5t1 -8.5q0 -6 -3 -12t-13 -10l-164 -78l-164 -78q-41 -20 -82 -38.5t-82 -39.5q-8 -4 -15.5 -5t-17.5 -1h-4h-4q-6 0 -13 2t-14 2q-6 2 -10 3t-6 1q-27 10 -45 22.5t-27 33.5q-2 4 -3 13t-1 17t2 15.5t6 9.5q98 76 196.5 152.5 t195.5 152.5q4 4 14 5t22 1h12.5t12.5 -2q6 0 11 -2t12 -4q59 -25 102 -55.5t68 -71.5v0z" />
<glyph unicode="&#xb5;" horiz-adv-x="1466" d="M1448 1202l-170 -899v-1v-3v-3v-1v-5t2 -7v-5.5v-7.5q0 -33 29.5 -59.5t146.5 -50.5l-135 -307q-106 29 -197.5 57.5t-130.5 62.5q-16 -8 -39.5 -18t-50.5 -21q-29 -10 -59.5 -20t-61.5 -18q-43 -12 -83 -19.5t-74 -7.5q-18 0 -38 2t-38 6t-37.5 9t-38.5 14l-100 -465 h-461l364 1767h445q-12 -68 -29.5 -152.5t-34.5 -177.5q-2 -12 -5 -26.5t-5 -26.5q-33 -174 -58.5 -326.5t-25.5 -199.5q0 -41 20.5 -69.5t61.5 -28.5q14 0 28.5 3t31.5 7q41 16 76.5 47t43.5 70l168 880h455v0z" />
<glyph unicode="&#xb6;" horiz-adv-x="1021" d="M639 -297h-154v819q-178 33 -295.5 175.5t-117.5 322.5q0 201 125 333t313 171q6 2 12 2h13h11h11q6 -2 13.5 -2h15.5q12 0 25.5 1t27.5 3v-1825v0zM977 1370h-92v-1667h-152v1823h244v-156v0z" />
<glyph unicode="&#xb7;" horiz-adv-x="299" />
<glyph unicode="&#xb8;" horiz-adv-x="950" d="M918 -213q0 -82 -144.5 -134t-351.5 -52q-121 0 -224.5 20.5t-170.5 54.5l118 97q29 -8 71 -15.5t87 -11.5q23 -2 44.5 -3t41.5 -1q72 0 121 10t51 31v3v1q0 35 -79 55.5t-173 24.5h-23.5h-21.5l4 201h201v-95q188 -4 318.5 -51t130.5 -133v-2z" />
<glyph unicode="&#xb9;" horiz-adv-x="544" d="M504 903q0 -14 -13.5 -23.5t-29.5 -9.5h-277q-20 0 -32.5 9.5t-12.5 23.5q0 12 12.5 21.5t32.5 9.5l9 6v508h-119q-18 0 -30.5 9t-12.5 22q0 6 7 12t15 10q6 2 12.5 4t8.5 2l299 127q8 4 15 5t15 1q20 0 33 -13t13 -34v-653l12 -6q16 0 29.5 -9.5t13.5 -21.5v0z" />
<glyph unicode="&#xba;" horiz-adv-x="690" d="M676 821h-647v113h647v-113v0zM662 1294q0 -135 -92.5 -232t-223.5 -97q-129 0 -221 97t-92 232q0 139 92 235.5t221 96.5q131 0 223.5 -96t92.5 -236v0zM414 1065q0 4 -3 8t-8 6q-2 2 -3 2t-1 2q-4 2 -6 5.5t-2 5.5v430q0 16 -16.5 26.5t-38.5 10.5q-23 0 -39 -10.5 t-16 -26.5q0 -2 1 -5t3 -6l4 -4l4 -4l7 -7l3 -3v-430q0 -8 5 -14.5t14 -10.5q6 -4 16 -8t20 -4q23 0 39.5 11.5t16.5 25.5v0z" />
<glyph unicode="&#xbb;" horiz-adv-x="1085" d="M543 608l-334 -334l-148 144l170 190l-170 191l148 143l334 -334v0zM1028 608l-334 -334l-147 144l170 190l-170 191l147 143l334 -334v0z" />
<glyph unicode="&#xbc;" horiz-adv-x="1628" d="M1638 301v-1v-1v-1v-1q0 -16 -16 -25.5t-37 -11.5h-3h-3h-63v-217l14 -8q25 0 42 -10.5t17 -24.5q0 -18 -17.5 -30.5t-41.5 -12.5l-371 -2q-25 2 -41 14.5t-16 30.5q0 14 16.5 24.5t40.5 10.5l12 8v217h-366h-3h-3q-20 2 -37 15.5t-17 29.5q0 4 2.5 9t6.5 10l589 608 q12 10 24.5 18t25.5 15q12 4 23 7t24 3h6h4q27 -2 46.5 -18.5t19.5 -55.5v-561h63q25 0 39 -10.5t18 -24.5l1 -1t1 -3v0zM1171 340v256l-253 -256h253v0zM1311 1638l-779 -1638h-94l779 1638h94v0zM674 631q0 -16 -17.5 -28.5t-42.5 -12.5h-370q-25 0 -41.5 12t-16.5 29 q0 16 16.5 28.5t41.5 12.5l12 8v682h-158q-25 0 -42 12t-17 29q0 10 10 17t21 12q8 4 16 6t12 4l400 170q10 4 19 6t18 2q29 0 47 -17.5t18 -46.5v-876l14 -8q25 0 42.5 -12.5t17.5 -28.5v0z" />
<glyph unicode="&#xbd;" horiz-adv-x="1855" d="M1837 190l-84 -163q-20 -43 -52 -58.5t-67 -15.5q-23 0 -48 4t-50 10q-6 0 -10 1t-10 3q-68 14 -129.5 21.5t-114.5 7.5q-70 -2 -126 -13.5t-97 -31.5q-4 -4 -9.5 -4h-13.5q-6 0 -13 1t-14 3q-23 4 -41 18.5t-18 34.5v4t2 4q0 2 1 4.5t1 4.5q33 80 99.5 144t138.5 124 l5 5t7 5q94 80 172 166t78 207q0 88 -26.5 149.5t-76.5 61.5q-39 0 -58 -7.5t-36 -19.5q-18 -14 -23 -30.5t-5 -32.5v-12.5t2 -12.5v-11v-9q0 -8 -1 -15.5t-6 -11.5q-23 -29 -52 -42t-60 -13q-51 2 -94 33.5t-43 76.5q0 14 5 28.5t13 29.5q31 49 109.5 78.5t167.5 41.5 q33 4 65.5 6.5t60.5 2.5q33 0 86.5 -7.5t110.5 -27.5q88 -31 162 -99.5t74 -189.5q0 -84 -60.5 -148.5t-138.5 -105.5q-29 -14 -63.5 -28.5t-71.5 -26.5q-63 -25 -121.5 -45.5t-87.5 -36.5q-47 -29 -46 -53.5t44 -24.5q10 0 22.5 3t26.5 5q8 2 23.5 7.5t29.5 11.5h2v0 q16 6 32.5 11t25.5 7h5h5h5h5q31 0 53.5 -7t42.5 -15q4 -2 7.5 -3t5.5 -4q18 -6 36.5 -12t40.5 -6q14 0 29 2t31 8q10 4 16 9.5t13 11.5l1 1l1 1q8 8 17 15t32 7q29 0 45 -10t10 -27v0zM1303 1638l-779 -1638h-94l778 1638h95v0zM666 631q0 -16 -17.5 -28.5t-42.5 -12.5 h-370q-25 0 -41.5 12t-16.5 29q0 16 16.5 28.5t41.5 12.5l12 8v682h-158q-25 0 -42 12t-17 29q0 10 10 17t20 12q8 4 16.5 6t12.5 4l399 170q10 4 19.5 6t17.5 2q29 0 47.5 -17.5t18.5 -46.5v-876l14 -8q25 0 42.5 -12.5t17.5 -28.5v0z" />
<glyph unicode="&#xbe;" horiz-adv-x="1763" d="M1759 301v-1v-1v-1v-1q0 -16 -16.5 -25.5t-36.5 -11.5h-3h-3h-64v-217l15 -8q25 0 42 -10.5t17 -24.5q0 -18 -17.5 -30.5t-41.5 -12.5l-371 -2q-25 2 -41 14.5t-16 30.5q0 14 16 24.5t41 10.5l12 8v217h-366h-3h-3q-20 2 -37 15.5t-17 29.5q0 4 2 9t6 10l590 608 q12 10 24.5 18t24.5 15q12 4 23.5 7t24.5 3h6h4q27 -2 46 -18.5t19 -55.5v-561h64q25 0 39 -10.5t18 -24.5l1 -1t1 -3v0zM1292 340v256l-254 -256h254v0zM1432 1638l-779 -1638h-94l778 1638h95v0zM932 934q0 -131 -142.5 -220t-314.5 -110q-20 -2 -40.5 -3t-41.5 -1 q-98 0 -182 28.5t-137 92.5q-16 20 -23.5 38.5t-7.5 35.5q2 41 39 62.5t82 21.5q39 0 70.5 -21.5t31.5 -69.5v-5v-5q0 -6 1 -11t3 -9q18 -35 50 -53.5t71 -18.5q84 0 123 70.5t39 154.5q0 68 -21.5 129.5t-62.5 87.5q-2 2 -4 3.5t-4 1.5q-18 14 -40 24t-44 10h-4h-4t-4.5 -1 t-4.5 -1q-4 0 -8 -2t-8 -2q-14 -4 -32.5 -7t-37.5 -5q-8 -2 -15 -2h-15q-29 0 -49.5 11t-20.5 40t38 37t87 8h17.5h17.5h9h9q12 -2 25.5 -2h25.5q18 0 35 2t27 4q47 14 73.5 55t26.5 105q0 74 -36.5 108.5t-79.5 40.5q-6 2 -12.5 2.5t-12.5 0.5q-37 0 -65.5 -16.5 t-26.5 -41.5v-3v-3q2 -6 2 -11v-9q0 -39 -33 -56.5t-74 -17.5h-3h-3q-43 2 -79 22.5t-36 55.5q0 14 5.5 26.5t17.5 22.5q10 10 24.5 22.5t32.5 26.5q41 33 108.5 48t143.5 15q16 0 33.5 -1t34.5 -1q143 -12 261 -70.5t118 -150.5q0 -82 -56.5 -122t-150.5 -68 q115 -39 184.5 -117t69.5 -176v0z" />
<glyph unicode="&#xbf;" horiz-adv-x="1062" d="M1073 -143q-16 -137 -141 -203t-283 -66q-23 0 -44 1t-44 5q-193 20 -353.5 124t-160.5 274q0 131 99.5 217t224.5 164q8 4 15 8t13 8q45 29 90.5 57.5t83.5 59.5q16 12 20.5 32.5t4.5 43.5v9v11v9v10q0 29 9 49t46 20q78 0 108 -28.5t30 -73.5q0 -27 -9.5 -56.5 t-21.5 -60.5q-10 -20 -20.5 -41.5t-22.5 -42.5q-23 -39 -42.5 -70.5t-27.5 -48.5q-29 -63 -49 -134t-29 -140q-2 -18 -3 -35.5t-1 -36.5q0 -39 5 -77t16 -74q12 -39 45 -55.5t69 -16.5q41 0 74 17.5t31 41.5v7.5t-2 7.5q-4 8 -11.5 17t-15.5 20q-12 14 -21.5 29.5t-9.5 33.5 q0 63 50.5 95t109.5 32q66 -2 118 -35t52 -92q0 -2 -1 -4t-1 -4v-2v-4v-2zM911 989q0 -78 -66.5 -134t-162.5 -56q-94 0 -161.5 56t-67.5 134t67.5 133.5t161.5 55.5q96 0 162.5 -55.5t66.5 -133.5v0z" />
<glyph unicode="&#xc0;" horiz-adv-x="1472" d="M1516 -6q0 -20 -26 -37.5t-56 -19.5h-3h-4l-602 -3q0 2 -13 7.5t-30 11.5q-18 8 -31.5 19.5t-13.5 23.5q0 23 25.5 40t62.5 17h49l-43 183h-364l-47 -183h49q35 0 61.5 -16.5t26.5 -40.5q0 -23 -26.5 -41t-61.5 -18l-309 -3q-6 2 -17.5 5.5t-23.5 9.5q-18 8 -32.5 20.5 t-14.5 26.5q0 25 26.5 41t61.5 16h51l324 1278h-76q-37 0 -62.5 17.5t-25.5 42.5t25.5 41t62.5 16h555q37 0 62.5 -16.5t25.5 -40.5l307 -1338h18q37 0 63 -17.5t26 -39.5v-2zM805 344l-119 518q-2 12 -11 18.5t-20 6.5h-3t-3 -2q-8 -2 -15 -8.5t-9 -14.5l-131 -518h311v0z M995 1585q-8 -20 -26.5 -32.5t-44.5 -22.5q-2 0 -7.5 -1t-9.5 -3q-8 -2 -17 -3t-20 -1h-5h-5q-6 2 -11 3t-9 3q-41 20 -82 38.5t-82 39.5q-82 39 -163 77.5t-165 77.5q-8 4 -12 10.5t-4 14.5t4 15t10 16q25 41 68 71.5t102 55.5q8 4 16.5 5t16.5 3h8h8q10 0 20.5 -1t14.5 -5 q96 -76 194.5 -153t196.5 -153q4 -2 6 -9t2 -17v-4v-4q0 -6 -1 -11.5t-3 -9.5v0z" />
<glyph unicode="&#xc1;" horiz-adv-x="1495" d="M1516 -6q0 -20 -26 -37.5t-56 -19.5h-3h-4l-602 -3q0 2 -13 7.5t-30 11.5q-18 8 -31.5 19.5t-13.5 23.5q0 23 25.5 40t62.5 17h49l-43 183h-364l-47 -183h49q35 0 61.5 -16.5t26.5 -40.5q0 -23 -26.5 -41t-61.5 -18l-309 -3q-6 2 -17.5 5.5t-23.5 9.5q-18 8 -32.5 20.5 t-14.5 26.5q0 25 26.5 41t61.5 16h51l324 1278h-76q-37 0 -62.5 17.5t-25.5 42.5t25.5 41t62.5 16h555q37 0 62.5 -16.5t25.5 -40.5l307 -1338h18q37 0 63 -17.5t26 -39.5v-2zM805 344l-119 518q-2 12 -11 18.5t-20 6.5h-3t-3 -2q-8 -2 -15 -8.5t-9 -14.5l-131 -518h311v0z M1151 1804q4 -4 6 -8l4 -8t3 -8t1 -8q0 -6 -3 -12.5t-13 -10.5l-164 -78l-164 -78q-41 -20 -82 -38.5t-82 -38.5q-8 -4 -15 -5.5t-17 -1.5h-4.5h-4.5q-6 0 -13 2t-13 2l-10.5 3.5t-6.5 1.5q-27 10 -45 22t-26 33q-2 4 -3 13t-1 18q0 8 2 15t6 9q98 76 196.5 153t194.5 152 q4 4 14.5 5t22.5 1h12t12 -2q6 0 11.5 -2t11.5 -4q59 -25 102 -55.5t68 -71.5v0z" />
<glyph unicode="&#xc2;" horiz-adv-x="1480" d="M1516 -6q0 -20 -26 -37.5t-56 -19.5h-3h-4l-602 -3q0 2 -13 7.5t-30 11.5q-18 8 -31.5 19.5t-13.5 23.5q0 23 25.5 40t62.5 17h49l-43 183h-364l-47 -183h49q35 0 61.5 -16.5t26.5 -40.5q0 -23 -26.5 -41t-61.5 -18l-309 -3q-6 2 -17.5 5.5t-23.5 9.5q-18 8 -32.5 20.5 t-14.5 26.5q0 25 26.5 41t61.5 16h51l324 1278h-76q-37 0 -62.5 17.5t-25.5 42.5t25.5 41t62.5 16h555q37 0 62.5 -16.5t25.5 -40.5l307 -1338h18q37 0 63 -17.5t26 -39.5v-2zM805 344l-119 518q-2 12 -11 18.5t-20 6.5h-3t-3 -2q-8 -2 -15 -8.5t-9 -14.5l-131 -518h311v0z M1243 1651l-172 -115l-289 195l-295 -199l-178 119l467 313l467 -313v0z" />
<glyph unicode="&#xc3;" horiz-adv-x="1464" d="M1516 -6q0 -20 -26 -37.5t-56 -19.5h-3h-4l-602 -3q0 2 -13 7.5t-30 11.5q-18 8 -31.5 19.5t-13.5 23.5q0 23 25.5 40t62.5 17h49l-43 183h-364l-47 -183h49q35 0 61.5 -16.5t26.5 -40.5q0 -23 -26.5 -41t-61.5 -18l-309 -3q-6 2 -17.5 5.5t-23.5 9.5q-18 8 -32.5 20.5 t-14.5 26.5q0 25 26.5 41t61.5 16h51l324 1278h-76q-37 0 -62.5 17.5t-25.5 42.5t25.5 41t62.5 16h555q37 0 62.5 -16.5t25.5 -40.5l307 -1338h18q37 0 63 -17.5t26 -39.5v-2zM805 344l-119 518q-2 12 -11 18.5t-20 6.5h-3t-3 -2q-8 -2 -15 -8.5t-9 -14.5l-131 -518h311v0z M1094 1632q-29 -35 -64 -59.5t-69 -38.5q-20 -6 -40 -10t-38 -4q-41 0 -65.5 7t-45.5 15h-3t-3 2q-18 6 -39.5 12.5t-54.5 6.5q-37 0 -70 -10.5t-49 -28.5l-121 174q45 55 97.5 82.5t115.5 27.5q41 0 64.5 -7t42.5 -15q2 0 3 -1t3 -1q18 -8 37.5 -14.5t50.5 -6.5 q39 0 72.5 12.5t52.5 30.5l123 -174v0z" />
<glyph unicode="&#xc4;" horiz-adv-x="1480" d="M1516 -6q0 -20 -26 -37.5t-56 -19.5h-3h-4l-602 -3q0 2 -13 7.5t-30 11.5q-18 8 -31.5 19.5t-13.5 23.5q0 23 25.5 40t62.5 17h49l-43 183h-364l-47 -183h49q35 0 61.5 -16.5t26.5 -40.5q0 -23 -26.5 -41t-61.5 -18l-309 -3q-6 2 -17.5 5.5t-23.5 9.5q-18 8 -32.5 20.5 t-14.5 26.5q0 25 26.5 41t61.5 16h51l324 1278h-76q-37 0 -62.5 17.5t-25.5 42.5t25.5 41t62.5 16h555q37 0 62.5 -16.5t25.5 -40.5l307 -1338h18q37 0 63 -17.5t26 -39.5v-2zM805 344l-119 518q-2 12 -11 18.5t-20 6.5h-3t-3 -2q-8 -2 -15 -8.5t-9 -14.5l-131 -518h311v0z M733 1665q0 -57 -57.5 -94t-138.5 -37q-82 0 -140.5 37t-58.5 94q0 53 58.5 92t140.5 39t139 -39t57 -92v0zM1186 1665q0 -57 -56.5 -94t-138.5 -37q-84 0 -141 37t-57 94q0 53 57 92t141 39q82 0 138.5 -39t56.5 -92v0z" />
<glyph unicode="&#xc5;" horiz-adv-x="1486" d="M1470 -6q0 -20 -25.5 -37.5t-55.5 -19.5h-3.5h-3.5l-602 -3q0 2 -13 7.5t-30 11.5q-18 8 -31.5 19.5t-13.5 23.5q0 23 25.5 40t62.5 17h49l-43 183h-364l-47 -183h49q35 0 61.5 -16.5t26.5 -40.5q0 -23 -26.5 -41t-61.5 -18l-309 -3q-6 2 -17.5 5.5t-23.5 9.5 q-18 8 -32.5 20.5t-14.5 26.5q0 25 26.5 41t61.5 16h51l323 1278h-75q-37 0 -62.5 17.5t-25.5 42.5t25.5 41t62.5 16h555q37 0 62.5 -16.5t25.5 -40.5l307 -1338h18q37 0 62.5 -17.5t25.5 -39.5v-2zM760 344l-119 518q-2 12 -11 18.5t-20 6.5h-3t-3 -2q-8 -2 -15 -8.5 t-9 -14.5l-131 -518h311v0zM989 1729q0 -94 -63.5 -159t-157.5 -65q-90 0 -155.5 64.5t-65.5 159.5q0 90 65.5 154.5t155.5 64.5q94 0 157.5 -64.5t63.5 -154.5v0zM831 1726q0 29 -17 47.5t-46 18.5q-27 0 -46.5 -18.5t-19.5 -47.5q0 -27 19.5 -45t46.5 -18q29 0 46 18.5 t17 44.5v0z" />
<glyph unicode="&#xc6;" horiz-adv-x="2009" d="M1978 166l-34 -170q-2 -4 -3.5 -10t-5.5 -13q-8 -23 -26.5 -41t-53.5 -18q-16 0 -31.5 2t-29.5 4q-6 2 -11 3t-9 1q-20 6 -43 9.5t-52 3.5l-776 -3q0 2 -13 7.5t-30 11.5q-18 8 -31.5 19.5t-13.5 23.5q0 14 13.5 27.5t29.5 21.5q4 2 10 3t13 1q4 0 8 1t8 1q16 2 30.5 6 t14.5 11v168h-416l-84 -183h50q35 0 61.5 -16.5t26.5 -40.5q0 -23 -27 -41t-61 -18l-310 -3q-6 2 -17 5.5t-24 9.5q-18 8 -32.5 20.5t-14.5 26.5q0 25 26.5 41t61.5 16h51l523 1278h-76q-37 0 -62.5 17.5t-25.5 42.5t25.5 41t62.5 16h907q10 0 21.5 1t25.5 3q6 2 13.5 3 t13.5 3q14 2 24.5 4t14.5 4t10 2h12q8 0 16.5 -1t16.5 -3q25 -8 46.5 -23.5t33.5 -35.5l92 -180q4 -6 5 -12.5t1 -12.5q-2 -18 -13 -33.5t-34 -21.5q-4 -2 -9 -3t-9 -1q-6 -2 -11.5 -2h-9.5q-27 0 -48 9t-32 23l-98 160h-149l-17 -16v-467h158q0 2 -1 4t-1 4q-2 2 -2 4v4v4 v4q4 12 15 24.5t34 18.5q10 4 18.5 4.5t16.5 0.5q16 0 29.5 -4.5t23.5 -8.5q4 -2 7 -4t5 -4l142 -215q4 -4 6 -8l4 -8q0 -6 1 -10.5t1 -8.5q-2 -18 -15.5 -32.5t-37.5 -22.5q-8 -2 -17.5 -4t-19.5 -2q-27 0 -50.5 10t-31.5 25q-10 18 -17.5 32.5t-15.5 24.5q-18 29 -43.5 39 t-89.5 10h-119v-674h150q35 0 54 12.5t30 26.5q4 4 6 7t4 5l72 111q10 16 33.5 25.5t50.5 9.5q10 0 18 -1t16 -5q23 -6 33 -20.5t12 -28.5v-4.5v-4.5t-1 -5t-1 -5q0 -4 -1 -6t-1 -6v0zM942 344v778q0 12 -10 21.5t-25 11.5h-1h-3q-10 0 -19.5 -6t-15.5 -21l-317 -784h391v0z " />
<glyph unicode="&#xc7;" horiz-adv-x="1224" d="M1192 1153q2 -4 3 -9t1 -11q-2 -20 -20.5 -39t-49.5 -25q-8 -2 -16 -3t-16 -1q-61 0 -90 42t-52 93q0 4 -1 6t-3 4q-23 55 -56.5 101.5t-109.5 46.5q-51 0 -84.5 -21.5t-33.5 -56.5v-1180q0 -41 35.5 -59t78.5 -21h3h3q45 0 82 18.5t37 51.5v8v8v31t2 33q4 43 30 78 t93 35q53 0 92 -41t39 -101q0 -82 -99 -146.5t-218 -86.5q-23 -6 -45.5 -9t-44.5 -3v-48q127 -2 214 -33.5t87 -90.5q0 -55 -97.5 -90t-236.5 -35q-82 0 -150.5 13t-115.5 38l82 63q18 -4 45.5 -9t58.5 -7q16 -2 31.5 -2h29.5q47 0 79 7t34 19q6 23 -46 37.5t-114 16.5 q-10 2 -19 2h-20v129q-236 51 -396.5 271t-160.5 513q0 326 190.5 563.5t461.5 237.5h6h6h5h5q53 -2 78 -4t39 -2h5h5q12 2 30.5 6t61.5 14q4 0 7.5 1t7.5 1q2 2 6 2h6q55 0 95 -57t65 -127q20 -53 33.5 -102t21.5 -70v0z" />
<glyph unicode="&#xc8;" horiz-adv-x="1228" d="M1217 164l-39 -170q-2 -4 -3 -11.5t-4 -13.5q-8 -23 -26.5 -41t-52.5 -18q-18 0 -35 2t-31 6q-4 2 -8 3t-8 1q-20 4 -42 8t-53 4l-770 -2q0 2 -13 7.5t-30 13.5q-18 8 -31.5 19.5t-13.5 23.5q0 23 26 40t62 17l31 10v1252l-31 12q-2 0 -15 4t-28 12q-16 8 -30.5 19.5 t-14.5 26.5q0 25 26 41t62 16h680q10 0 22.5 1t24.5 3q6 2 13.5 3t13.5 3q12 2 22.5 4t14.5 4q2 0 5 1t5 1h5h5q8 0 16.5 -1t18.5 -3q25 -8 48.5 -24.5t33.5 -38.5l92 -178q4 -6 6.5 -12.5t-0.5 -12.5q0 -16 -13 -31.5t-36 -21.5q-4 -2 -9 -3t-9 -1q-6 -2 -11.5 -2h-9.5 q-27 0 -49 9t-30 23l-99 158h-147l-19 -16v-467h158q-2 4 -2 7v5q0 4 1 7t1 7q4 12 15.5 23.5t23.5 17.5q8 4 15 5.5t16 1.5h8t8 -3q16 -2 30.5 -7t24.5 -13q8 -4 12.5 -7t6.5 -7l135 -215q2 -2 3 -5.5t1 -5.5q2 -2 2 -5v-5q0 -16 -13.5 -31.5t-39.5 -23.5q-4 -2 -9.5 -3 t-9.5 -1q-6 -2 -11 -2h-9q-27 0 -48.5 10t-31.5 24l-47 70q-12 25 -42 31t-89 6h-109v-672h154q35 0 55.5 12.5t30.5 28.5q2 2 3 4t3 4l70 111q10 16 32.5 24.5t49.5 8.5h19t18 -4q25 -8 35 -24.5t10 -35.5v-9t-2 -9v0zM854 1581q-8 -20 -26.5 -32.5t-45.5 -22.5q-2 0 -7 -1 t-9 -3q-8 -2 -17.5 -3t-19.5 -1h-5h-5q-6 2 -11.5 3t-9.5 3q-41 20 -82 38.5t-81 39.5q-82 39 -163 77.5t-165 77.5q-8 4 -12.5 10.5t-4.5 14.5t4.5 15t10.5 15q25 41 67.5 72t102.5 55q8 4 16 5.5t17 3.5h8h8q10 0 20.5 -1t14.5 -5q96 -76 194.5 -153t196.5 -153q4 -2 6 -9 t2 -17v-4v-4q0 -6 -1 -11.5t-3 -9.5v0z" />
<glyph unicode="&#xc9;" horiz-adv-x="1228" d="M1217 164l-39 -170q-2 -4 -3 -11.5t-4 -13.5q-8 -23 -26.5 -41t-52.5 -18q-18 0 -35 2t-31 6q-4 2 -8 3t-8 1q-20 4 -42 8t-53 4l-770 -2q0 2 -13 7.5t-30 13.5q-18 8 -31.5 19.5t-13.5 23.5q0 23 26 40t62 17l31 10v1252l-31 12q-2 0 -15 4t-28 12q-16 8 -30.5 19.5 t-14.5 26.5q0 25 26 41t62 16h680q10 0 22.5 1t24.5 3q6 2 13.5 3t13.5 3q12 2 22.5 4t14.5 4q2 0 5 1t5 1h5h5q8 0 16.5 -1t18.5 -3q25 -8 48.5 -24.5t33.5 -38.5l92 -178q4 -6 6.5 -12.5t-0.5 -12.5q0 -16 -13 -31.5t-36 -21.5q-4 -2 -9 -3t-9 -1q-6 -2 -11.5 -2h-9.5 q-27 0 -49 9t-30 23l-99 158h-147l-19 -16v-467h158q-2 4 -2 7v5q0 4 1 7t1 7q4 12 15.5 23.5t23.5 17.5q8 4 15 5.5t16 1.5h8t8 -3q16 -2 30.5 -7t24.5 -13q8 -4 12.5 -7t6.5 -7l135 -215q2 -2 3 -5.5t1 -5.5q2 -2 2 -5v-5q0 -16 -13.5 -31.5t-39.5 -23.5q-4 -2 -9.5 -3 t-9.5 -1q-6 -2 -11 -2h-9q-27 0 -48.5 10t-31.5 24l-47 70q-12 25 -42 31t-89 6h-109v-672h154q35 0 55.5 12.5t30.5 28.5q2 2 3 4t3 4l70 111q10 16 32.5 24.5t49.5 8.5h19t18 -4q25 -8 35 -24.5t10 -35.5v-9t-2 -9v0zM1081 1812q4 -4 6.5 -8t4.5 -8t3 -8t1 -8 q0 -6 -3 -12.5t-14 -10.5q-82 -39 -163.5 -78t-163.5 -77q-41 -20 -82 -39t-82 -39q-8 -4 -15.5 -5t-17.5 -1h-4h-4q-6 0 -13.5 2t-13.5 2q-6 2 -10 3t-6 1q-27 10 -45.5 22.5t-26.5 32.5q-2 4 -3 13.5t-1 17.5t2 15t6 9q98 76 196.5 153t194.5 153q4 4 14.5 5t22.5 1h12.5 t12.5 -2q6 0 11 -2t11 -5q59 -25 102.5 -55.5t67.5 -71.5v0z" />
<glyph unicode="&#xca;" horiz-adv-x="1236" d="M1217 164l-39 -170q-2 -4 -3 -11.5t-4 -13.5q-8 -23 -26.5 -41t-52.5 -18q-18 0 -35 2t-31 6q-4 2 -8 3t-8 1q-20 4 -42 8t-53 4l-770 -2q0 2 -13 7.5t-30 13.5q-18 8 -31.5 19.5t-13.5 23.5q0 23 26 40t62 17l31 10v1252l-31 12q-2 0 -15 4t-28 12q-16 8 -30.5 19.5 t-14.5 26.5q0 25 26 41t62 16h680q10 0 22.5 1t24.5 3q6 2 13.5 3t13.5 3q12 2 22.5 4t14.5 4q2 0 5 1t5 1h5h5q8 0 16.5 -1t18.5 -3q25 -8 48.5 -24.5t33.5 -38.5l92 -178q4 -6 6.5 -12.5t-0.5 -12.5q0 -16 -13 -31.5t-36 -21.5q-4 -2 -9 -3t-9 -1q-6 -2 -11.5 -2h-9.5 q-27 0 -49 9t-30 23l-99 158h-147l-19 -16v-467h158q-2 4 -2 7v5q0 4 1 7t1 7q4 12 15.5 23.5t23.5 17.5q8 4 15 5.5t16 1.5h8t8 -3q16 -2 30.5 -7t24.5 -13q8 -4 12.5 -7t6.5 -7l135 -215q2 -2 3 -5.5t1 -5.5q2 -2 2 -5v-5q0 -16 -13.5 -31.5t-39.5 -23.5q-4 -2 -9.5 -3 t-9.5 -1q-6 -2 -11 -2h-9q-27 0 -48.5 10t-31.5 24l-47 70q-12 25 -42 31t-89 6h-109v-672h154q35 0 55.5 12.5t30.5 28.5q2 2 3 4t3 4l70 111q10 16 32.5 24.5t49.5 8.5h19t18 -4q25 -8 35 -24.5t10 -35.5v-9t-2 -9v0zM1051 1622l-172 -115l-289 195l-295 -199l-178 119 l467 313l467 -313v0z" />
<glyph unicode="&#xcb;" horiz-adv-x="1245" d="M1217 164l-39 -170q-2 -4 -3 -11.5t-4 -13.5q-8 -23 -26.5 -41t-52.5 -18q-18 0 -35 2t-31 6q-4 2 -8 3t-8 1q-20 4 -42 8t-53 4l-770 -2q0 2 -13 7.5t-30 13.5q-18 8 -31.5 19.5t-13.5 23.5q0 23 26 40t62 17l31 10v1252l-31 12q-2 0 -15 4t-28 12q-16 8 -30.5 19.5 t-14.5 26.5q0 25 26 41t62 16h680q10 0 22.5 1t24.5 3q6 2 13.5 3t13.5 3q12 2 22.5 4t14.5 4q2 0 5 1t5 1h5h5q8 0 16.5 -1t18.5 -3q25 -8 48.5 -24.5t33.5 -38.5l92 -178q4 -6 6.5 -12.5t-0.5 -12.5q0 -16 -13 -31.5t-36 -21.5q-4 -2 -9 -3t-9 -1q-6 -2 -11.5 -2h-9.5 q-27 0 -49 9t-30 23l-99 158h-147l-19 -16v-467h158q-2 4 -2 7v5q0 4 1 7t1 7q4 12 15.5 23.5t23.5 17.5q8 4 15 5.5t16 1.5h8t8 -3q16 -2 30.5 -7t24.5 -13q8 -4 12.5 -7t6.5 -7l135 -215q2 -2 3 -5.5t1 -5.5q2 -2 2 -5v-5q0 -16 -13.5 -31.5t-39.5 -23.5q-4 -2 -9.5 -3 t-9.5 -1q-6 -2 -11 -2h-9q-27 0 -48.5 10t-31.5 24l-47 70q-12 25 -42 31t-89 6h-109v-672h154q35 0 55.5 12.5t30.5 28.5q2 2 3 4t3 4l70 111q10 16 32.5 24.5t49.5 8.5h19t18 -4q25 -8 35 -24.5t10 -35.5v-9t-2 -9v0zM569 1690q0 -57 -57 -94t-139 -37t-140.5 36.5 t-58.5 94.5q0 53 58.5 92t140.5 39t139 -39t57 -92v0zM1022 1690q0 -57 -56.5 -94t-138.5 -37q-84 0 -141 36.5t-57 94.5q0 53 57 92t141 39q82 0 138.5 -39t56.5 -92v0z" />
<glyph unicode="&#xcc;" horiz-adv-x="804" d="M768 -2q0 -25 -26.5 -43t-61.5 -18l-553 -3q-39 2 -63.5 20.5t-24.5 45.5q0 20 24.5 38.5t63.5 18.5l18 11v1249l-20 12q-37 0 -62.5 17.5t-25.5 44.5q0 25 25.5 41t62.5 16h551q37 0 62.5 -16.5t25.5 -40.5q0 -27 -25.5 -44.5t-62.5 -17.5l-21 -12v-1249l25 -11 q35 0 61.5 -18.5t26.5 -38.5v-2zM676 1597q-8 -20 -26.5 -32.5t-45.5 -22.5q-2 0 -7 -1t-9 -3q-8 -2 -17.5 -3t-19.5 -1h-5h-5q-6 2 -11.5 3t-9.5 3q-41 20 -82 38.5t-82 39.5q-82 39 -162.5 78t-164.5 78q-8 4 -12.5 10t-4.5 14t4 15.5t11 15.5q25 41 67.5 71.5t102.5 55.5 q8 4 16 5t16 3h8.5h8.5q10 0 20 -1t15 -5q96 -76 194 -152.5t197 -152.5q4 -2 6 -9.5t2 -17.5v-4v-4q0 -6 -1 -11t-3 -10v0z" />
<glyph unicode="&#xcd;" horiz-adv-x="798" d="M768 -2q0 -25 -26.5 -43t-61.5 -18l-553 -3q-39 2 -63.5 20.5t-24.5 45.5q0 20 24.5 38.5t63.5 18.5l18 11v1249l-20 12q-37 0 -62.5 17.5t-25.5 44.5q0 25 25.5 41t62.5 16h551q37 0 62.5 -16.5t25.5 -40.5q0 -27 -25.5 -44.5t-62.5 -17.5l-21 -12v-1249l25 -11 q35 0 61.5 -18.5t26.5 -38.5v-2zM813 1786q4 -4 6 -8t4 -9q2 -4 3 -8t1 -8q0 -6 -3 -12t-13 -10l-164 -78l-164 -78q-41 -20 -82 -38.5t-82 -39.5q-8 -4 -15 -5t-17 -1h-4h-4q-6 0 -13.5 2t-13.5 2q-6 2 -10 3t-6 1q-27 10 -45.5 22.5t-26.5 32.5q-2 4 -3 13.5t-1 17.5 t2 15.5t6 9.5q98 76 196.5 152.5t194.5 152.5q4 4 14.5 5t22.5 1h12t13 -2q6 0 11 -2t11 -4q59 -25 102 -55.5t68 -71.5v0z" />
<glyph unicode="&#xce;" horiz-adv-x="790" d="M768 -2q0 -25 -26.5 -43t-61.5 -18l-553 -3q-39 2 -63.5 20.5t-24.5 45.5q0 20 24.5 38.5t63.5 18.5l18 11v1249l-20 12q-37 0 -62.5 17.5t-25.5 44.5q0 25 25.5 41t62.5 16h551q37 0 62.5 -16.5t25.5 -40.5q0 -27 -25.5 -44.5t-62.5 -17.5l-21 -12v-1249l25 -11 q35 0 61.5 -18.5t26.5 -38.5v-2zM891 1634l-172 -114l-289 194l-295 -198l-178 118l467 314l467 -314v0z" />
<glyph unicode="&#xcf;" horiz-adv-x="798" d="M768 -2q0 -25 -26.5 -43t-61.5 -18l-553 -3q-39 2 -63.5 20.5t-24.5 45.5q0 20 24.5 38.5t63.5 18.5l18 11v1249l-20 12q-37 0 -62.5 17.5t-25.5 44.5q0 25 25.5 41t62.5 16h551q37 0 62.5 -16.5t25.5 -40.5q0 -27 -25.5 -44.5t-62.5 -17.5l-21 -12v-1249l25 -11 q35 0 61.5 -18.5t26.5 -38.5v-2zM375 1653q0 -57 -57.5 -94t-139.5 -37t-139 36.5t-57 94.5q0 53 57 92t139 39t139.5 -39t57.5 -92v0zM827 1653q0 -57 -56 -94t-138 -37q-84 0 -141.5 36.5t-57.5 94.5q0 53 57.5 92t141.5 39q82 0 138 -39t56 -92v0z" />
<glyph unicode="&#xd0;" horiz-adv-x="1613" d="M1561 694q0 -311 -205 -532t-494 -221l-663 -2q-39 2 -63.5 19t-24.5 42q0 20 19.5 37.5t51.5 21.5l19 13v622h-127v123h127v498l-19 16q-33 4 -53 20.5t-20 41.5t25.5 42t62.5 17h665q289 0 494 -223t205 -535v0zM940 135v1116q0 33 -34 55.5t-81 22.5 q-45 0 -78.5 -22.5t-33.5 -55.5q0 -8 6 -14t14 -12h1t1 -2q8 -6 15.5 -12.5t7.5 -16.5v-377h116v-123h-116v-495q0 -8 -7.5 -16.5t-15.5 -14.5l-1 -1l-1 -1q-8 -6 -14 -12.5t-6 -14.5q0 -31 33.5 -53.5t78.5 -22.5q23 0 44.5 6.5t35.5 18.5q14 8 24.5 20.5t10.5 26.5v0z" />
<glyph unicode="&#xd1;" horiz-adv-x="1302" d="M1233 1360q8 -20 10 -48t2 -59q0 -47 -5 -101t-13 -110q-2 -16 -4 -31.5t-4 -29.5q-12 -72 -20.5 -135.5t-8.5 -106.5v-669l20 -13q43 0 64.5 -19.5t21.5 -39.5q0 -23 -21.5 -42t-64.5 -19q-51 0 -83.5 5t-63.5 23q-10 8 -20.5 16.5t-20.5 18.5l-602 598q-4 4 -9 6t-10 2 q-4 0 -7 -2t-3 -6v-530l23 -11q35 0 61.5 -18.5t26.5 -38.5q0 -27 -26.5 -45t-61.5 -18l-262 -3q-39 2 -64 20.5t-25 45.5q0 20 25 38.5t64 18.5l18 11v1249l-20 12q-45 0 -67 19.5t-22 42.5q2 23 23.5 40t65.5 17h27t28 2h23.5h23.5q47 0 85 -10t73 -49l403 -437 q8 -8 13 -18t10 -18q6 -18 8 -36t2 -28q0 -37 18.5 -54.5t44.5 -15.5q6 0 11.5 1t11.5 3q23 6 43 24.5t29 45.5q6 23 8 42.5t2 37.5q0 55 -22.5 97t-55.5 81q-14 16 -29.5 33.5t-32.5 36.5q-20 25 -40.5 51.5t-36.5 56.5q-8 16 -13.5 32.5t-5.5 31.5q0 66 70 103.5t153 37.5 h4.5h4.5q72 -2 135 -35.5t88 -103.5v0zM932 1616q-29 -35 -63.5 -59.5t-69.5 -38.5q-20 -6 -40 -10.5t-38 -4.5q-41 0 -65.5 7.5t-45.5 15.5h-3t-3 2q-18 6 -39.5 12t-54.5 6q-37 0 -69.5 -10t-49.5 -29l-121 174q45 55 97.5 83t115.5 28q41 0 64.5 -7t42.5 -16q2 0 3 -1 t3 -1q18 -8 37.5 -14t50.5 -6q39 0 73 12.5t52 30.5l123 -174v0z" />
<glyph unicode="&#xd2;" horiz-adv-x="299" />
<glyph unicode="&#xd3;" horiz-adv-x="1474" d="M1456 694q0 -328 -202.5 -561t-489.5 -233q-289 0 -491.5 233.5t-202.5 560.5q0 332 202.5 565.5t491.5 233.5q287 0 489.5 -233.5t202.5 -565.5v0zM901 113q0 10 -7 17t-15 13q-10 6 -17.5 14.5t-7.5 16.5v1096q0 39 -36 57.5t-81 18.5h-3h-3q-39 -2 -72.5 -20.5 t-33.5 -55.5q0 -4 2 -9.5t6 -9.5q2 -4 7 -9l9 -9q10 -8 17 -15l8 -6v-1101q0 -33 34.5 -50.5t75.5 -19.5h3h4q43 0 76.5 17.5t33.5 54.5v0zM1145 1829q4 -4 6 -8t4 -9q2 -4 3 -8t1 -8q0 -6 -3 -12t-13 -10l-164 -78l-164 -78q-41 -20 -82 -38.5t-82 -39.5q-8 -4 -15 -5 t-18 -1h-4h-4q-6 0 -13 2t-13 2q-6 2 -10.5 3t-6.5 1q-27 10 -45 22.5t-26 32.5q-2 4 -3 13.5t-1 17.5t2 15.5t6 9.5q98 76 196.5 152.5t194.5 152.5q4 4 14 5t23 1h12t12 -2q6 0 11.5 -2t11.5 -4q59 -25 102 -55.5t68 -71.5v0z" />
<glyph unicode="&#xd4;" horiz-adv-x="1488" d="M1456 694q0 -328 -202.5 -561t-489.5 -233q-289 0 -491.5 233.5t-202.5 560.5q0 332 202.5 565.5t491.5 233.5q287 0 489.5 -233.5t202.5 -565.5v0zM901 113q0 10 -7 17t-15 13q-10 6 -17.5 14.5t-7.5 16.5v1096q0 39 -36 57.5t-81 18.5h-3h-3q-39 -2 -72.5 -20.5 t-33.5 -55.5q0 -4 2 -9.5t6 -9.5q2 -4 7 -9l9 -9q10 -8 17 -15l8 -6v-1101q0 -33 34.5 -50.5t75.5 -19.5h3h4q43 0 76.5 17.5t33.5 54.5v0zM1221 1630l-172 -114l-289 194l-295 -199l-178 119l467 314l467 -314v0z" />
<glyph unicode="&#xd5;" horiz-adv-x="1480" d="M1456 694q0 -328 -202.5 -561t-489.5 -233q-289 0 -491.5 233.5t-202.5 560.5q0 332 202.5 565.5t491.5 233.5q287 0 489.5 -233.5t202.5 -565.5v0zM901 113q0 10 -7 17t-15 13q-10 6 -17.5 14.5t-7.5 16.5v1096q0 39 -36 57.5t-81 18.5h-3h-3q-39 -2 -72.5 -20.5 t-33.5 -55.5q0 -4 2 -9.5t6 -9.5q2 -4 7 -9l9 -9q10 -8 17 -15l8 -6v-1101q0 -33 34.5 -50.5t75.5 -19.5h3h4q43 0 76.5 17.5t33.5 54.5v0zM1112 1659q-29 -35 -63.5 -59.5t-69.5 -38.5q-20 -6 -39.5 -10.5t-38.5 -4.5q-41 0 -65.5 7.5t-44.5 15.5h-3.5t-3.5 2 q-18 6 -39.5 12t-54.5 6q-37 0 -69.5 -10t-49.5 -29l-120 174q45 55 97 83t116 28q41 0 64.5 -7t41.5 -16q2 0 3 -1t3 -1q18 -8 38 -14t50 -6q39 0 73 12.5t52 30.5l123 -174v0z" />
<glyph unicode="&#xd6;" horiz-adv-x="1480" d="M1456 694q0 -328 -202.5 -561t-489.5 -233q-289 0 -491.5 233.5t-202.5 560.5q0 332 202.5 565.5t491.5 233.5q287 0 489.5 -233.5t202.5 -565.5v0zM901 113q0 10 -7 17t-15 13q-10 6 -17.5 14.5t-7.5 16.5v1096q0 39 -36 57.5t-81 18.5h-3h-3q-39 -2 -72.5 -20.5 t-33.5 -55.5q0 -4 2 -9.5t6 -9.5q2 -4 7 -9l9 -9q10 -8 17 -15l8 -6v-1101q0 -33 34.5 -50.5t75.5 -19.5h3h4q43 0 76.5 17.5t33.5 54.5v0zM717 1722q0 -57 -57.5 -94t-139.5 -37t-140 37t-58 94q0 53 58 92t140 39t139.5 -38.5t57.5 -92.5v0zM1169 1722q0 -57 -56 -94 t-138 -37q-84 0 -141.5 37t-57.5 94q0 53 57.5 92t141.5 39q82 0 138 -38.5t56 -92.5v0z" />
<glyph unicode="&#xd7;" horiz-adv-x="858" d="M797 879l-252 -254l250 -252l-105 -107l-252 250l-254 -250l-104 107l248 252l-250 256l104 104l254 -250l256 250l105 -106v0z" />
<glyph unicode="&#xd8;" horiz-adv-x="1480" d="M1413 698q0 -319 -196.5 -545.5t-475.5 -226.5q-61 0 -119.5 11.5t-111.5 33.5l-72 -215h-125l90 271q-150 102 -242.5 279t-92.5 392q0 322 197.5 549.5t475.5 227.5q16 0 34 -1t36 -4q16 -2 33.5 -5t34.5 -7l61 187h125l-76 -228q186 -84 305 -279.5t119 -439.5v0z M874 100q0 10 -7 17.5t-15 13.5l-1 1l-1 1q-8 6 -14.5 12.5t-6.5 14.5l-2 762l-176 -525l2 -299q0 -14 10.5 -25.5t22.5 -19.5q16 -12 35.5 -18t42.5 -6q45 0 77.5 22.5t32.5 48.5v0zM823 1296q-2 31 -32.5 52.5t-73.5 21.5q-45 0 -78 -22.5t-33 -53.5q0 -4 2 -8l4 -8 q4 -4 8.5 -8t8.5 -8q8 -6 15 -12.5t7 -10.5v-467l172 524v0z" />
<glyph unicode="&#xd9;" horiz-adv-x="1343" d="M1372 1391q0 -27 -25.5 -44.5t-62.5 -17.5l-20 -12v-1133q0 -119 -160 -202.5t-383 -83.5q-225 0 -386 84t-161 202v1133l-20 12q-37 0 -62.5 17.5t-25.5 44.5q0 25 25.5 42t62.5 17h553q35 0 60.5 -17.5t25.5 -41.5q0 -27 -26 -44.5t-60 -17.5l-23 -12v-1075 q0 -49 55.5 -84t130.5 -35q76 0 132.5 35t56.5 82v1077l-21 12q-37 0 -62.5 17.5t-25.5 44.5q0 25 25.5 42t62.5 17h246q37 0 62.5 -17.5t25.5 -41.5v0zM1038 1577q-8 -20 -26.5 -32.5t-44.5 -22.5q-2 0 -7.5 -1t-9.5 -3q-8 -2 -17 -3.5t-20 -1.5h-5h-5q-6 2 -11 3.5t-9 3.5 q-41 20 -82 38.5t-82 38.5q-82 39 -163 78t-165 78q-8 4 -12 10t-4 15q0 8 4 15t10 15q25 41 68 72t102 55q8 4 16.5 5.5t16.5 3.5h8h8q10 0 20.5 -1t14.5 -6q96 -76 194.5 -152.5t196.5 -152.5q4 -2 6 -9t2 -17v-4.5v-4.5q0 -6 -1 -11t-3 -9v0z" />
<glyph unicode="&#xda;" horiz-adv-x="1337" d="M1372 1391q0 -27 -25.5 -44.5t-62.5 -17.5l-20 -12v-1133q0 -119 -160 -202.5t-383 -83.5q-225 0 -386 84t-161 202v1133l-20 12q-37 0 -62.5 17.5t-25.5 44.5q0 25 25.5 42t62.5 17h553q35 0 60.5 -17.5t25.5 -41.5q0 -27 -26 -44.5t-60 -17.5l-23 -12v-1075 q0 -49 55.5 -84t130.5 -35q76 0 132.5 35t56.5 82v1077l-21 12q-37 0 -62.5 17.5t-25.5 44.5q0 25 25.5 42t62.5 17h246q37 0 62.5 -17.5t25.5 -41.5v0zM1163 1788q4 -4 6 -8t5 -8q2 -4 3 -8.5t1 -8.5q0 -6 -3.5 -12t-13.5 -10l-164 -78t-163 -78q-41 -20 -82 -38.5 t-82 -39.5q-8 -4 -15.5 -5t-17.5 -1h-4h-4q-6 0 -13.5 2t-13.5 2q-6 2 -10 3t-6 1q-27 10 -45.5 22.5t-26.5 32.5q-2 4 -3 13.5t-1 17.5t2 15.5t6 9.5q98 76 196.5 152.5t194.5 152.5q4 4 14.5 5t22.5 1h12.5t12.5 -2q6 0 11 -2t11 -4q59 -25 102.5 -55.5t67.5 -71.5v0z" />
<glyph unicode="&#xdb;" horiz-adv-x="1359" d="M1372 1391q0 -27 -25.5 -44.5t-62.5 -17.5l-20 -12v-1133q0 -119 -160 -202.5t-383 -83.5q-225 0 -386 84t-161 202v1133l-20 12q-37 0 -62.5 17.5t-25.5 44.5q0 25 25.5 42t62.5 17h553q35 0 60.5 -17.5t25.5 -41.5q0 -27 -26 -44.5t-60 -17.5l-23 -12v-1075 q0 -49 55.5 -84t130.5 -35q76 0 132.5 35t56.5 82v1077l-21 12q-37 0 -62.5 17.5t-25.5 44.5q0 25 25.5 42t62.5 17h246q37 0 62.5 -17.5t25.5 -41.5v0zM1249 1634l-172 -114l-289 194l-294 -198l-179 118l467 314l467 -314v0z" />
<glyph unicode="&#xdc;" horiz-adv-x="1345" d="M1372 1391q0 -27 -25.5 -44.5t-62.5 -17.5l-20 -12v-1133q0 -119 -160 -202.5t-383 -83.5q-225 0 -386 84t-161 202v1133l-20 12q-37 0 -62.5 17.5t-25.5 44.5q0 25 25.5 42t62.5 17h553q35 0 60.5 -17.5t25.5 -41.5q0 -27 -26 -44.5t-60 -17.5l-23 -12v-1075 q0 -49 55.5 -84t130.5 -35q76 0 132.5 35t56.5 82v1077l-21 12q-37 0 -62.5 17.5t-25.5 44.5q0 25 25.5 42t62.5 17h246q37 0 62.5 -17.5t25.5 -41.5v0zM754 1638q0 -57 -57.5 -94t-139.5 -37t-140.5 37t-58.5 94q0 53 58.5 92t140.5 39t139.5 -38.5t57.5 -92.5v0z M1206 1638q0 -57 -56 -94t-138 -37q-84 0 -141.5 37t-57.5 94q0 53 57.5 92t141.5 39q82 0 138 -38.5t56 -92.5v0z" />
<glyph unicode="&#xdd;" horiz-adv-x="299" />
<glyph unicode="&#xde;" horiz-adv-x="1427" d="M1364 784q0 -315 -119 -428.5t-325 -113.5h-271v-174l23 -13q35 0 61.5 -17.5t26.5 -37.5q0 -27 -26.5 -45t-61.5 -18l-516 -3q-39 2 -63.5 20.5t-24.5 45.5q0 20 24.5 37.5t63.5 17.5l18 13v1253l-20 12q-37 0 -62.5 20.5t-25.5 47.5q0 25 25.5 41t62.5 16h540 q39 0 63.5 -17.5t24.5 -39.5q0 -23 -22.5 -40.5t-50.5 -21.5q-4 -2 -7.5 -2h-7.5h-53v-24v-17v-10v-4v0v0l279 2q207 2 325.5 -91t118.5 -409v0zM879 440v625q0 31 -34 53.5t-81 22.5q-45 0 -79 -22.5t-34 -53.5q0 -8 6.5 -14.5t14.5 -12.5l1 -1l1 -1q10 -6 17 -13t7 -17 v-502q0 -8 -7 -16.5t-15 -14.5q-10 -6 -17.5 -13t-7.5 -18q0 -29 34 -51t79 -22q23 0 44 7t36 17q14 8 24.5 20.5t10.5 26.5v0z" />
<glyph unicode="&#xdf;" horiz-adv-x="1439" d="M1409 971q0 -68 -66.5 -113t-150.5 -80l-119 -53q150 -18 217.5 -105.5t67.5 -191.5v-7v-5q-4 -84 -46 -163t-116 -124q-23 -14 -51.5 -31.5t-59.5 -36.5q-57 -37 -105 -78.5t-54 -84.5q-2 -4 -2 -7.5v-7.5q0 -18 10 -35.5t31 -33.5q23 -16 37 -42t18 -55v-6v-6 q-2 -41 -32 -72.5t-95 -31.5q-68 0 -99.5 44t-39.5 95q-2 14 -3 26.5t-1 24.5q0 23 3 43.5t7 32.5q6 16 12 32.5t12 30.5q29 74 53.5 148t24.5 137q0 12 2 31.5t4 44.5t4 52.5t2 55.5q0 72 -23.5 131.5t-96.5 59.5q-45 0 -77 -21.5t-32 -50.5q0 -4 3 -10t7 -12 q2 -2 5.5 -6.5t5.5 -8.5q6 -4 11 -9l7 -7v-381q0 -76 -34 -103.5t-158 -27.5l-336 -2q-39 2 -63.5 19.5t-24.5 41.5q0 25 24.5 42.5t63.5 17.5q6 0 11 4t5 8v856q0 43 11.5 90t33.5 96q59 133 191.5 244t316.5 109q35 0 68.5 -3t68.5 -14q61 -14 91 -38.5t34 -51.5 q2 -4 2 -7v-5q-2 -43 -46 -78t-95 -39h-7h-5q-29 0 -56.5 13.5t-46.5 46.5q-45 -12 -73.5 -49t-28.5 -85q0 -43 20.5 -76.5t50.5 -52.5q23 10 47.5 21.5t47.5 23.5q70 35 144.5 63t158.5 28q127 0 218 -59.5t91 -145.5v0zM901 813q0 55 -31.5 94t-76.5 39t-78 -39t-33 -94 q0 -57 33 -96t78 -39t76.5 39t31.5 96v0z" />
<glyph unicode="&#xe0;" horiz-adv-x="1333" d="M1311 -2q0 -25 -27 -43t-61 -18q-18 0 -41 -1.5t-52 -1.5q-27 0 -56.5 -1t-59.5 -1h-8.5h-8.5q-82 0 -154.5 11.5t-101.5 44.5q-70 -49 -137 -70.5t-131 -21.5q-160 2 -274.5 110.5t-137.5 241.5q-2 14 -3 27.5t-1 27.5q0 164 71 288t298 187q33 10 64.5 17.5t60.5 15.5 q102 31 162.5 70t60.5 131v17t-2 18q-4 37 -33.5 55t-64.5 24q-10 2 -20.5 3t-18.5 1h-5h-7q-78 -6 -101.5 -46t-38.5 -87q-14 -53 -42.5 -97t-133.5 -44h-12h-14q-41 4 -73 36t-32 79v4t2 6v4v4q16 115 143.5 173.5t288.5 58.5q20 0 40 -1t40 -3q190 -16 350 -118t160 -288 v-743l23 -13q35 0 61.5 -17.5t26.5 -37.5v-2zM774 180q0 10 -7 17.5t-15 15.5q-10 8 -17.5 16.5t-7.5 16.5v323q0 10 7 17.5t18 15.5l1 1l3 3q8 6 13 12.5t5 14.5q0 41 -36 60.5t-79 19.5t-77.5 -19.5t-34.5 -60.5v-457q0 -37 35.5 -55.5t79.5 -18.5q43 0 77.5 19.5 t34.5 58.5v0zM944 1354q-8 -20 -26.5 -32.5t-45.5 -23.5q-2 0 -7 -1t-9 -3q-8 -2 -17.5 -3t-19.5 -1h-5h-5q-6 2 -11 3t-10 3q-41 20 -81.5 39t-81.5 39q-82 39 -163 78t-165 78q-8 4 -12 10t-4 14t4 15.5t10 15.5q25 41 68 72t102 55q8 4 16 5t17 3h8h8q10 0 20.5 -1 t14.5 -5q96 -76 194.5 -152.5t196.5 -152.5q4 -2 6 -9t2 -18v-4v-4q0 -6 -1 -11t-3 -9v0z" />
<glyph unicode="&#xe1;" horiz-adv-x="1351" d="M1317 -2q0 -25 -26.5 -43t-61.5 -18q-18 0 -41 -1.5t-51 -1.5q-27 0 -56.5 -1t-60.5 -1h-8h-8q-82 0 -155 11.5t-101 44.5q-70 -49 -137.5 -70.5t-131.5 -21.5q-160 2 -274.5 110.5t-136.5 241.5q-2 14 -3.5 27.5t-1.5 27.5q0 164 71 288t298 187q33 10 64.5 17.5 t60.5 15.5q102 31 162.5 70t60.5 131v17t-2 18q-4 37 -33.5 55t-64.5 24q-10 2 -20.5 3t-18.5 1h-5h-7q-78 -6 -101.5 -46t-38.5 -87q-14 -53 -42.5 -97t-133.5 -44h-12h-14q-41 4 -73 36t-32 79v4t2 6v4v4q16 115 143.5 173.5t288.5 58.5q20 0 40 -1t40 -3 q190 -16 350 -118t160 -288v-743l23 -13q35 0 61.5 -17.5t26.5 -37.5v-2zM780 180q0 10 -7 17.5t-15 15.5q-10 8 -17.5 16.5t-7.5 16.5v323q0 10 7.5 17.5t17.5 15.5l1 1l3 3q8 6 13 12.5t5 14.5q0 41 -35.5 60.5t-78.5 19.5t-78 -19.5t-35 -60.5v-457q0 -37 36 -55.5 t79 -18.5t77.5 19.5t34.5 58.5v0zM1208 1569q4 -4 6.5 -8.5t4.5 -8.5t3 -8t1 -8q0 -6 -3 -12t-14 -11q-82 -39 -163.5 -77.5t-163.5 -77.5q-41 -20 -82 -39t-82 -39q-8 -4 -15.5 -5t-17.5 -1h-4h-4q-6 0 -13.5 2t-13.5 2q-6 2 -10 3t-6 1q-27 10 -45.5 22.5t-26.5 32.5 q-2 4 -3 13.5t-1 17.5t2 15.5t6 9.5q98 76 196.5 152.5t194.5 152.5q4 4 14.5 5t22.5 1h12.5t12.5 -2q6 0 11 -2t11 -4q59 -25 102.5 -55.5t67.5 -71.5v0z" />
<glyph unicode="&#xe2;" horiz-adv-x="1339" d="M1317 -2q0 -25 -26.5 -43t-61.5 -18q-18 0 -41 -1.5t-51 -1.5q-27 0 -56.5 -1t-60.5 -1h-8h-8q-82 0 -155 11.5t-101 44.5q-70 -49 -137.5 -70.5t-131.5 -21.5q-160 2 -274.5 110.5t-136.5 241.5q-2 14 -3.5 27.5t-1.5 27.5q0 164 71 288t298 187q33 10 64.5 17.5 t60.5 15.5q102 31 162.5 70t60.5 131v17t-2 18q-4 37 -33.5 55t-64.5 24q-10 2 -20.5 3t-18.5 1h-5h-7q-78 -6 -101.5 -46t-38.5 -87q-14 -53 -42.5 -97t-133.5 -44h-12h-14q-41 4 -73 36t-32 79v4t2 6v4v4q16 115 143.5 173.5t288.5 58.5q20 0 40 -1t40 -3 q190 -16 350 -118t160 -288v-743l23 -13q35 0 61.5 -17.5t26.5 -37.5v-2zM780 180q0 10 -7 17.5t-15 15.5q-10 8 -17.5 16.5t-7.5 16.5v323q0 10 7.5 17.5t17.5 15.5l1 1l3 3q8 6 13 12.5t5 14.5q0 41 -35.5 60.5t-78.5 19.5t-78 -19.5t-35 -60.5v-457q0 -37 36 -55.5 t79 -18.5t77.5 19.5t34.5 58.5v0zM1126 1364l-172 -115l-288 195l-295 -199l-178 119l466 313l467 -313v0z" />
<glyph unicode="&#xe3;" horiz-adv-x="1351" d="M1317 -2q0 -25 -26.5 -43t-61.5 -18q-18 0 -41 -1.5t-51 -1.5q-27 0 -56.5 -1t-60.5 -1h-8h-8q-82 0 -155 11.5t-101 44.5q-70 -49 -137.5 -70.5t-131.5 -21.5q-160 2 -274.5 110.5t-136.5 241.5q-2 14 -3.5 27.5t-1.5 27.5q0 164 71 288t298 187q33 10 64.5 17.5 t60.5 15.5q102 31 162.5 70t60.5 131v17t-2 18q-4 37 -33.5 55t-64.5 24q-10 2 -20.5 3t-18.5 1h-5h-7q-78 -6 -101.5 -46t-38.5 -87q-14 -53 -42.5 -97t-133.5 -44h-12h-14q-41 4 -73 36t-32 79v4t2 6v4v4q16 115 143.5 173.5t288.5 58.5q20 0 40 -1t40 -3 q190 -16 350 -118t160 -288v-743l23 -13q35 0 61.5 -17.5t26.5 -37.5v-2zM780 180q0 10 -7 17.5t-15 15.5q-10 8 -17.5 16.5t-7.5 16.5v323q0 10 7.5 17.5t17.5 15.5l1 1l3 3q8 6 13 12.5t5 14.5q0 41 -35.5 60.5t-78.5 19.5t-78 -19.5t-35 -60.5v-457q0 -37 36 -55.5 t79 -18.5t77.5 19.5t34.5 58.5v0zM1067 1378q-29 -35 -63.5 -59.5t-69.5 -38.5q-20 -6 -40 -10t-38 -4q-41 0 -65.5 7t-45.5 15h-3t-3 2q-18 6 -39.5 12.5t-54.5 6.5q-37 0 -69.5 -10.5t-49.5 -28.5l-120 174q45 55 97 82.5t115 27.5q41 0 65 -7t42 -15q2 0 3 -1t3 -1 q18 -8 37.5 -14.5t50.5 -6.5q39 0 73 12.5t52 30.5l123 -174v0z" />
<glyph unicode="&#xe4;" horiz-adv-x="1351" d="M1317 -2q0 -25 -26.5 -43t-61.5 -18q-18 0 -41 -1.5t-51 -1.5q-27 0 -56.5 -1t-60.5 -1h-8h-8q-82 0 -155 11.5t-101 44.5q-70 -49 -137.5 -70.5t-131.5 -21.5q-160 2 -274.5 110.5t-136.5 241.5q-2 14 -3.5 27.5t-1.5 27.5q0 164 71 288t298 187q33 10 64.5 17.5 t60.5 15.5q102 31 162.5 70t60.5 131v17t-2 18q-4 37 -33.5 55t-64.5 24q-10 2 -20.5 3t-18.5 1h-5h-7q-78 -6 -101.5 -46t-38.5 -87q-14 -53 -42.5 -97t-133.5 -44h-12h-14q-41 4 -73 36t-32 79v4t2 6v4v4q16 115 143.5 173.5t288.5 58.5q20 0 40 -1t40 -3 q190 -16 350 -118t160 -288v-743l23 -13q35 0 61.5 -17.5t26.5 -37.5v-2zM780 180q0 10 -7 17.5t-15 15.5q-10 8 -17.5 16.5t-7.5 16.5v323q0 10 7.5 17.5t17.5 15.5l1 1l3 3q8 6 13 12.5t5 14.5q0 41 -35.5 60.5t-78.5 19.5t-78 -19.5t-35 -60.5v-457q0 -37 36 -55.5 t79 -18.5t77.5 19.5t34.5 58.5v0zM647 1407q0 -57 -57.5 -94t-138.5 -37q-82 0 -140.5 37t-58.5 94q0 53 58.5 92t140.5 39t139 -39t57 -92v0zM1100 1407q0 -57 -56.5 -94t-138.5 -37q-84 0 -141 37t-57 94q0 53 57 92t141 39q82 0 138.5 -39t56.5 -92v0z" />
<glyph unicode="&#xe5;" horiz-adv-x="1345" d="M1317 -2q0 -25 -26.5 -43t-61.5 -18q-18 0 -41 -1.5t-51 -1.5q-27 0 -56.5 -1t-60.5 -1h-8h-8q-82 0 -155 11.5t-101 44.5q-70 -49 -137.5 -70.5t-131.5 -21.5q-160 2 -274.5 110.5t-136.5 241.5q-2 14 -3.5 27.5t-1.5 27.5q0 164 71 288t298 187q33 10 64.5 17.5 t60.5 15.5q102 31 162.5 70t60.5 131v17t-2 18q-4 37 -33.5 55t-64.5 24q-10 2 -20.5 3t-18.5 1h-5h-7q-78 -6 -101.5 -46t-38.5 -87q-14 -53 -42.5 -97t-133.5 -44h-12h-14q-41 4 -73 36t-32 79v4t2 6v4v4q16 115 143.5 173.5t288.5 58.5q20 0 40 -1t40 -3 q190 -16 350 -118t160 -288v-743l23 -13q35 0 61.5 -17.5t26.5 -37.5v-2zM780 180q0 10 -7 17.5t-15 15.5q-10 8 -17.5 16.5t-7.5 16.5v323q0 10 7.5 17.5t17.5 15.5l1 1l3 3q8 6 13 12.5t5 14.5q0 41 -35.5 60.5t-78.5 19.5t-78 -19.5t-35 -60.5v-457q0 -37 36 -55.5 t79 -18.5t77.5 19.5t34.5 58.5v0zM850 1806q0 -94 -63.5 -158.5t-157.5 -64.5q-90 0 -155.5 64.5t-65.5 158.5q0 90 65.5 154.5t155.5 64.5q94 0 157.5 -64.5t63.5 -154.5v0zM692 1804q0 29 -17.5 47.5t-45.5 18.5q-27 0 -46.5 -18.5t-19.5 -47.5q0 -27 19.5 -45t46.5 -18 q29 0 46 18.5t17 44.5v0z" />
<glyph unicode="&#xe6;" horiz-adv-x="1806" d="M1802 848q0 -4 -1 -8t-3 -9q-4 -8 -12 -16t-25 -10h-516v-709q0 -14 9.5 -25.5t21.5 -19.5q16 -12 37.5 -18t44.5 -6q47 0 81 22.5t34 50.5q0 4 -1.5 11.5t-5.5 15.5q0 4 -1 7t-3 5v4v2q-2 8 -4 16.5t-2 18.5q0 49 44 85t102 36q61 0 105 -36t44 -85q0 -29 -15.5 -52.5 t-31.5 -39.5q-4 -2 -6 -4l-4 -4q-74 -66 -171.5 -103.5t-205.5 -37.5q-96 0 -189.5 24.5t-171.5 73.5q-12 8 -25 12t-28 2q-20 0 -43.5 -8t-48.5 -25q-10 -6 -20.5 -12t-22.5 -14q-37 -20 -93.5 -37.5t-152.5 -17.5q-178 0 -307 104t-129 330q0 121 36 208t103 138 q35 29 94.5 53.5t135.5 44.5q27 8 53.5 15.5t50.5 13.5q55 14 103.5 31.5t80.5 39.5q33 23 47.5 58t14.5 74q0 4 -1 9t-1 11q0 4 -1 9t-1 9q-2 37 -33 55.5t-66 24.5q-12 2 -23 3t-22 1h-3h-3q-37 -4 -57.5 -13t-30.5 -19q-8 -8 -12 -15.5t-8 -11.5q-4 -10 -9.5 -22.5 t-11.5 -26.5q-2 -10 -6 -20.5t-8 -22.5q-6 -16 -12.5 -33.5t-14.5 -34.5q-20 -35 -61 -45t-88 -10h-5h-5h-5.5h-5.5q-45 4 -75.5 37t-28.5 80v4v4v2v4q14 98 125.5 162.5t378.5 64.5q90 0 158.5 -25.5t115.5 -66.5q59 35 130 55.5t153 26.5q309 2 421.5 -114.5t112.5 -280.5 v0zM803 213q0 10 -7.5 17.5t-15.5 13.5t-15 14t-7 16v344q0 10 7 17.5t15 13.5l1 1l1 1q8 6 14.5 12.5t6.5 14.5q0 31 -33 53.5t-80 22.5q-45 0 -80 -22.5t-35 -53.5v-467q0 -14 10.5 -26.5t24.5 -20.5q16 -12 37 -17.5t41 -5.5q43 0 79 19.5t36 52.5v0zM1497 881v123 q0 66 -37 110.5t-92 44.5q-53 0 -91 -45t-38 -110v-123h258v0z" />
<glyph unicode="&#xe7;" horiz-adv-x="1153" d="M1100 137q0 -31 -16.5 -57.5t-36.5 -42.5q-76 -63 -173.5 -102t-203.5 -39h-3h-3v-23q115 -2 193.5 -30.5t78.5 -80.5q0 -51 -88 -81.5t-213 -30.5q-74 0 -136.5 11t-103.5 34l74 57q16 -4 42 -8t52 -6q16 -2 29.5 -2h28.5q41 0 68.5 6t29.5 16v1v1v1v1q-2 20 -48 31.5 t-102 16.5h-13h-15v94q-209 37 -348.5 193.5t-139.5 451.5q0 336 180.5 494.5t436.5 158.5q31 0 64.5 -3t68.5 -11q55 -10 107.5 -27.5t86.5 -42.5q37 -25 65 -62.5t28 -84.5q0 -70 -49.5 -120t-120.5 -50q-74 0 -125.5 50t-51.5 120q0 35 16.5 66.5t41.5 54.5 q-14 10 -35 18t-41 10h-7h-7q-45 0 -79 -22.5t-34 -53.5v-989q0 -14 9 -25.5t22 -19.5q16 -12 37.5 -17t44.5 -5q47 0 80.5 21.5t33.5 49.5q0 4 -1 8.5t-3 8.5q0 2 -1 5t-1 5l-3 6t-1 6q-4 8 -5 17.5t-1 21.5q0 49 44 86t101 37q59 0 102.5 -37t43.5 -86v0z" />
<glyph unicode="&#xe8;" horiz-adv-x="1191" d="M1155 805q0 -4 -1 -8t-3 -11q-4 -8 -12.5 -15t-24.5 -7h-514v-709q0 -14 9 -25.5t22 -19.5q16 -12 37.5 -17t44.5 -5q47 0 80.5 21.5t33.5 47.5q0 6 -1 13.5t-5 15.5l-4 8t-2 8q-2 8 -3 16.5t-1 16.5q0 51 44 87t101 36q59 0 103.5 -36t44.5 -87q0 -27 -15.5 -52.5 t-33.5 -43.5q-2 0 -3 -1l-3 -3q-76 -63 -173.5 -101t-203.5 -38q-254 0 -435.5 157.5t-181.5 493.5q0 317 159 475t394 176q10 4 16.5 5t8.5 1q299 0 410.5 -117.5t111.5 -281.5v0zM852 838v123q0 66 -37 110.5t-92 44.5q-53 0 -91 -45t-38 -110v-123h258v0zM928 1313 q-8 -20 -26.5 -32.5t-45.5 -23.5q-2 0 -7 -1t-9 -3q-8 -2 -17.5 -3t-19.5 -1h-5h-5q-6 2 -11.5 3t-9.5 3q-41 20 -82 39t-82 39q-82 39 -162.5 78t-164.5 78q-8 4 -12.5 10t-4.5 14t4 15.5t11 15.5q25 41 67.5 72t102.5 55q8 4 16 5t16 3h8.5h8.5q10 0 20 -1t14 -5 q96 -76 194.5 -152.5t197.5 -152.5q4 -2 6 -9t2 -18v-4v-4q0 -6 -1 -11t-3 -9v0z" />
<glyph unicode="&#xe9;" horiz-adv-x="1204" d="M1155 805q0 -4 -1 -8t-3 -11q-4 -8 -12.5 -15t-24.5 -7h-514v-709q0 -14 9 -25.5t22 -19.5q16 -12 37.5 -17t44.5 -5q47 0 80.5 21.5t33.5 47.5q0 6 -1 13.5t-5 15.5l-4 8t-2 8q-2 8 -3 16.5t-1 16.5q0 51 44 87t101 36q59 0 103.5 -36t44.5 -87q0 -27 -15.5 -52.5 t-33.5 -43.5q-2 0 -3 -1l-3 -3q-76 -63 -173.5 -101t-203.5 -38q-254 0 -435.5 157.5t-181.5 493.5q0 317 159 475t394 176q10 4 16.5 5t8.5 1q299 0 410.5 -117.5t111.5 -281.5v0zM852 838v123q0 66 -37 110.5t-92 44.5q-53 0 -91 -45t-38 -110v-123h258v0zM1161 1540 q4 -4 6 -8l4 -8t3.5 -8.5t1.5 -8.5q0 -6 -3.5 -12t-13.5 -10l-164 -78l-164 -78q-41 -20 -81.5 -38.5t-81.5 -39.5q-8 -4 -15.5 -5t-17.5 -1h-4h-4q-6 0 -13.5 2t-13.5 2q-6 2 -10 3t-6 1q-27 10 -45.5 22.5t-26.5 33.5q-2 4 -3 13t-1 17t2 15.5t6 9.5q98 76 196.5 152.5 t194.5 152.5q4 4 14.5 5t22.5 1h12.5t12.5 -2q6 0 11 -2t11 -4q59 -25 102.5 -55.5t67.5 -71.5v0z" />
<glyph unicode="&#xea;" horiz-adv-x="1187" d="M1155 805q0 -4 -1 -8t-3 -11q-4 -8 -12.5 -15t-24.5 -7h-514v-709q0 -14 9 -25.5t22 -19.5q16 -12 37.5 -17t44.5 -5q47 0 80.5 21.5t33.5 47.5q0 6 -1 13.5t-5 15.5l-4 8t-2 8q-2 8 -3 16.5t-1 16.5q0 51 44 87t101 36q59 0 103.5 -36t44.5 -87q0 -27 -15.5 -52.5 t-33.5 -43.5q-2 0 -3 -1l-3 -3q-76 -63 -173.5 -101t-203.5 -38q-254 0 -435.5 157.5t-181.5 493.5q0 317 159 475t394 176q10 4 16.5 5t8.5 1q299 0 410.5 -117.5t111.5 -281.5v0zM852 838v123q0 66 -37 110.5t-92 44.5q-53 0 -91 -45t-38 -110v-123h258v0zM1133 1309 l-172 -115l-289 195l-295 -199l-178 119l467 313l467 -313v0z" />
<glyph unicode="&#xeb;" horiz-adv-x="1198" d="M1155 805q0 -4 -1 -8t-3 -11q-4 -8 -12.5 -15t-24.5 -7h-514v-709q0 -14 9 -25.5t22 -19.5q16 -12 37.5 -17t44.5 -5q47 0 80.5 21.5t33.5 47.5q0 6 -1 13.5t-5 15.5l-4 8t-2 8q-2 8 -3 16.5t-1 16.5q0 51 44 87t101 36q59 0 103.5 -36t44.5 -87q0 -27 -15.5 -52.5 t-33.5 -43.5q-2 0 -3 -1l-3 -3q-76 -63 -173.5 -101t-203.5 -38q-254 0 -435.5 157.5t-181.5 493.5q0 317 159 475t394 176q10 4 16.5 5t8.5 1q299 0 410.5 -117.5t111.5 -281.5v0zM852 838v123q0 66 -37 110.5t-92 44.5q-53 0 -91 -45t-38 -110v-123h258v0zM686 1384 q0 -57 -57.5 -94t-139.5 -37t-140 37t-58 94q0 53 58.5 92.5t139.5 39.5q82 0 139.5 -39t57.5 -93v0zM1139 1384q0 -57 -56.5 -94t-138.5 -37q-84 0 -141.5 37t-57.5 94q0 53 57.5 92.5t141.5 39.5q82 0 138.5 -39t56.5 -93v0z" />
<glyph unicode="&#xec;" horiz-adv-x="731" d="M711 -4q0 -25 -27 -42t-61 -17l-498 -3q-39 2 -63.5 19.5t-24.5 44.5q0 20 24.5 38.5t63.5 18.5l16 13v1003l-20 12q-37 0 -61.5 17.5t-24.5 44.5q0 25 24.5 42t61.5 17h352q66 0 91.5 -25.5t31.5 -56.5q2 -12 3 -21t1 -20v-1013l23 -13q35 0 61.5 -18.5t26.5 -38.5v-2z M547 1327q-8 -20 -26.5 -32.5t-45.5 -22.5q-2 0 -7 -1t-9 -3q-8 -2 -17.5 -3t-19.5 -1h-5h-5q-6 2 -11.5 3t-9.5 3q-41 20 -82 38.5t-82 39.5q-82 39 -161.5 77.5t-163.5 77.5q-10 4 -13.5 10.5t-3.5 14.5t4.5 15t10.5 16q25 41 66.5 71.5t101.5 55.5q8 4 16 5t16 3h8.5h8.5 q10 0 20 -1t15 -5q96 -76 194 -153t197 -153q4 -2 6 -9t2 -17v-4v-4q0 -6 -1 -11.5t-3 -9.5v0z" />
<glyph unicode="&#xed;" horiz-adv-x="737" d="M711 -4q0 -25 -27 -42t-61 -17l-498 -3q-39 2 -63.5 19.5t-24.5 44.5q0 20 24.5 38.5t63.5 18.5l16 13v1003l-20 12q-37 0 -61.5 17.5t-24.5 44.5q0 25 24.5 42t61.5 17h352q66 0 91.5 -25.5t31.5 -56.5q2 -12 3 -21t1 -20v-1013l23 -13q35 0 61.5 -18.5t26.5 -38.5v-2z M870 1561q4 -4 6.5 -8.5t4.5 -8.5t3 -8t1 -8q0 -6 -3 -12.5t-14 -10.5q-82 -39 -163.5 -77.5t-163.5 -77.5q-41 -20 -82 -39t-82 -39q-8 -4 -15.5 -5t-17.5 -1h-4h-4q-6 0 -13.5 2t-13.5 2q-6 2 -10 3t-6 1q-27 10 -45.5 22.5t-26.5 32.5q-2 4 -3 13.5t-1 17.5t2 15t6 9 q98 76 196.5 153t194.5 153q4 4 14.5 5t22.5 1h12.5t12.5 -2q6 0 11 -2t11 -4q59 -25 102.5 -55.5t67.5 -71.5v0z" />
<glyph unicode="&#xee;" horiz-adv-x="737" d="M711 -4q0 -25 -27 -42t-61 -17l-498 -3q-39 2 -63.5 19.5t-24.5 44.5q0 20 24.5 38.5t63.5 18.5l16 13v1003l-20 12q-37 0 -61.5 17.5t-24.5 44.5q0 25 24.5 42t61.5 17h352q66 0 91.5 -25.5t31.5 -56.5q2 -12 3 -21t1 -20v-1013l23 -13q35 0 61.5 -18.5t26.5 -38.5v-2z M766 1331l-172 -114l-289 194l-295 -199l-178 119l467 314l467 -314v0z" />
<glyph unicode="&#xef;" horiz-adv-x="696" d="M711 -4q0 -25 -27 -42t-61 -17l-498 -3q-39 2 -63.5 19.5t-24.5 44.5q0 20 24.5 38.5t63.5 18.5l16 13v1003l-20 12q-37 0 -61.5 17.5t-24.5 44.5q0 25 24.5 42t61.5 17h352q66 0 91.5 -25.5t31.5 -56.5q2 -12 3 -21t1 -20v-1013l23 -13q35 0 61.5 -18.5t26.5 -38.5v-2z M309 1405q0 -57 -57 -94t-139 -37t-139.5 37t-57.5 94q0 53 57.5 92t139.5 39t139 -39t57 -92v0zM762 1405q0 -57 -56.5 -94t-138.5 -37q-84 0 -141 37t-57 94q0 53 57 92t141 39q82 0 138.5 -39t56.5 -92v0z" />
<glyph unicode="&#xf0;" horiz-adv-x="1386" d="M1323 535v-5.5v-5.5v-5v-5q0 -242 -188.5 -409.5t-442.5 -167.5q-260 0 -444.5 173t-184.5 414q0 244 184.5 418t444.5 174q18 0 37 -1t37 -5q-4 35 -14.5 66.5t-24.5 64.5l-299 -72l-37 64l301 74q-23 41 -51.5 83t-58.5 83q-14 20 -2 33.5t45 13.5q23 0 52.5 -7.5 t63.5 -23.5q55 -23 102.5 -54.5t92.5 -70.5l262 68l35 -64l-238 -59q141 -145 228.5 -345t99.5 -411v-9v-9v0zM825 117q0 8 -7 14t-15 12l-3 3t-3 1q-6 6 -11.5 10.5t-5.5 10.5v760q0 27 -32.5 46t-77.5 19t-77 -19.5t-32 -45.5q0 -4 3 -9.5t7 -11.5q2 -2 5.5 -5t7.5 -7 q6 -8 13 -13l7 -5v-760q0 -14 11.5 -25.5t25.5 -17.5q14 -8 33.5 -15.5t42.5 -7.5q45 0 76.5 19.5t31.5 46.5v0z" />
<glyph unicode="&#xf1;" horiz-adv-x="1421" d="M1389 -8q0 -23 -26 -39t-63 -16l-376 -3q-57 2 -79 36t-22 96v874q0 27 -25.5 43t-56.5 21h-7h-7q-31 0 -54.5 -16.5t-23.5 -51.5v-868l25 -13q35 0 60.5 -18.5t25.5 -38.5q0 -27 -25.5 -44t-60.5 -17l-518 -3q-39 2 -62.5 19.5t-23.5 44.5q0 20 23.5 38.5t62.5 18.5 l18 13v1003l-20 10q-37 0 -62.5 17.5t-25.5 44.5q0 25 25.5 42t62.5 17h395q45 0 67.5 -23.5t28.5 -64.5q49 49 110.5 74.5t125.5 32.5q12 2 22 2h21q135 0 243.5 -74t108.5 -191l4 -892l20 -13q37 0 63 -17.5t26 -41.5v-2zM1012 1382q-29 -35 -64 -59.5t-69 -38.5 q-20 -6 -40 -10t-38 -4q-41 0 -65.5 7t-45.5 15h-3t-3 2q-18 6 -39.5 12.5t-54.5 6.5q-37 0 -70 -10.5t-49 -28.5l-121 174q45 55 97.5 83t115.5 28q41 0 64.5 -7.5t42.5 -15.5q2 0 3 -1t3 -1q18 -8 37.5 -14.5t50.5 -6.5q39 0 72.5 12.5t52.5 30.5l123 -174v0z" />
<glyph unicode="&#xf2;" horiz-adv-x="1351" d="M63 549q0 274 184.5 468.5t444.5 194.5t445.5 -194.5t185.5 -468.5q0 -272 -185.5 -465t-445.5 -193t-444.5 192.5t-184.5 465.5v0zM780 147v859q0 31 -32.5 52t-77.5 21t-77 -21.5t-32 -51.5q0 -4 3 -10.5t7 -12.5q2 -4 5.5 -7t7.5 -7q6 -8 13 -15l7 -6v-860 q0 -14 11.5 -27.5t25.5 -19.5q14 -10 33.5 -17.5t42.5 -7.5q45 0 76.5 21.5t31.5 52.5q0 10 -7 16.5t-15 12.5q0 2 -1 2h-1q-8 6 -14.5 12t-6.5 14v0zM1036 1311q-8 -20 -26.5 -32.5t-44.5 -23.5q-2 0 -7.5 -1t-9.5 -3q-8 -2 -17 -3t-20 -1h-5h-5q-6 2 -11 3t-9 3 q-41 20 -82 39t-82 39q-82 39 -163 78t-165 78q-8 4 -12 10t-4 14t4 15.5t10 15.5q25 41 68 72t102 55q8 4 16.5 5t16.5 3h8h8q10 0 20.5 -1t14.5 -5q96 -76 194.5 -152.5t196.5 -152.5q4 -2 6 -9t2 -18v-4v-4q0 -6 -1 -11t-3 -9v0z" />
<glyph unicode="&#xf3;" horiz-adv-x="1345" d="M63 549q0 274 184.5 468.5t444.5 194.5t445.5 -194.5t185.5 -468.5q0 -272 -185.5 -465t-445.5 -193t-444.5 192.5t-184.5 465.5v0zM780 147v859q0 31 -32.5 52t-77.5 21t-77 -21.5t-32 -51.5q0 -4 3 -10.5t7 -12.5q2 -4 5.5 -7t7.5 -7q6 -8 13 -15l7 -6v-860 q0 -14 11.5 -27.5t25.5 -19.5q14 -10 33.5 -17.5t42.5 -7.5q45 0 76.5 21.5t31.5 52.5q0 10 -7 16.5t-15 12.5q0 2 -1 2h-1q-8 6 -14.5 12t-6.5 14v0zM1268 1554q4 -4 6 -8l4 -8t3 -8t1 -8q0 -6 -3 -12.5t-13 -10.5l-164 -78l-164 -78q-41 -20 -82 -38.5t-82 -38.5 q-8 -4 -15 -5t-18 -1h-4h-4q-6 0 -13 2t-13 2q-6 2 -10.5 3t-6.5 1q-27 10 -45 22.5t-27 32.5q-2 4 -3 13.5t-1 17.5t2 15t7 9q98 76 196.5 153t194.5 152q4 4 14 5.5t23 1.5h12t12 -2q6 0 11.5 -2.5t11.5 -4.5q59 -25 102 -55.5t68 -71.5v0z" />
<glyph unicode="&#xf4;" horiz-adv-x="1351" d="M63 549q0 274 184.5 468.5t444.5 194.5t445.5 -194.5t185.5 -468.5q0 -272 -185.5 -465t-445.5 -193t-444.5 192.5t-184.5 465.5v0zM780 147v859q0 31 -32.5 52t-77.5 21t-77 -21.5t-32 -51.5q0 -4 3 -10.5t7 -12.5q2 -4 5.5 -7t7.5 -7q6 -8 13 -15l7 -6v-860 q0 -14 11.5 -27.5t25.5 -19.5q14 -10 33.5 -17.5t42.5 -7.5q45 0 76.5 21.5t31.5 52.5q0 10 -7 16.5t-15 12.5q0 2 -1 2h-1q-8 6 -14.5 12t-6.5 14v0zM1149 1317l-172 -115l-289 195l-295 -199l-178 119l467 313l467 -313v0z" />
<glyph unicode="&#xf5;" horiz-adv-x="1351" d="M63 549q0 274 184.5 468.5t444.5 194.5t445.5 -194.5t185.5 -468.5q0 -272 -185.5 -465t-445.5 -193t-444.5 192.5t-184.5 465.5v0zM780 147v859q0 31 -32.5 52t-77.5 21t-77 -21.5t-32 -51.5q0 -4 3 -10.5t7 -12.5q2 -4 5.5 -7t7.5 -7q6 -8 13 -15l7 -6v-860 q0 -14 11.5 -27.5t25.5 -19.5q14 -10 33.5 -17.5t42.5 -7.5q45 0 76.5 21.5t31.5 52.5q0 10 -7 16.5t-15 12.5q0 2 -1 2h-1q-8 6 -14.5 12t-6.5 14v0zM1034 1366q-29 -35 -63.5 -59.5t-69.5 -38.5q-20 -6 -39.5 -10.5t-38.5 -4.5q-41 0 -65.5 7.5t-44.5 15.5h-3t-3 2 q-18 6 -40 12t-55 6q-37 0 -69.5 -10t-48.5 -29l-121 175q45 55 97 82.5t116 27.5q41 0 64.5 -7t41.5 -15q2 0 3 -1t3 -1q18 -8 38 -14.5t50 -6.5q39 0 73 12.5t52 30.5l123 -174v0z" />
<glyph unicode="&#xf6;" horiz-adv-x="1351" d="M63 549q0 274 184.5 468.5t444.5 194.5t445.5 -194.5t185.5 -468.5q0 -272 -185.5 -465t-445.5 -193t-444.5 192.5t-184.5 465.5v0zM780 147v859q0 31 -32.5 52t-77.5 21t-77 -21.5t-32 -51.5q0 -4 3 -10.5t7 -12.5q2 -4 5.5 -7t7.5 -7q6 -8 13 -15l7 -6v-860 q0 -14 11.5 -27.5t25.5 -19.5q14 -10 33.5 -17.5t42.5 -7.5q45 0 76.5 21.5t31.5 52.5q0 10 -7 16.5t-15 12.5q0 2 -1 2h-1q-8 6 -14.5 12t-6.5 14v0zM672 1407q0 -57 -57.5 -94t-139.5 -37t-140.5 37t-58.5 94q0 53 58.5 92t140.5 39t139.5 -39t57.5 -92v0zM1124 1407 q0 -57 -56 -94t-138 -37q-84 0 -141.5 37t-57.5 94q0 53 57.5 92t141.5 39q82 0 138 -39t56 -92v0z" />
<glyph unicode="&#xf7;" horiz-adv-x="1005" d="M629 537q0 -6 -2 -14.5t-6 -16.5q-10 -23 -31 -43.5t-43 -22.5h-3h-3h-19q-6 0 -14 2t-14 7q-16 8 -29.5 22t-22.5 29q-4 6 -6 13t-2 13v19q0 25 20.5 47t45.5 35l16 4t14 2q39 0 69 -29t30 -67v0zM930 690h-830v156h830v-156v0zM629 987q0 -6 -2 -14t-6 -17 q-10 -23 -31 -43t-43 -22h-3h-3h-19q-6 0 -14 2t-14 6q-16 8 -29.5 22.5t-22.5 28.5q-4 6 -6 13.5t-2 13.5v18q0 25 20.5 47.5t45.5 34.5l16 4t14 2q39 0 69 -28.5t30 -67.5v0z" />
<glyph unicode="&#xf8;" horiz-adv-x="1386" d="M1323 596q0 -272 -185.5 -465.5t-445.5 -193.5q-33 0 -66.5 3t-64.5 11l-61 -189h-129l73 224q-168 78 -274.5 241.5t-106.5 368.5q0 274 184.5 467.5t444.5 193.5q43 0 86 -6t82 -18l76 227h129l-90 -272q152 -82 250 -239.5t98 -352.5v0zM825 100q0 10 -7 16.5 t-15 12.5q0 2 -1 2h-1q-8 6 -14.5 12.5t-6.5 14.5v444l-172 -518q4 -10 13.5 -18.5t19.5 -12.5q14 -10 33.5 -17t42.5 -7q45 0 76.5 21.5t31.5 49.5v0zM780 991v99q0 31 -32.5 52t-77.5 21t-77 -21.5t-32 -51.5q0 -4 3 -10.5t7 -12.5q2 -4 5.5 -7t7.5 -7q6 -8 13 -15l7 -6 v-569l176 528v0z" />
<glyph unicode="&#xf9;" horiz-adv-x="1406" d="M1389 -6q0 -23 -26 -40t-63 -17l-395 -3q-45 2 -67.5 27t-28.5 64q-47 -47 -124 -75t-167 -28q-111 0 -202 40t-117 106q-6 16 -11.5 32.5t-7.5 34.5q-2 10 -3 22.5t-1 22.5v891l-22 12q-37 0 -62.5 17.5t-25.5 44.5q0 25 25.5 42t62.5 17h358q72 0 95.5 -35.5 t23.5 -97.5v-913q0 -4 2 -9.5t6 -11.5q10 -16 35.5 -30.5t54.5 -14.5q6 0 12.5 1t12.5 3q18 6 34.5 22.5t16.5 43.5v909l-25 10q-33 0 -59.5 18.5t-26.5 41.5q0 27 27 45t59 18h381q76 0 96.5 -29.5t22.5 -64.5v-12v-13v-7v-7v-1003l20 -13q37 0 63 -17.5t26 -41.5v-2z M967 1307q-8 -20 -26.5 -32.5t-45.5 -23.5q-2 0 -7 -1t-9 -3q-8 -2 -17.5 -3t-19.5 -1h-5h-6q-6 2 -11 3t-9 3q-41 20 -82 39t-82 39q-82 39 -163 78t-165 78q-8 4 -12 10t-4 14t4 15.5t10 15.5q25 41 68 71.5t102 55.5q8 4 16.5 5t16.5 3h8h9q10 0 20 -1t14 -5 q96 -76 194.5 -152.5t197.5 -152.5q4 -2 6 -9t2 -18v-4v-4q0 -6 -1 -11t-3 -9v0z" />
<glyph unicode="&#xfa;" horiz-adv-x="1406" d="M1389 -6q0 -23 -26 -40t-63 -17l-395 -3q-45 2 -67.5 27t-28.5 64q-47 -47 -124 -75t-167 -28q-111 0 -202 40t-117 106q-6 16 -11.5 32.5t-7.5 34.5q-2 10 -3 22.5t-1 22.5v891l-22 12q-37 0 -62.5 17.5t-25.5 44.5q0 25 25.5 42t62.5 17h358q72 0 95.5 -35.5 t23.5 -97.5v-913q0 -4 2 -9.5t6 -11.5q10 -16 35.5 -30.5t54.5 -14.5q6 0 12.5 1t12.5 3q18 6 34.5 22.5t16.5 43.5v909l-25 10q-33 0 -59.5 18.5t-26.5 41.5q0 27 27 45t59 18h381q76 0 96.5 -29.5t22.5 -64.5v-12v-13v-7v-7v-1003l20 -13q37 0 63 -17.5t26 -41.5v-2z M1161 1522q4 -4 6 -8.5t4 -8.5t3.5 -8t1.5 -8q0 -6 -3.5 -12.5t-13.5 -10.5q-82 -39 -164 -77.5t-164 -77.5q-41 -20 -81.5 -39t-81.5 -39q-8 -4 -15.5 -5t-17.5 -1h-4h-4q-6 0 -13.5 2t-13.5 2q-6 2 -10 3t-6 1q-27 10 -45.5 22.5t-26.5 32.5q-2 4 -3 13.5t-1 17.5t2 15 t6 10q98 76 196.5 152.5t194.5 152.5q4 4 14.5 5t22.5 1h12.5t12.5 -2q6 0 11 -2t11 -4q59 -25 102.5 -55.5t67.5 -71.5v0z" />
<glyph unicode="&#xfb;" horiz-adv-x="1400" d="M1389 -6q0 -23 -26 -40t-63 -17l-395 -3q-45 2 -67.5 27t-28.5 64q-47 -47 -124 -75t-167 -28q-111 0 -202 40t-117 106q-6 16 -11.5 32.5t-7.5 34.5q-2 10 -3 22.5t-1 22.5v891l-22 12q-37 0 -62.5 17.5t-25.5 44.5q0 25 25.5 42t62.5 17h358q72 0 95.5 -35.5 t23.5 -97.5v-913q0 -4 2 -9.5t6 -11.5q10 -16 35.5 -30.5t54.5 -14.5q6 0 12.5 1t12.5 3q18 6 34.5 22.5t16.5 43.5v909l-25 10q-33 0 -59.5 18.5t-26.5 41.5q0 27 27 45t59 18h381q76 0 96.5 -29.5t22.5 -64.5v-12v-13v-7v-7v-1003l20 -13q37 0 63 -17.5t26 -41.5v-2z M1180 1343l-172 -114l-289 194l-295 -198l-178 118l467 314l467 -314v0z" />
<glyph unicode="&#xfc;" horiz-adv-x="1406" d="M1389 -6q0 -23 -26 -40t-63 -17l-395 -3q-45 2 -67.5 27t-28.5 64q-47 -47 -124 -75t-167 -28q-111 0 -202 40t-117 106q-6 16 -11.5 32.5t-7.5 34.5q-2 10 -3 22.5t-1 22.5v891l-22 12q-37 0 -62.5 17.5t-25.5 44.5q0 25 25.5 42t62.5 17h358q72 0 95.5 -35.5 t23.5 -97.5v-913q0 -4 2 -9.5t6 -11.5q10 -16 35.5 -30.5t54.5 -14.5q6 0 12.5 1t12.5 3q18 6 34.5 22.5t16.5 43.5v909l-25 10q-33 0 -59.5 18.5t-26.5 41.5q0 27 27 45t59 18h381q76 0 96.5 -29.5t22.5 -64.5v-12v-13v-7v-7v-1003l20 -13q37 0 63 -17.5t26 -41.5v-2z M651 1397q0 -57 -57 -94t-139 -37t-140.5 36.5t-58.5 94.5q0 53 58.5 92t140.5 39t139 -39t57 -92v0zM1104 1397q0 -57 -56.5 -94t-138.5 -37q-84 0 -141 36.5t-57 94.5q0 53 57 92t141 39q82 0 138.5 -39t56.5 -92v0z" />
<glyph unicode="&#xfd;" horiz-adv-x="299" />
<glyph unicode="&#xfe;" horiz-adv-x="1427" d="M1364 543q0 -334 -119 -482.5t-325 -148.5q-14 0 -31 1t-31 3q-55 10 -108.5 32.5t-100.5 55.5v-262l23 -12q35 2 61.5 -15.5t26.5 -40.5q0 -27 -26.5 -45t-61.5 -18l-516 -2q-39 2 -63.5 20.5t-24.5 44.5q0 23 24.5 40.5t63.5 17.5l18 10v1526l-20 12q-37 0 -62.5 20.5 t-25.5 47.5q0 25 25.5 42t62.5 17h376q49 0 77 -13.5t34 -66.5v-36v-79v-75.5v-36.5q55 43 116.5 69.5t125.5 32.5q10 2 19 2h18q207 0 325.5 -162.5t118.5 -498.5v0zM879 172v746q0 33 -34 55t-81 22q-45 0 -79 -22.5t-34 -54.5q0 -8 6.5 -14.5t14.5 -12.5h2l2 -2 q8 -6 15 -12.5t7 -16.5v-622q0 -8 -7 -16.5t-15 -14.5q-10 -6 -17.5 -13.5t-7.5 -17.5q0 -29 34 -51.5t79 -22.5q23 0 44 6.5t36 18.5q14 8 24.5 19.5t10.5 25.5v0z" />
<glyph unicode="&#xff;" horiz-adv-x="1142" d="M1133 1176q2 -4 2 -10.5v-14.5v-10t-2 -11v-11t-3 -11q0 -4 -1 -9t-1 -9l-342 -1035q-6 -20 -14 -39.5t-18 -40.5q-47 -104 -143.5 -196t-260.5 -121q-6 0 -13 -1t-13 -3q-10 -2 -21.5 -3t-21.5 -1q-82 0 -141.5 38t-59.5 93q0 57 58.5 96t140.5 39q12 0 23 -2t24 -6 q8 -2 17 -4t17 -2q16 -2 29.5 -3t26.5 -1q45 0 66.5 12t19.5 39v13t-4 15l-336 1092l-21 12q-37 0 -62.5 17.5t-25.5 44.5q0 25 25.5 42t62.5 17h396q41 0 57 -22.5t29 -61.5q2 -10 6 -22.5t8 -26.5l88 -258q6 -23 18.5 -33t28.5 -14q6 -2 11 -3t12 -1h7h5q20 4 33.5 15 t23.5 24q4 4 8.5 9t6.5 9q12 16 18 39t6 47v11.5t-2 9.5q-2 37 -18.5 68.5t-42.5 51.5q-8 6 -21.5 17.5t-25.5 23.5q-16 16 -30.5 34t-23.5 36l-3 6t-1 4q-6 16 -9 30.5t-3 27.5q0 43 38 65.5t99 32.5q10 2 21.5 3t23.5 1q8 0 17.5 -1t19.5 -1q68 -8 126 -47t65 -100v0z M608 1499q0 -57 -57 -94t-139 -37t-140.5 37t-58.5 94q0 53 58.5 92t140.5 39t139 -39t57 -92v0zM1061 1499q0 -57 -56.5 -94t-138.5 -37q-84 0 -141 37t-57 94q0 53 57 92t141 39q82 0 138.5 -39t56.5 -92v0z" />
<glyph unicode="&#x152;" horiz-adv-x="2007" d="M1915 188l-39 -170l-4 -12t-6 -14q-8 -20 -25.5 -37.5t-52.5 -17.5q-16 0 -31.5 2t-30.5 4q-12 2 -23 4t-24 4q-16 2 -31.5 5t-35.5 5q-94 8 -189.5 14.5t-191.5 6.5q-70 0 -139.5 -5.5t-141.5 -15.5l-20 -4t-19 -4q-4 0 -7 -1t-7 -1q-27 -6 -53.5 -10t-55.5 -4 q-291 0 -493.5 234.5t-202.5 561.5q0 330 203 564.5t493 234.5q72 0 139.5 -15.5t129.5 -43.5h465l17 2t38 6q18 2 34.5 5t20.5 3q6 2 12.5 3t12.5 1t14 -1t15 -3q27 -6 50 -23.5t33 -40.5l93 -180q4 -4 6 -10t0 -12q0 -16 -13.5 -31.5t-35.5 -24.5q-4 -2 -9.5 -3t-9.5 -1 q-6 -2 -11 -2h-9q-27 0 -49.5 10.5t-30.5 24.5l-98 158h-148l-18 -17v-467h155v0h2q0 -2 1 -2h1q2 6 4.5 14.5t6.5 18.5q6 10 14 20.5t20 16.5q8 4 16.5 5t16.5 1q23 0 42.5 -9t31.5 -20q2 -2 3 -4t3 -4l135 -215q4 -4 5 -10t1 -12v-4t-2 -4q-2 -14 -15 -26.5t-36 -19.5 q-8 -2 -18.5 -4t-20.5 -2q-27 0 -48 9.5t-32 23.5l-45 84q-6 10 -18 15.5t-27 7.5q-12 2 -23.5 2h-17.5h-155v-674h153q33 0 53.5 12t30.5 27q2 4 4 7t4 5l70 111q10 16 31.5 24t48.5 8h9t11 -2q4 0 9.5 -1t9.5 -3q29 -8 38 -24.5t9 -34.5v-9t-2 -10v0zM922 152 q0 10 -7.5 16t-15.5 14q-8 6 -15 13.5t-7 15.5v1098q0 31 -34 53t-81 22q-45 0 -79 -22.5t-34 -52.5q0 -4 2 -9.5t6 -9.5q4 -6 7.5 -10t9.5 -8q8 -8 15 -14.5t7 -8.5v-1099q0 -14 10.5 -27.5t24.5 -22.5q16 -10 35.5 -17t42.5 -7q47 0 80 22.5t33 53.5v0z" />
<glyph unicode="&#x153;" horiz-adv-x="1892" d="M1905 846q0 -4 -1 -8t-3 -9q-2 -8 -11.5 -15t-25.5 -9h-516v-711q0 -14 8 -23.5t18 -17.5l1 -1l3 -3q12 -10 32 -15t40 -7h5h7q47 0 80 22.5t33 48.5v13.5t-4 15.5l-3 6t-1 6q-2 8 -4 17.5t-2 21.5q0 49 43 85t100 36q63 0 106 -36t43 -85q0 -25 -13 -47t-30 -41l-5 -5 l-7 -7q-74 -63 -171 -101t-206 -38q-100 0 -193 24.5t-171 75.5q-72 -49 -158 -75.5t-178 -26.5q-260 0 -445.5 193.5t-185.5 465.5q0 274 185.5 467.5t445.5 193.5q96 0 183 -28.5t163 -81.5q61 41 135 64.5t156 29.5q8 2 15 2h11q299 0 410 -116.5t111 -280.5v0zM852 135 q0 10 -7 16.5t-14 12.5l-2 2h-2l-12 12t-6 15v397v463q0 29 -33 50t-78 21t-76.5 -21.5t-31.5 -49.5q0 -4 2 -9.5t6 -9.5q2 -6 6 -10l8 -8q6 -8 14 -14l7 -7v-862q0 -14 11 -27.5t26 -19.5q12 -10 31.5 -17.5t41.5 -7.5q45 0 77 21.5t32 52.5v0zM809 590l-2 2h2v0v0v-2v0z M809 592v461v-461v0zM1602 881v120q0 66 -38 111t-91 45q-55 0 -92.5 -45t-37.5 -111v-120h259v0z" />
<glyph unicode="&#x178;" horiz-adv-x="1251" d="M1235 1350q4 -10 5 -21.5t1 -23.5q0 -33 -13.5 -69t-33.5 -71q-12 -23 -26.5 -44t-28.5 -44q-23 -33 -44.5 -64.5t-35.5 -60.5l-84 -166v-716l22 -13q35 0 61.5 -18.5t26.5 -38.5q0 -27 -26.5 -44t-61.5 -17l-553 -2q-39 2 -63.5 19t-24.5 44q0 20 25 38.5t63 18.5l19 13 v589l-338 658l-21 12q-37 0 -62.5 17.5t-25.5 44.5q0 25 26 42t62 17h553q35 0 60.5 -17.5t25.5 -41.5q0 -27 -25.5 -44.5t-60.5 -17.5l-22 -12l231 -449l92 168q4 10 6.5 20.5t2.5 22.5v7.5v5.5q-2 10 -4 19t-7 15q-16 29 -28.5 44.5t-22.5 29.5q-2 0 -3 2t-3 4 q-12 12 -26.5 29.5t-34.5 46.5q-14 18 -21.5 37.5t-7.5 40.5q0 43 35 78t110 49q20 4 39 5t35 1q78 0 131 -36t76 -107v0zM662 1657q0 -57 -57.5 -94t-139.5 -37t-140.5 36.5t-58.5 94.5q0 53 58.5 92t140.5 39t139.5 -39t57.5 -92v0zM1114 1657q0 -57 -56.5 -94t-137.5 -37 q-84 0 -141.5 36.5t-57.5 94.5q0 53 57.5 92t141.5 39q82 0 138 -39t56 -92v0z" />
<glyph unicode="&#x2c6;" horiz-adv-x="741" d="M666 1374q-29 -35 -64 -59.5t-70 -38.5q-20 -6 -39.5 -10t-37.5 -4q-41 0 -65.5 7t-45.5 15h-3t-3 2q-18 6 -40 12.5t-54 6.5q-37 0 -70 -10.5t-49 -28.5l-121 174q45 55 97.5 82.5t115.5 27.5q41 0 64.5 -7t42.5 -15q2 0 3 -1t3 -1q18 -8 37.5 -14.5t50.5 -6.5 q39 0 72.5 12.5t52.5 30.5l123 -174v0z" />
<glyph unicode="&#x2dc;" horiz-adv-x="1026" d="M981 1331l-172 -114l-289 194l-295 -199l-178 119l467 314l467 -314v0z" />
<glyph unicode="&#x2000;" horiz-adv-x="1012" />
<glyph unicode="&#x2001;" horiz-adv-x="2025" />
<glyph unicode="&#x2002;" horiz-adv-x="1012" />
<glyph unicode="&#x2003;" horiz-adv-x="2025" />
<glyph unicode="&#x2004;" horiz-adv-x="675" />
<glyph unicode="&#x2005;" horiz-adv-x="506" />
<glyph unicode="&#x2006;" horiz-adv-x="337" />
<glyph unicode="&#x2007;" horiz-adv-x="337" />
<glyph unicode="&#x2008;" horiz-adv-x="253" />
<glyph unicode="&#x2009;" horiz-adv-x="405" />
<glyph unicode="&#x200a;" horiz-adv-x="112" />
<glyph unicode="&#x2010;" horiz-adv-x="747" d="M655 487h-563v256h563v-256v0z" />
<glyph unicode="&#x2011;" horiz-adv-x="747" d="M655 487h-563v256h563v-256v0z" />
<glyph unicode="&#x2012;" horiz-adv-x="747" d="M655 487h-563v256h563v-256v0z" />
<glyph unicode="&#x2013;" horiz-adv-x="952" d="M860 446h-768v256h768v-256v0z" />
<glyph unicode="&#x2014;" horiz-adv-x="1157" d="M1065 446h-973v256h973v-256v0z" />
<glyph unicode="&#x2018;" horiz-adv-x="468" d="M449 1251q0 -63 -70 -108t-158 -45q-86 0 -146.5 45t-60.5 108q-2 8 -4 17.5t-2 17.5q0 31 14.5 70t40.5 78q31 49 73 96t85 80q20 14 40 25.5t38 19.5q12 14 31.5 21t42.5 7q8 0 15 -1t15 -3q18 -6 29.5 -17t13.5 -22q2 -4 2.5 -6t0.5 -4q0 -6 -1.5 -11t-5.5 -9 q-10 -2 -21 -6.5t-22 -8.5q-45 -16 -81.5 -47.5t-36.5 -68.5q0 -14 7 -27.5t21 -28.5q6 -4 12.5 -9t12.5 -11q4 -4 8 -7t10 -7q35 -31 66 -63t31 -75v0z" />
<glyph unicode="&#x2019;" horiz-adv-x="499" d="M477 1518q4 -8 5 -16.5t1 -18.5q0 -31 -14 -70t-41 -78q-31 -49 -73 -96t-85 -80q-20 -14 -39.5 -25.5t-37.5 -19.5q-10 -14 -31 -21.5t-43 -7.5q-8 0 -15.5 1t-15.5 4q-16 4 -27.5 14t-15.5 22q0 2 -1 6.5t-1 6.5q0 6 2 11t4 9q10 2 21.5 6t21.5 9q45 16 82 47.5 t37 68.5q0 14 -6 27.5t-23 28.5q-6 6 -12 10t-12 10q-4 4 -8.5 7l-10.5 7q-35 31 -65.5 63t-30.5 75q0 63 69.5 108t157.5 45q86 0 146.5 -45t60.5 -108v0z" />
<glyph unicode="&#x201a;" horiz-adv-x="485" d="M457 145q4 -8 5 -16t1 -18q0 -31 -14.5 -70t-40.5 -76q-31 -49 -73 -96t-85 -80q-20 -14 -40 -25.5t-38 -19.5q-10 -14 -30.5 -21.5t-43.5 -7.5q-8 0 -15 1t-15 3q-16 4 -27.5 14.5t-15.5 22.5q0 2 -1 5t-1 8q0 6 2 11t4 9q10 2 21 6l22 8q45 16 81.5 48t36.5 69 q0 14 -6 27.5t-22 27.5q-6 4 -12.5 9.5t-12.5 11.5q-4 4 -8 6t-10 6q-35 31 -65.5 62.5t-30.5 74.5q0 63 69.5 108.5t157.5 45.5q86 0 146.5 -45t60.5 -109v0z" />
<glyph unicode="&#x201c;" horiz-adv-x="929" d="M449 1251q0 -63 -70 -108t-158 -45q-86 0 -146.5 45t-60.5 108q-2 8 -4 17.5t-2 17.5q0 31 14.5 70t40.5 78q31 49 73 96t85 80q20 14 40 25.5t38 19.5q12 14 31.5 21t42.5 7q8 0 15 -1t15 -3q18 -6 29.5 -17t13.5 -22q2 -4 2.5 -6t0.5 -4q0 -6 -1.5 -11t-5.5 -9 q-10 -2 -21 -6.5t-22 -8.5q-45 -16 -81.5 -47.5t-36.5 -68.5q0 -14 7 -27.5t21 -28.5q6 -4 12.5 -9t12.5 -11q4 -4 8 -7t10 -7q35 -31 66 -63t31 -75v0zM920 1251q0 -63 -70 -108t-158 -45q-86 0 -146.5 45t-60.5 108q-2 8 -4 17.5t-2 17.5q0 31 14.5 70t41.5 78 q31 49 72.5 96t84.5 80q20 14 40 25.5t38 19.5q12 14 31.5 21t42.5 7q8 0 15 -1t15 -3q18 -6 29.5 -17t14.5 -22q2 -4 2 -6v-4q0 -6 -1 -11t-6 -9q-10 -2 -21 -6.5t-22 -8.5q-45 -16 -81.5 -47.5t-36.5 -68.5q0 -14 7 -27.5t21 -28.5q6 -4 12.5 -9t12.5 -11q4 -4 8 -7t10 -7 q35 -31 66 -63t31 -75v0z" />
<glyph unicode="&#x201d;" horiz-adv-x="929" d="M457 1518q4 -8 5 -16.5t1 -18.5q0 -31 -14.5 -70t-40.5 -78q-31 -49 -73 -96t-85 -80q-20 -14 -40 -25.5t-38 -19.5q-10 -14 -30.5 -21.5t-43.5 -7.5q-8 0 -15 1t-15 4q-16 4 -27.5 14t-15.5 22q0 2 -1 6.5t-1 6.5q0 6 2 11t4 9q10 2 21 6t22 9q45 16 81.5 47.5 t36.5 68.5q0 14 -6 27.5t-22 28.5q-6 6 -12.5 10t-12.5 10q-4 4 -8 7t-10 7q-35 31 -65.5 63t-30.5 75q0 63 69.5 108t157.5 45q86 0 146.5 -45t60.5 -108v0zM928 1518q4 -8 5 -16.5t1 -18.5q0 -31 -14.5 -70t-40.5 -78q-31 -49 -73 -96t-85 -80q-20 -14 -39.5 -25.5 t-38.5 -19.5q-10 -14 -30.5 -21.5t-43.5 -7.5q-8 0 -15 1t-15 4q-16 4 -27.5 14t-15.5 22q0 2 -1 6.5t-1 6.5q0 6 2 11t4 9q10 2 21 6t22 9q45 16 82 47.5t37 68.5q0 14 -6.5 27.5t-22.5 28.5q-6 6 -12.5 10t-12.5 10q-4 4 -8 7t-10 7q-35 31 -65.5 63t-30.5 75 q0 63 69.5 108t157.5 45q86 0 146.5 -45t60.5 -108v0z" />
<glyph unicode="&#x201e;" horiz-adv-x="929" d="M457 145q4 -8 5 -16t1 -18q0 -31 -14.5 -70t-40.5 -76q-31 -49 -73 -96t-85 -80q-20 -14 -40 -25.5t-38 -19.5q-10 -14 -30.5 -21.5t-43.5 -7.5q-8 0 -15 1t-15 3q-16 4 -27.5 14.5t-15.5 22.5q0 2 -1 5t-1 8q0 6 2 11t4 9q10 2 21 6l22 8q45 16 81.5 48t36.5 69 q0 14 -6 27.5t-22 27.5q-6 4 -12.5 9.5t-12.5 11.5q-4 4 -8 6t-10 6q-35 31 -65.5 62.5t-30.5 74.5q0 63 69.5 108.5t157.5 45.5q86 0 146.5 -45t60.5 -109v0zM928 145q4 -8 5 -16t1 -18q0 -31 -14.5 -70t-40.5 -76q-31 -49 -73 -96t-85 -80q-20 -14 -39.5 -25.5 t-38.5 -19.5q-10 -14 -30.5 -21.5t-43.5 -7.5q-8 0 -15 1t-15 3q-16 4 -27.5 14.5t-15.5 22.5q0 2 -1 5t-1 8q0 6 2 11t4 9q10 2 21 6l22 8q45 16 82 48t37 69q0 14 -6.5 27.5t-22.5 27.5q-6 4 -12.5 9.5t-12.5 11.5q-4 4 -8 6t-10 6q-35 31 -65.5 62.5t-30.5 74.5 q0 63 69.5 108.5t157.5 45.5q86 0 146.5 -45t60.5 -109v0z" />
<glyph unicode="&#x2022;" horiz-adv-x="886" d="M442 1139q170 0 290 -120t120 -290q0 -168 -120 -289t-290 -121q-168 0 -288.5 121t-120.5 289q0 170 120.5 290t288.5 120v0z" />
<glyph unicode="&#x2026;" horiz-adv-x="1501" d="M461 92q0 -76 -64.5 -128t-154.5 -52t-154.5 52t-64.5 128t64.5 129t154.5 53t154.5 -53t64.5 -129v0zM973 92q0 -76 -64.5 -128t-154.5 -52t-154.5 52t-64.5 128t64.5 129t154.5 53t154.5 -53t64.5 -129v0zM1485 92q0 -76 -64.5 -128t-154.5 -52t-154.5 52t-64.5 128 t64.5 129t154.5 53t154.5 -53t64.5 -129v0z" />
<glyph unicode="&#x202f;" horiz-adv-x="405" />
<glyph unicode="&#x2039;" d="M553 418l-147 -144l-334 334l334 334l147 -143l-170 -191l170 -190v0z" />
<glyph unicode="&#x203a;" d="M543 608l-334 -334l-148 144l170 190l-170 191l148 143l334 -334v0z" />
<glyph unicode="&#x205f;" horiz-adv-x="506" />
<glyph unicode="&#x2122;" horiz-adv-x="921" d="M369 1446h-76v-389h-152v389h-80v135h308v-135v0zM834 1057h-136v278l-59 -125h-45l-59 125v-278h-136v524h113l106 -225l103 225h113v-524v0z" />
<glyph unicode="&#x25fc;" horiz-adv-x="1290" d="M0 1290h1290v-1290h-1290v1290z" />
</font>
</defs>
</svg>
